<svg width="29" height="29" viewBox="0 0 29 29" fill="none" xmlns="http://www.w3.org/2000/svg">
<path d="M23.2684 17.919L23.2695 17.9196L16.6802 13.906L20.6777 7.31519C21.0067 6.77276 20.8435 6.05227 20.3023 5.72258L19.4591 5.20902C18.918 4.87941 18.2027 5.06483 17.8737 5.60726L13.8762 12.1981L7.28705 8.18459C6.74606 7.85508 6.03956 8.02541 5.71048 8.56798L5.19508 9.41773C4.86625 9.95986 5.04169 10.6648 5.58282 10.9944L12.1721 15.008L8.1601 21.6226C7.83128 22.1648 8.01059 22.8626 8.55187 23.1923L9.395 23.7059C9.93628 24.0356 10.6354 23.8725 10.9641 23.3306L14.9761 16.7159L21.5642 20.7288C22.1055 21.0585 22.8116 20.8903 23.1404 20.3483L23.6558 19.4986C23.9849 18.956 23.8097 18.2487 23.2684 17.919Z" fill="#6EC1B1"/>
</svg>
