<svg width="80" height="71" viewBox="0 0 80 71" fill="none" xmlns="http://www.w3.org/2000/svg">
<path d="M70.6674 59.6429C70.7668 60.8742 69.7405 61.9011 68.5119 61.7996L58.4904 60.972C56.7937 60.8319 56.0381 58.7654 57.2429 57.5599L66.4538 48.3435C67.6586 47.138 69.7196 47.8983 69.8568 49.5989L70.6674 59.6429Z" fill="#FFD67E"/>
<path d="M14.5 50.106C21.4036 50.106 27 44.4976 27 37.5794C27 30.6612 21.4036 25.0529 14.5 25.0529C7.59644 25.0529 2 30.6612 2 37.5794C2 44.4976 7.59644 50.106 14.5 50.106Z" stroke="#FD6F55" stroke-width="3"/>
<ellipse rx="6.5" ry="6.51379" transform="matrix(1 0 0 -1 47.5 6.5138)" fill="#6EC1B1"/>
</svg>
