<svg width="70" height="40" viewBox="0 0 70 40" fill="none" xmlns="http://www.w3.org/2000/svg">
<path d="M23.2684 17.919L23.2695 17.9196L16.6802 13.906L20.6777 7.31519C21.0067 6.77276 20.8435 6.05227 20.3023 5.72258L19.4591 5.20902C18.918 4.87941 18.2027 5.06483 17.8737 5.60726L13.8762 12.1981L7.28705 8.18459C6.74606 7.85508 6.03956 8.02541 5.71048 8.56798L5.19508 9.41773C4.86625 9.95986 5.04169 10.6648 5.58282 10.9944L12.1721 15.008L8.1601 21.6226C7.83128 22.1648 8.01059 22.8626 8.55187 23.1923L9.395 23.7059C9.93628 24.0356 10.6354 23.8725 10.9641 23.3306L14.9761 16.7159L21.5642 20.7288C22.1055 21.0585 22.8116 20.8903 23.1404 20.3483L23.6558 19.4986C23.9849 18.956 23.8097 18.2487 23.2684 17.919Z" fill="#FD6F55"/>
<path d="M64.1952 28.8684L64.1962 28.8691L57.6069 24.8555L61.6045 18.2646C61.9335 17.7222 61.7703 17.0017 61.229 16.672L60.3859 16.1585C59.8447 15.8289 59.1295 16.0143 58.8005 16.5567L54.8029 23.1475L48.2138 19.1341C47.6728 18.8045 46.9663 18.9749 46.6372 19.5174L46.1218 20.3672C45.793 20.9093 45.9684 21.6142 46.5096 21.9438L53.0989 25.9574L49.0869 32.5721C48.758 33.1142 48.9373 33.8121 49.4786 34.1418L50.3218 34.6553C50.863 34.985 51.5621 34.822 51.8908 34.28L55.9029 27.6654L62.491 31.6782C63.0322 32.0079 63.7384 31.8398 64.0671 31.2978L64.5825 30.4481C64.9116 29.9055 64.7365 29.1981 64.1952 28.8684Z" fill="#6EC1B1"/>
</svg>
