<svg width="124" height="89" viewBox="0 0 124 89" fill="none" xmlns="http://www.w3.org/2000/svg">
<path d="M109.013 18.354C107.998 19.0575 106.594 18.6804 106.066 17.5627L101.763 8.45324C101.035 6.9122 102.442 5.22585 104.087 5.66761L116.662 9.04423C118.307 9.48599 118.684 11.6514 117.285 12.6212L109.013 18.354Z" fill="#6EC1B1"/>
<path d="M23.2684 67.0227L23.2695 67.0234L16.6802 63.0098L20.6777 56.4189C21.0067 55.8765 20.8435 55.156 20.3023 54.8263L19.4591 54.3128C18.918 53.9832 18.2027 54.1686 17.8737 54.711L13.8762 61.3018L7.28705 57.2884C6.74606 56.9588 6.03956 57.1292 5.71048 57.6717L5.19508 58.5215C4.86625 59.0636 5.04169 59.7685 5.58282 60.0981L12.1721 64.1117L8.1601 70.7264C7.83128 71.2685 8.01059 71.9664 8.55187 72.2961L9.395 72.8096C9.93628 73.1393 10.6354 72.9763 10.9641 72.4343L14.9761 65.8197L21.5642 69.8325C22.1055 70.1622 22.8116 69.9941 23.1404 69.4521L23.6558 68.6024C23.9849 68.0598 23.8097 67.3524 23.2684 67.0227Z" fill="#FD6F55"/>
<path d="M64.1952 77.972L64.1962 77.9726L57.6069 73.959L61.6045 67.3682C61.9335 66.8257 61.7703 66.1053 61.229 65.7756L60.3859 65.262C59.8447 64.9324 59.1295 65.1178 58.8005 65.6602L54.8029 72.2511L48.2138 68.2376C47.6728 67.9081 46.9663 68.0784 46.6372 68.621L46.1218 69.4707C45.793 70.0128 45.9684 70.7178 46.5096 71.0474L53.0989 75.0609L49.0869 81.6756C48.758 82.2177 48.9373 82.9156 49.4786 83.2453L50.3218 83.7589C50.863 84.0886 51.5621 83.9255 51.8908 83.3835L55.9029 76.7689L62.491 80.7817C63.0322 81.1114 63.7384 80.9433 64.0671 80.4013L64.5825 79.5516C64.9116 79.009 64.7365 78.3017 64.1952 77.972Z" fill="#FFC854"/>
</svg>
