<svg width="681" height="191" viewBox="0 0 681 191" fill="none" xmlns="http://www.w3.org/2000/svg">
<g filter="url(#filter0_dd)">
<rect x="15" y="12" width="633" height="143" rx="5" fill="#FFBBAF"/>
</g>
<rect x="2.5" y="25.5" width="631.726" height="139.297" rx="4.5" fill="white" stroke="#D72100"/>
<path d="M61.8552 49.324H65.9712C67.6886 49.324 69.0512 49.66 70.0592 50.332C70.8059 50.836 71.3752 51.4987 71.7672 52.32C72.1779 53.1227 72.3832 53.972 72.3832 54.868C72.3832 56.548 71.7766 57.9107 70.5632 58.956C69.4246 59.9267 67.9032 60.412 65.9992 60.412H64.7112V68H61.8552V49.324ZM64.7112 51.956V57.78H65.9992C67.1939 57.78 68.0992 57.5187 68.7152 56.996C69.3312 56.4547 69.6392 55.736 69.6392 54.84C69.6392 54.5227 69.5926 54.224 69.4992 53.944C69.4246 53.664 69.2659 53.3653 69.0232 53.048C68.7992 52.712 68.4259 52.4507 67.9032 52.264C67.3806 52.0587 66.7366 51.956 65.9712 51.956H64.7112ZM83.0644 64.024L85.3604 65.312C84.8377 66.2453 84.175 66.964 83.3724 67.468C82.4577 68.0653 81.3004 68.364 79.9004 68.364C78.2577 68.364 76.9324 67.86 75.9244 66.852C74.767 65.6947 74.1884 64.192 74.1884 62.344C74.1884 60.4027 74.8137 58.788 76.0644 57.5C77.1284 56.436 78.4444 55.904 80.0124 55.904C81.543 55.904 82.803 56.4173 83.7924 57.444C84.8937 58.5827 85.4444 60.244 85.4444 62.428V62.764H76.9884C77.063 63.7533 77.399 64.5467 77.9964 65.144C78.5004 65.648 79.2004 65.9 80.0964 65.9C80.8244 65.9 81.4497 65.704 81.9724 65.312C82.4017 64.976 82.7657 64.5467 83.0644 64.024ZM77.1844 60.524H82.6444C82.5324 59.8707 82.2524 59.3387 81.8044 58.928C81.319 58.48 80.703 58.256 79.9564 58.256C79.1724 58.256 78.5284 58.508 78.0244 59.012C77.6137 59.3853 77.3337 59.8893 77.1844 60.524ZM88.3122 68V56.212H95.5362V58.732H91.0562V68H88.3122ZM97.4997 56.212H100.244V62.904L108.308 55.148V68H105.564V61.14L97.4997 68.896V56.212ZM120.901 56.744V59.824C119.912 58.8533 118.801 58.368 117.569 58.368C116.524 58.368 115.656 58.7133 114.965 59.404C114.293 60.076 113.957 60.9813 113.957 62.12C113.957 63.296 114.312 64.2387 115.021 64.948C115.693 65.5827 116.524 65.9 117.513 65.9C118.876 65.9 120.005 65.396 120.901 64.388V67.44C119.912 68.056 118.717 68.364 117.317 68.364C115.432 68.364 113.938 67.7853 112.837 66.628C111.717 65.4707 111.157 63.996 111.157 62.204C111.157 60.356 111.754 58.8347 112.949 57.64C114.106 56.4827 115.684 55.904 117.681 55.904C118.82 55.904 119.893 56.184 120.901 56.744ZM131.924 58.732H128.48V68H125.736V58.732H122.292V56.212H131.924V58.732ZM136.638 66.628V74.412H133.894V56.212H136.638V57.5C137.534 56.436 138.701 55.904 140.138 55.904C141.744 55.904 143.097 56.4733 144.198 57.612C145.318 58.732 145.878 60.2067 145.878 62.036C145.878 63.9213 145.3 65.452 144.142 66.628C142.985 67.7853 141.66 68.364 140.166 68.364C138.766 68.364 137.59 67.7853 136.638 66.628ZM139.802 58.368C138.869 58.368 138.076 58.704 137.422 59.376C136.788 60.0293 136.47 60.9627 136.47 62.176C136.47 63.352 136.788 64.2667 137.422 64.92C138.076 65.5733 138.869 65.9 139.802 65.9C140.773 65.9 141.557 65.536 142.154 64.808C142.77 64.08 143.078 63.1933 143.078 62.148C143.078 61.084 142.77 60.188 142.154 59.46C141.557 58.732 140.773 58.368 139.802 58.368ZM148.742 56.212H151.486V62.904L159.55 55.148V68H156.806V61.14L148.742 68.896V56.212ZM165.759 66.628V74.412H163.015V56.212H165.759V57.5C166.655 56.436 167.822 55.904 169.259 55.904C170.865 55.904 172.218 56.4733 173.319 57.612C174.439 58.732 174.999 60.2067 174.999 62.036C174.999 63.9213 174.421 65.452 173.263 66.628C172.106 67.7853 170.781 68.364 169.287 68.364C167.887 68.364 166.711 67.7853 165.759 66.628ZM168.923 58.368C167.99 58.368 167.197 58.704 166.543 59.376C165.909 60.0293 165.591 60.9627 165.591 62.176C165.591 63.352 165.909 64.2667 166.543 64.92C167.197 65.5733 167.99 65.9 168.923 65.9C169.894 65.9 170.678 65.536 171.275 64.808C171.891 64.08 172.199 63.1933 172.199 62.148C172.199 61.084 171.891 60.188 171.275 59.46C170.678 58.732 169.894 58.368 168.923 58.368ZM176.995 74.412L181.335 66.152L176.295 56.212H179.599L182.959 63.1L186.375 56.212H189.455L180.075 74.412H176.995ZM191.371 56.212H194.115V62.904L202.179 55.148V68H199.435V61.14L191.371 68.896V56.212ZM192.267 51.116L194.507 50.472C194.861 51.6853 195.627 52.292 196.803 52.292C197.96 52.292 198.725 51.6853 199.099 50.472L201.339 51.116C201.04 52.18 200.433 53.0013 199.519 53.58C198.623 54.14 197.717 54.42 196.803 54.42C195.888 54.42 194.973 54.14 194.059 53.58C193.163 53.0013 192.565 52.18 192.267 51.116ZM213.764 58.732H210.32V68H207.576V58.732H204.132V56.212H213.764V58.732ZM223.693 64.024L225.989 65.312C225.467 66.2453 224.804 66.964 224.001 67.468C223.087 68.0653 221.929 68.364 220.529 68.364C218.887 68.364 217.561 67.86 216.553 66.852C215.396 65.6947 214.817 64.192 214.817 62.344C214.817 60.4027 215.443 58.788 216.693 57.5C217.757 56.436 219.073 55.904 220.641 55.904C222.172 55.904 223.432 56.4173 224.421 57.444C225.523 58.5827 226.073 60.244 226.073 62.428V62.764H217.617C217.692 63.7533 218.028 64.5467 218.625 65.144C219.129 65.648 219.829 65.9 220.725 65.9C221.453 65.9 222.079 65.704 222.601 65.312C223.031 64.976 223.395 64.5467 223.693 64.024ZM217.813 60.524H223.273C223.161 59.8707 222.881 59.3387 222.433 58.928C221.948 58.48 221.332 58.256 220.585 58.256C219.801 58.256 219.157 58.508 218.653 59.012C218.243 59.3853 217.963 59.8893 217.813 60.524ZM238.069 56.744V59.824C237.08 58.8533 235.969 58.368 234.737 58.368C233.692 58.368 232.824 58.7133 232.133 59.404C231.461 60.076 231.125 60.9813 231.125 62.12C231.125 63.296 231.48 64.2387 232.189 64.948C232.861 65.5827 233.692 65.9 234.681 65.9C236.044 65.9 237.173 65.396 238.069 64.388V67.44C237.08 68.056 235.885 68.364 234.485 68.364C232.6 68.364 231.106 67.7853 230.005 66.628C228.885 65.4707 228.325 63.996 228.325 62.204C228.325 60.356 228.922 58.8347 230.117 57.64C231.274 56.4827 232.852 55.904 234.849 55.904C235.988 55.904 237.061 56.184 238.069 56.744ZM240.699 68V56.212H243.443V60.384H245.011C245.515 60.384 245.926 60.4027 246.243 60.44C246.56 60.4587 246.943 60.5613 247.391 60.748C247.839 60.9347 248.231 61.2147 248.567 61.588C249.183 62.2787 249.491 63.1373 249.491 64.164C249.491 65.34 249.136 66.2827 248.427 66.992C248.11 67.3093 247.727 67.552 247.279 67.72C246.85 67.8693 246.486 67.9533 246.187 67.972C245.907 67.9907 245.506 68 244.983 68H240.699ZM243.443 65.648H244.703C245.375 65.648 245.851 65.564 246.131 65.396C246.542 65.0973 246.747 64.696 246.747 64.192C246.747 63.6693 246.551 63.2773 246.159 63.016C245.86 62.8293 245.384 62.736 244.731 62.736H243.443V65.648ZM258.445 68V56.212H261.189V60.58H266.061V56.212H268.805V68H266.061V63.1H261.189V68H258.445ZM280.905 57.584V56.212H283.649V68H280.905V66.768C279.99 67.832 278.814 68.364 277.377 68.364C275.641 68.364 274.25 67.748 273.205 66.516C272.178 65.284 271.665 63.8093 271.665 62.092C271.665 60.2253 272.216 58.732 273.317 57.612C274.437 56.4733 275.8 55.904 277.405 55.904C278.88 55.904 280.046 56.464 280.905 57.584ZM277.741 58.368C276.77 58.368 275.977 58.732 275.361 59.46C274.764 60.188 274.465 61.084 274.465 62.148C274.465 63.1933 274.764 64.08 275.361 64.808C275.977 65.536 276.77 65.9 277.741 65.9C278.674 65.9 279.458 65.5733 280.093 64.92C280.746 64.2667 281.073 63.352 281.073 62.176C281.073 60.9627 280.746 60.0293 280.093 59.376C279.458 58.704 278.674 58.368 277.741 58.368ZM293.664 68V56.212H296.408V60.58H301.28V56.212H304.024V68H301.28V63.1H296.408V68H293.664ZM316.124 57.584V56.212H318.868V68H316.124V66.768C315.209 67.832 314.033 68.364 312.596 68.364C310.86 68.364 309.469 67.748 308.424 66.516C307.397 65.284 306.884 63.8093 306.884 62.092C306.884 60.2253 307.434 58.732 308.536 57.612C309.656 56.4733 311.018 55.904 312.624 55.904C314.098 55.904 315.265 56.464 316.124 57.584ZM312.96 58.368C311.989 58.368 311.196 58.732 310.58 59.46C309.982 60.188 309.684 61.084 309.684 62.148C309.684 63.1933 309.982 64.08 310.58 64.808C311.196 65.536 311.989 65.9 312.96 65.9C313.893 65.9 314.677 65.5733 315.312 64.92C315.965 64.2667 316.292 63.352 316.292 62.176C316.292 60.9627 315.965 60.0293 315.312 59.376C314.677 58.704 313.893 58.368 312.96 58.368ZM322.347 68V56.212H325.091V65.48H329.011V56.212H331.755V65.48H335.675V56.212H338.419V68H322.347ZM350.158 64.024L352.454 65.312C351.931 66.2453 351.269 66.964 350.466 67.468C349.551 68.0653 348.394 68.364 346.994 68.364C345.351 68.364 344.026 67.86 343.018 66.852C341.861 65.6947 341.282 64.192 341.282 62.344C341.282 60.4027 341.907 58.788 343.158 57.5C344.222 56.436 345.538 55.904 347.106 55.904C348.637 55.904 349.897 56.4173 350.886 57.444C351.987 58.5827 352.538 60.244 352.538 62.428V62.764H344.082C344.157 63.7533 344.493 64.5467 345.09 65.144C345.594 65.648 346.294 65.9 347.19 65.9C347.918 65.9 348.543 65.704 349.066 65.312C349.495 64.976 349.859 64.5467 350.158 64.024ZM344.278 60.524H349.738C349.626 59.8707 349.346 59.3387 348.898 58.928C348.413 58.48 347.797 58.256 347.05 58.256C346.266 58.256 345.622 58.508 345.118 59.012C344.707 59.3853 344.427 59.8893 344.278 60.524ZM354.062 68L356.918 55.148L361.79 64.136L366.662 55.148L369.518 68H366.718L365.542 62.092L361.79 68.896L358.038 62.092L356.862 68H354.062ZM387.311 56.744V59.824C386.322 58.8533 385.211 58.368 383.979 58.368C382.934 58.368 382.066 58.7133 381.375 59.404C380.703 60.076 380.367 60.9813 380.367 62.12C380.367 63.296 380.722 64.2387 381.431 64.948C382.103 65.5827 382.934 65.9 383.923 65.9C385.286 65.9 386.415 65.396 387.311 64.388V67.44C386.322 68.056 385.127 68.364 383.727 68.364C381.842 68.364 380.349 67.7853 379.247 66.628C378.127 65.4707 377.567 63.996 377.567 62.204C377.567 60.356 378.165 58.8347 379.359 57.64C380.517 56.4827 382.094 55.904 384.091 55.904C385.23 55.904 386.303 56.184 387.311 56.744ZM398.565 57.584V56.212H401.309V68H398.565V66.768C397.65 67.832 396.474 68.364 395.037 68.364C393.301 68.364 391.91 67.748 390.865 66.516C389.838 65.284 389.325 63.8093 389.325 62.092C389.325 60.2253 389.876 58.732 390.977 57.612C392.097 56.4733 393.46 55.904 395.065 55.904C396.54 55.904 397.706 56.464 398.565 57.584ZM395.401 58.368C394.43 58.368 393.637 58.732 393.021 59.46C392.424 60.188 392.125 61.084 392.125 62.148C392.125 63.1933 392.424 64.08 393.021 64.808C393.637 65.536 394.43 65.9 395.401 65.9C396.334 65.9 397.118 65.5733 397.753 64.92C398.406 64.2667 398.733 63.352 398.733 62.176C398.733 60.9627 398.406 60.0293 397.753 59.376C397.118 58.704 396.334 58.368 395.401 58.368ZM404.789 56.212H407.533V62.904L415.597 55.148V68H412.853V61.14L404.789 68.896V56.212ZM405.685 51.116L407.925 50.472C408.279 51.6853 409.045 52.292 410.221 52.292C411.378 52.292 412.143 51.6853 412.517 50.472L414.757 51.116C414.458 52.18 413.851 53.0013 412.937 53.58C412.041 54.14 411.135 54.42 410.221 54.42C409.306 54.42 408.391 54.14 407.477 53.58C406.581 53.0013 405.983 52.18 405.685 51.116ZM427.182 58.732H423.738V68H420.994V58.732H417.55V56.212H427.182V58.732ZM437.111 64.024L439.407 65.312C438.885 66.2453 438.222 66.964 437.419 67.468C436.505 68.0653 435.347 68.364 433.947 68.364C432.305 68.364 430.979 67.86 429.971 66.852C428.814 65.6947 428.235 64.192 428.235 62.344C428.235 60.4027 428.861 58.788 430.111 57.5C431.175 56.436 432.491 55.904 434.059 55.904C435.59 55.904 436.85 56.4173 437.839 57.444C438.941 58.5827 439.491 60.244 439.491 62.428V62.764H431.035C431.11 63.7533 431.446 64.5467 432.043 65.144C432.547 65.648 433.247 65.9 434.143 65.9C434.871 65.9 435.497 65.704 436.019 65.312C436.449 64.976 436.813 64.5467 437.111 64.024ZM431.231 60.524H436.691C436.579 59.8707 436.299 59.3387 435.851 58.928C435.366 58.48 434.75 58.256 434.003 58.256C433.219 58.256 432.575 58.508 432.071 59.012C431.661 59.3853 431.381 59.8893 431.231 60.524ZM440.903 71.612L443.759 64.5L446.223 65.452L442.751 72.368L440.903 71.612ZM457.863 56.212H468.111V68H465.367V58.732H460.607V68H457.863V56.212ZM472.766 57.668C473.979 56.492 475.482 55.904 477.274 55.904C479.066 55.904 480.559 56.492 481.754 57.668C482.967 58.8253 483.574 60.3093 483.574 62.12C483.574 63.912 482.967 65.4053 481.754 66.6C480.559 67.776 479.066 68.364 477.274 68.364C475.482 68.364 473.979 67.776 472.766 66.6C471.571 65.4053 470.974 63.912 470.974 62.12C470.974 60.3093 471.571 58.8253 472.766 57.668ZM474.726 64.892C475.36 65.564 476.21 65.9 477.274 65.9C478.338 65.9 479.187 65.564 479.822 64.892C480.456 64.2013 480.774 63.2867 480.774 62.148C480.774 60.8973 480.428 59.9547 479.738 59.32C479.066 58.6853 478.244 58.368 477.274 58.368C476.303 58.368 475.472 58.6853 474.782 59.32C474.11 59.9547 473.774 60.8973 473.774 62.148C473.774 63.2867 474.091 64.2013 474.726 64.892ZM496.125 56.212V68H493.381V58.732H489.909V63.408C489.909 64.864 489.536 65.9933 488.789 66.796C487.837 67.86 486.549 68.2613 484.925 68V65.48C485.728 65.6667 486.372 65.4893 486.857 64.948C487.137 64.612 487.277 64.0987 487.277 63.408V56.212H496.125ZM498.722 74.412L503.062 66.152L498.022 56.212H501.326L504.686 63.1L508.102 56.212H511.182L501.802 74.412H498.722ZM519.481 68V63.436C518.641 63.604 517.839 63.688 517.073 63.688C515.729 63.688 514.693 63.3987 513.965 62.82C513.2 62.204 512.817 61.2613 512.817 59.992V56.212H515.561V59.432C515.561 60.2347 515.795 60.776 516.261 61.056C516.579 61.2427 517.036 61.336 517.633 61.336C518.305 61.336 518.921 61.2333 519.481 61.028V56.212H522.225V68H519.481ZM534.327 57.584V56.212H537.071V68H534.327V66.768C533.412 67.832 532.236 68.364 530.799 68.364C529.063 68.364 527.672 67.748 526.627 66.516C525.6 65.284 525.087 63.8093 525.087 62.092C525.087 60.2253 525.637 58.732 526.739 57.612C527.859 56.4733 529.221 55.904 530.827 55.904C532.301 55.904 533.468 56.464 534.327 57.584ZM531.163 58.368C530.192 58.368 529.399 58.732 528.783 59.46C528.185 60.188 527.887 61.084 527.887 62.148C527.887 63.1933 528.185 64.08 528.783 64.808C529.399 65.536 530.192 65.9 531.163 65.9C532.096 65.9 532.88 65.5733 533.515 64.92C534.168 64.2667 534.495 63.352 534.495 62.176C534.495 60.9627 534.168 60.0293 533.515 59.376C532.88 58.704 532.096 58.368 531.163 58.368ZM540.55 56.212H543.294V62.904L551.358 55.148V68H548.614V61.14L540.55 68.896V56.212ZM541.446 51.116L543.686 50.472C544.041 51.6853 544.806 52.292 545.982 52.292C547.14 52.292 547.905 51.6853 548.278 50.472L550.518 51.116C550.22 52.18 549.613 53.0013 548.698 53.58C547.802 54.14 546.897 54.42 545.982 54.42C545.068 54.42 544.153 54.14 543.238 53.58C542.342 53.0013 541.745 52.18 541.446 51.116ZM562.944 58.732H559.5V68H556.756V58.732H553.312V56.212H562.944V58.732ZM572.873 64.024L575.169 65.312C574.646 66.2453 573.984 66.964 573.181 67.468C572.266 68.0653 571.109 68.364 569.709 68.364C568.066 68.364 566.741 67.86 565.733 66.852C564.576 65.6947 563.997 64.192 563.997 62.344C563.997 60.4027 564.622 58.788 565.873 57.5C566.937 56.436 568.253 55.904 569.821 55.904C571.352 55.904 572.612 56.4173 573.601 57.444C574.702 58.5827 575.253 60.244 575.253 62.428V62.764H566.797C566.872 63.7533 567.208 64.5467 567.805 65.144C568.309 65.648 569.009 65.9 569.905 65.9C570.633 65.9 571.258 65.704 571.781 65.312C572.21 64.976 572.574 64.5467 572.873 64.024ZM566.993 60.524H572.453C572.341 59.8707 572.061 59.3387 571.613 58.928C571.128 58.48 570.512 58.256 569.765 58.256C568.981 58.256 568.337 58.508 567.833 59.012C567.422 59.3853 567.142 59.8893 566.993 60.524ZM50.7663 92.584V91.212H53.5103V103H50.7663V101.768C49.8516 102.832 48.6756 103.364 47.2383 103.364C45.5023 103.364 44.1116 102.748 43.0663 101.516C42.0396 100.284 41.5263 98.8093 41.5263 97.092C41.5263 95.2253 42.0769 93.732 43.1783 92.612C44.2983 91.4733 45.6609 90.904 47.2663 90.904C48.7409 90.904 49.9076 91.464 50.7663 92.584ZM47.6022 93.368C46.6316 93.368 45.8383 93.732 45.2223 94.46C44.6249 95.188 44.3263 96.084 44.3263 97.148C44.3263 98.1933 44.6249 99.08 45.2223 99.808C45.8383 100.536 46.6316 100.9 47.6022 100.9C48.5356 100.9 49.3196 100.573 49.9543 99.92C50.6076 99.2667 50.9343 98.352 50.9343 97.176C50.9343 95.9627 50.6076 95.0293 49.9543 94.376C49.3196 93.704 48.5356 93.368 47.6022 93.368ZM56.9899 91.212H59.7339V95.412L63.6539 91.212H67.2939L62.1419 96.364L67.5739 103H64.1019L60.1819 98.156L59.7339 98.604V103H56.9899V91.212ZM69.3766 103V91.212H72.1206V100.48H76.7686V91.212H79.5126V100.48H81.4726V106.36H78.9526V103H69.3766ZM83.4313 91.212H86.1753V97.904L94.2393 90.148V103H91.4953V96.14L83.4313 103.896V91.212ZM98.8808 92.668C100.094 91.492 101.597 90.904 103.389 90.904C105.181 90.904 106.674 91.492 107.869 92.668C109.082 93.8253 109.689 95.3093 109.689 97.12C109.689 98.912 109.082 100.405 107.869 101.6C106.674 102.776 105.181 103.364 103.389 103.364C101.597 103.364 100.094 102.776 98.8808 101.6C97.6861 100.405 97.0888 98.912 97.0888 97.12C97.0888 95.3093 97.6861 93.8253 98.8808 92.668ZM100.841 99.892C101.475 100.564 102.325 100.9 103.389 100.9C104.453 100.9 105.302 100.564 105.937 99.892C106.571 99.2013 106.889 98.2867 106.889 97.148C106.889 95.8973 106.543 94.9547 105.853 94.32C105.181 93.6853 104.359 93.368 103.389 93.368C102.418 93.368 101.587 93.6853 100.897 94.32C100.225 94.9547 99.8888 95.8973 99.8888 97.148C99.8888 98.2867 100.206 99.2013 100.841 99.892ZM112.552 103V91.212H115.296V95.58H120.168V91.212H122.912V103H120.168V98.1H115.296V103H112.552ZM126.388 103V91.212H129.132V95.58H134.004V91.212H136.748V103H134.004V98.1H129.132V103H126.388ZM140.224 103V91.212H142.968V95.384H144.536C145.04 95.384 145.451 95.4027 145.768 95.44C146.086 95.4587 146.468 95.5613 146.916 95.748C147.364 95.9347 147.756 96.2147 148.092 96.588C148.708 97.2787 149.016 98.1373 149.016 99.164C149.016 100.34 148.662 101.283 147.952 101.992C147.635 102.309 147.252 102.552 146.804 102.72C146.375 102.869 146.011 102.953 145.712 102.972C145.432 102.991 145.031 103 144.508 103H140.224ZM142.968 100.648H144.228C144.9 100.648 145.376 100.564 145.656 100.396C146.067 100.097 146.272 99.696 146.272 99.192C146.272 98.6693 146.076 98.2773 145.684 98.016C145.386 97.8293 144.91 97.736 144.256 97.736H142.968V100.648ZM150.248 103V91.212H152.992V103H150.248ZM164.726 99.024L167.022 100.312C166.5 101.245 165.837 101.964 165.034 102.468C164.12 103.065 162.962 103.364 161.562 103.364C159.92 103.364 158.594 102.86 157.586 101.852C156.429 100.695 155.85 99.192 155.85 97.344C155.85 95.4027 156.476 93.788 157.726 92.5C158.79 91.436 160.106 90.904 161.674 90.904C163.205 90.904 164.465 91.4173 165.454 92.444C166.556 93.5827 167.106 95.244 167.106 97.428V97.764H158.65C158.725 98.7533 159.061 99.5467 159.658 100.144C160.162 100.648 160.862 100.9 161.758 100.9C162.486 100.9 163.112 100.704 163.634 100.312C164.064 99.976 164.428 99.5467 164.726 99.024ZM158.846 95.524H164.306C164.194 94.8707 163.914 94.3387 163.466 93.928C162.981 93.48 162.365 93.256 161.618 93.256C160.834 93.256 160.19 93.508 159.686 94.012C159.276 94.3853 158.996 94.8893 158.846 95.524ZM176.509 91.212H179.253V95.412L183.173 91.212H186.813L181.661 96.364L187.093 103H183.621L179.701 98.156L179.253 98.604V103H176.509V91.212ZM188.028 109.412L192.368 101.152L187.328 91.212H190.632L193.992 98.1L197.408 91.212H200.488L191.108 109.412H188.028ZM202.404 91.212H212.652V103H209.908V93.732H205.148V103H202.404V91.212ZM217.307 92.668C218.52 91.492 220.023 90.904 221.815 90.904C223.607 90.904 225.1 91.492 226.295 92.668C227.508 93.8253 228.115 95.3093 228.115 97.12C228.115 98.912 227.508 100.405 226.295 101.6C225.1 102.776 223.607 103.364 221.815 103.364C220.023 103.364 218.52 102.776 217.307 101.6C216.112 100.405 215.515 98.912 215.515 97.12C215.515 95.3093 216.112 93.8253 217.307 92.668ZM219.267 99.892C219.901 100.564 220.751 100.9 221.815 100.9C222.879 100.9 223.728 100.564 224.363 99.892C224.997 99.2013 225.315 98.2867 225.315 97.148C225.315 95.8973 224.969 94.9547 224.279 94.32C223.607 93.6853 222.785 93.368 221.815 93.368C220.844 93.368 220.013 93.6853 219.323 94.32C218.651 94.9547 218.315 95.8973 218.315 97.148C218.315 98.2867 218.632 99.2013 219.267 99.892ZM230.978 103V91.212H233.722V95.58H238.594V91.212H241.338V103H238.594V98.1H233.722V103H230.978ZM244.814 103V91.212H247.558V95.384H249.126C249.63 95.384 250.041 95.4027 250.358 95.44C250.675 95.4587 251.058 95.5613 251.506 95.748C251.954 95.9347 252.346 96.2147 252.682 96.588C253.298 97.2787 253.606 98.1373 253.606 99.164C253.606 100.34 253.251 101.283 252.542 101.992C252.225 102.309 251.842 102.552 251.394 102.72C250.965 102.869 250.601 102.953 250.302 102.972C250.022 102.991 249.621 103 249.098 103H244.814ZM247.558 100.648H248.818C249.49 100.648 249.966 100.564 250.246 100.396C250.657 100.097 250.862 99.696 250.862 99.192C250.862 98.6693 250.666 98.2773 250.274 98.016C249.975 97.8293 249.499 97.736 248.846 97.736H247.558V100.648ZM254.838 103V91.212H257.582V103H254.838ZM267.591 91.212H270.335V97.904L278.399 90.148V103H275.655V96.14L267.591 103.896V91.212ZM288.4 103V91.212H291.144V95.58H296.016V91.212H298.76V103H296.016V98.1H291.144V103H288.4ZM310.86 92.584V91.212H313.604V103H310.86V101.768C309.945 102.832 308.769 103.364 307.332 103.364C305.596 103.364 304.205 102.748 303.16 101.516C302.133 100.284 301.62 98.8093 301.62 97.092C301.62 95.2253 302.171 93.732 303.272 92.612C304.392 91.4733 305.755 90.904 307.36 90.904C308.835 90.904 310.001 91.464 310.86 92.584ZM307.696 93.368C306.725 93.368 305.932 93.732 305.316 94.46C304.719 95.188 304.42 96.084 304.42 97.148C304.42 98.1933 304.719 99.08 305.316 99.808C305.932 100.536 306.725 100.9 307.696 100.9C308.629 100.9 309.413 100.573 310.048 99.92C310.701 99.2667 311.028 98.352 311.028 97.176C311.028 95.9627 310.701 95.0293 310.048 94.376C309.413 93.704 308.629 93.368 307.696 93.368ZM326.212 91.744V94.824C325.222 93.8533 324.112 93.368 322.88 93.368C321.834 93.368 320.966 93.7133 320.276 94.404C319.604 95.076 319.268 95.9813 319.268 97.12C319.268 98.296 319.622 99.2387 320.332 99.948C321.004 100.583 321.834 100.9 322.824 100.9C324.186 100.9 325.316 100.396 326.212 99.388V102.44C325.222 103.056 324.028 103.364 322.628 103.364C320.742 103.364 319.249 102.785 318.148 101.628C317.028 100.471 316.468 98.996 316.468 97.204C316.468 95.356 317.065 93.8347 318.26 92.64C319.417 91.4827 320.994 90.904 322.992 90.904C324.13 90.904 325.204 91.184 326.212 91.744ZM338.803 91.212V103H336.059V93.732H332.587V98.408C332.587 99.864 332.214 100.993 331.467 101.796C330.515 102.86 329.227 103.261 327.603 103V100.48C328.406 100.667 329.05 100.489 329.535 99.948C329.815 99.612 329.955 99.0987 329.955 98.408V91.212H338.803ZM350.891 92.584V91.212H353.635V103H350.891V101.768C349.977 102.832 348.801 103.364 347.363 103.364C345.627 103.364 344.237 102.748 343.191 101.516C342.165 100.284 341.651 98.8093 341.651 97.092C341.651 95.2253 342.202 93.732 343.303 92.612C344.423 91.4733 345.786 90.904 347.391 90.904C348.866 90.904 350.033 91.464 350.891 92.584ZM347.727 93.368C346.757 93.368 345.963 93.732 345.347 94.46C344.75 95.188 344.451 96.084 344.451 97.148C344.451 98.1933 344.75 99.08 345.347 99.808C345.963 100.536 346.757 100.9 347.727 100.9C348.661 100.9 349.445 100.573 350.079 99.92C350.733 99.2667 351.059 98.352 351.059 97.176C351.059 95.9627 350.733 95.0293 350.079 94.376C349.445 93.704 348.661 93.368 347.727 93.368ZM362.743 91.212H365.487V95.58L369.043 91.212H372.347L367.783 96.588L372.795 103H369.379L365.823 98.268L365.487 98.66V103H362.743V98.66L362.407 98.268L358.851 103H355.435L360.447 96.588L355.883 91.212H359.187L362.743 95.58V91.212ZM376.197 91.212H385.045V100.48H386.837V106.36H384.317V103H376.085V106.36H373.565V100.48C374.517 100.424 375.236 99.9107 375.721 98.94C376.038 98.2493 376.197 97.2133 376.197 95.832V91.212ZM382.301 100.48V93.732H378.829V96.868C378.829 98.5667 378.372 99.7707 377.457 100.48H382.301ZM397.43 92.584V91.212H400.174V103H397.43V101.768C396.516 102.832 395.34 103.364 393.902 103.364C392.166 103.364 390.776 102.748 389.73 101.516C388.704 100.284 388.19 98.8093 388.19 97.092C388.19 95.2253 388.741 93.732 389.842 92.612C390.962 91.4733 392.325 90.904 393.93 90.904C395.405 90.904 396.572 91.464 397.43 92.584ZM394.266 93.368C393.296 93.368 392.502 93.732 391.886 94.46C391.289 95.188 390.99 96.084 390.99 97.148C390.99 98.1933 391.289 99.08 391.886 99.808C392.502 100.536 393.296 100.9 394.266 100.9C395.2 100.9 395.984 100.573 396.618 99.92C397.272 99.2667 397.598 98.352 397.598 97.176C397.598 95.9627 397.272 95.0293 396.618 94.376C395.984 93.704 395.2 93.368 394.266 93.368ZM403.654 91.212H406.398V97.904L414.462 90.148V103H411.718V96.14L403.654 103.896V91.212ZM404.55 86.116L406.79 85.472C407.145 86.6853 407.91 87.292 409.086 87.292C410.243 87.292 411.009 86.6853 411.382 85.472L413.622 86.116C413.323 87.18 412.717 88.0013 411.802 88.58C410.906 89.14 410.001 89.42 409.086 89.42C408.171 89.42 407.257 89.14 406.342 88.58C405.446 88.0013 404.849 87.18 404.55 86.116ZM426.047 93.732H422.603V103H419.859V93.732H416.415V91.212H426.047V93.732ZM435.976 99.024L438.272 100.312C437.75 101.245 437.087 101.964 436.284 102.468C435.37 103.065 434.212 103.364 432.812 103.364C431.17 103.364 429.844 102.86 428.836 101.852C427.679 100.695 427.1 99.192 427.1 97.344C427.1 95.4027 427.726 93.788 428.976 92.5C430.04 91.436 431.356 90.904 432.924 90.904C434.455 90.904 435.715 91.4173 436.704 92.444C437.806 93.5827 438.356 95.244 438.356 97.428V97.764H429.9C429.975 98.7533 430.311 99.5467 430.908 100.144C431.412 100.648 432.112 100.9 433.008 100.9C433.736 100.9 434.362 100.704 434.884 100.312C435.314 99.976 435.678 99.5467 435.976 99.024ZM430.096 95.524H435.556C435.444 94.8707 435.164 94.3387 434.716 93.928C434.231 93.48 433.615 93.256 432.868 93.256C432.084 93.256 431.44 93.508 430.936 94.012C430.526 94.3853 430.246 94.8893 430.096 95.524ZM450.352 91.744V94.824C449.363 93.8533 448.252 93.368 447.02 93.368C445.975 93.368 445.107 93.7133 444.416 94.404C443.744 95.076 443.408 95.9813 443.408 97.12C443.408 98.296 443.763 99.2387 444.472 99.948C445.144 100.583 445.975 100.9 446.964 100.9C448.327 100.9 449.456 100.396 450.352 99.388V102.44C449.363 103.056 448.168 103.364 446.768 103.364C444.883 103.364 443.39 102.785 442.288 101.628C441.168 100.471 440.608 98.996 440.608 97.204C440.608 95.356 441.206 93.8347 442.4 92.64C443.558 91.4827 445.135 90.904 447.132 90.904C448.271 90.904 449.344 91.184 450.352 91.744ZM452.982 103V91.212H455.726V95.384H457.294C457.798 95.384 458.209 95.4027 458.526 95.44C458.843 95.4587 459.226 95.5613 459.674 95.748C460.122 95.9347 460.514 96.2147 460.85 96.588C461.466 97.2787 461.774 98.1373 461.774 99.164C461.774 100.34 461.419 101.283 460.71 101.992C460.393 102.309 460.01 102.552 459.562 102.72C459.133 102.869 458.769 102.953 458.47 102.972C458.19 102.991 457.789 103 457.266 103H452.982ZM455.726 100.648H456.986C457.658 100.648 458.134 100.564 458.414 100.396C458.825 100.097 459.03 99.696 459.03 99.192C459.03 98.6693 458.834 98.2773 458.442 98.016C458.143 97.8293 457.667 97.736 457.014 97.736H455.726V100.648ZM470.728 91.212H475.348C476.524 91.212 477.42 91.4453 478.036 91.912C478.764 92.4907 479.128 93.2467 479.128 94.18C479.128 95.244 478.662 96.0093 477.728 96.476C478.326 96.588 478.858 96.8493 479.324 97.26C479.94 97.82 480.248 98.576 480.248 99.528C480.248 100.667 479.819 101.563 478.96 102.216C478.251 102.739 477.346 103 476.244 103H470.728V91.212ZM473.472 95.804H474.872C475.358 95.804 475.722 95.72 475.964 95.552C476.319 95.328 476.496 95.0107 476.496 94.6C476.496 94.208 476.338 93.9 476.02 93.676C475.796 93.5267 475.395 93.452 474.816 93.452H473.472V95.804ZM473.472 100.76H475.516C476.132 100.76 476.608 100.648 476.944 100.424C477.318 100.181 477.504 99.836 477.504 99.388C477.504 98.9027 477.327 98.5573 476.972 98.352C476.655 98.1467 476.198 98.044 475.6 98.044H473.472V100.76ZM483.115 103V91.212H485.859V95.384H487.427C487.931 95.384 488.342 95.4027 488.659 95.44C488.976 95.4587 489.359 95.5613 489.807 95.748C490.255 95.9347 490.647 96.2147 490.983 96.588C491.599 97.2787 491.907 98.1373 491.907 99.164C491.907 100.34 491.552 101.283 490.843 101.992C490.526 102.309 490.143 102.552 489.695 102.72C489.266 102.869 488.902 102.953 488.603 102.972C488.323 102.991 487.922 103 487.399 103H483.115ZM485.859 100.648H487.119C487.791 100.648 488.267 100.564 488.547 100.396C488.958 100.097 489.163 99.696 489.163 99.192C489.163 98.6693 488.967 98.2773 488.575 98.016C488.276 97.8293 487.8 97.736 487.147 97.736H485.859V100.648ZM493.139 103V91.212H495.883V103H493.139ZM499.357 103V91.212H506.581V93.732H502.101V103H499.357ZM509.447 92.668C510.66 91.492 512.163 90.904 513.955 90.904C515.747 90.904 517.24 91.492 518.435 92.668C519.648 93.8253 520.255 95.3093 520.255 97.12C520.255 98.912 519.648 100.405 518.435 101.6C517.24 102.776 515.747 103.364 513.955 103.364C512.163 103.364 510.66 102.776 509.447 101.6C508.252 100.405 507.655 98.912 507.655 97.12C507.655 95.3093 508.252 93.8253 509.447 92.668ZM511.407 99.892C512.042 100.564 512.891 100.9 513.955 100.9C515.019 100.9 515.868 100.564 516.503 99.892C517.138 99.2013 517.455 98.2867 517.455 97.148C517.455 95.8973 517.11 94.9547 516.419 94.32C515.747 93.6853 514.926 93.368 513.955 93.368C512.984 93.368 512.154 93.6853 511.463 94.32C510.791 94.9547 510.455 95.8973 510.455 97.148C510.455 98.2867 510.772 99.2013 511.407 99.892ZM524.127 91.212H532.975V100.48H534.767V106.36H532.247V103H524.015V106.36H521.495V100.48C522.447 100.424 523.165 99.9107 523.651 98.94C523.968 98.2493 524.127 97.2133 524.127 95.832V91.212ZM530.231 100.48V93.732H526.759V96.868C526.759 98.5667 526.301 99.7707 525.387 100.48H530.231ZM536.736 103V91.212H539.48V95.58H544.352V91.212H547.096V103H544.352V98.1H539.48V103H536.736ZM550.572 103V91.212H553.316V95.384H554.884C555.388 95.384 555.799 95.4027 556.116 95.44C556.433 95.4587 556.816 95.5613 557.264 95.748C557.712 95.9347 558.104 96.2147 558.44 96.588C559.056 97.2787 559.364 98.1373 559.364 99.164C559.364 100.34 559.009 101.283 558.3 101.992C557.983 102.309 557.6 102.552 557.152 102.72C556.723 102.869 556.359 102.953 556.06 102.972C555.78 102.991 555.379 103 554.856 103H550.572ZM553.316 100.648H554.576C555.248 100.648 555.724 100.564 556.004 100.396C556.415 100.097 556.62 99.696 556.62 99.192C556.62 98.6693 556.424 98.2773 556.032 98.016C555.733 97.8293 555.257 97.736 554.604 97.736H553.316V100.648ZM560.596 103V91.212H563.34V103H560.596ZM565.47 103L568.326 90.148L573.198 99.136L578.07 90.148L580.926 103H578.126L576.95 97.092L573.198 103.896L569.446 97.092L568.27 103H565.47ZM583.056 91.212H585.8V97.904L593.864 90.148V103H591.12V96.14L583.056 103.896V91.212ZM123.695 126.212H133.943V138H131.199V128.732H126.439V138H123.695V126.212ZM138.598 127.668C139.811 126.492 141.314 125.904 143.106 125.904C144.898 125.904 146.391 126.492 147.586 127.668C148.799 128.825 149.406 130.309 149.406 132.12C149.406 133.912 148.799 135.405 147.586 136.6C146.391 137.776 144.898 138.364 143.106 138.364C141.314 138.364 139.811 137.776 138.598 136.6C137.403 135.405 136.806 133.912 136.806 132.12C136.806 130.309 137.403 128.825 138.598 127.668ZM140.558 134.892C141.192 135.564 142.042 135.9 143.106 135.9C144.17 135.9 145.019 135.564 145.654 134.892C146.288 134.201 146.606 133.287 146.606 132.148C146.606 130.897 146.26 129.955 145.57 129.32C144.898 128.685 144.076 128.368 143.106 128.368C142.135 128.368 141.304 128.685 140.614 129.32C139.942 129.955 139.606 130.897 139.606 132.148C139.606 133.287 139.923 134.201 140.558 134.892ZM152.269 126.212H155.013V130.412L158.933 126.212H162.573L157.421 131.364L162.853 138H159.381L155.461 133.156L155.013 133.604V138H152.269V126.212ZM163.788 144.412L168.128 136.152L163.088 126.212H166.392L169.752 133.1L173.168 126.212H176.248L166.868 144.412H163.788ZM178.164 126.212H188.412V138H185.668V128.732H180.908V138H178.164V126.212ZM191.89 126.212H194.634V130.412L198.554 126.212H202.194L197.042 131.364L202.474 138H199.002L195.082 133.156L194.634 133.604V138H191.89V126.212ZM212.901 127.584V126.212H215.645V138H212.901V136.768C211.986 137.832 210.81 138.364 209.373 138.364C207.637 138.364 206.246 137.748 205.201 136.516C204.174 135.284 203.661 133.809 203.661 132.092C203.661 130.225 204.212 128.732 205.313 127.612C206.433 126.473 207.796 125.904 209.401 125.904C210.876 125.904 212.042 126.464 212.901 127.584ZM209.737 128.368C208.766 128.368 207.973 128.732 207.357 129.46C206.76 130.188 206.461 131.084 206.461 132.148C206.461 133.193 206.76 134.08 207.357 134.808C207.973 135.536 208.766 135.9 209.737 135.9C210.67 135.9 211.454 135.573 212.089 134.92C212.742 134.267 213.069 133.352 213.069 132.176C213.069 130.963 212.742 130.029 212.089 129.376C211.454 128.704 210.67 128.368 209.737 128.368ZM217.781 138L220.637 125.148L225.509 134.136L230.381 125.148L233.237 138H230.437L229.261 132.092L225.509 138.896L221.757 132.092L220.581 138H217.781ZM235.367 126.212H238.111V132.904L246.175 125.148V138H243.431V131.14L235.367 138.896V126.212ZM256.175 126.212H258.919V132.904L266.983 125.148V138H264.239V131.14L256.175 138.896V126.212ZM277.992 126.212H286.84V135.48H288.632V141.36H286.112V138H277.88V141.36H275.36V135.48C276.312 135.424 277.031 134.911 277.516 133.94C277.833 133.249 277.992 132.213 277.992 130.832V126.212ZM284.096 135.48V128.732H280.624V131.868C280.624 133.567 280.167 134.771 279.252 135.48H284.096ZM298.861 134.024L301.157 135.312C300.635 136.245 299.972 136.964 299.169 137.468C298.255 138.065 297.097 138.364 295.697 138.364C294.055 138.364 292.729 137.86 291.721 136.852C290.564 135.695 289.985 134.192 289.985 132.344C289.985 130.403 290.611 128.788 291.861 127.5C292.925 126.436 294.241 125.904 295.809 125.904C297.34 125.904 298.6 126.417 299.589 127.444C300.691 128.583 301.241 130.244 301.241 132.428V132.764H292.785C292.86 133.753 293.196 134.547 293.793 135.144C294.297 135.648 294.997 135.9 295.893 135.9C296.621 135.9 297.247 135.704 297.769 135.312C298.199 134.976 298.563 134.547 298.861 134.024ZM292.981 130.524H298.441C298.329 129.871 298.049 129.339 297.601 128.928C297.116 128.48 296.5 128.256 295.753 128.256C294.969 128.256 294.325 128.508 293.821 129.012C293.411 129.385 293.131 129.889 292.981 130.524ZM304.109 138V126.212H306.853V135.48H310.773V126.212H313.517V135.48H317.437V126.212H320.181V138H304.109ZM331.92 134.024L334.216 135.312C333.693 136.245 333.03 136.964 332.228 137.468C331.313 138.065 330.156 138.364 328.756 138.364C327.113 138.364 325.788 137.86 324.78 136.852C323.622 135.695 323.044 134.192 323.044 132.344C323.044 130.403 323.669 128.788 324.92 127.5C325.984 126.436 327.3 125.904 328.868 125.904C330.398 125.904 331.658 126.417 332.648 127.444C333.749 128.583 334.3 130.244 334.3 132.428V132.764H325.844C325.918 133.753 326.254 134.547 326.852 135.144C327.356 135.648 328.056 135.9 328.952 135.9C329.68 135.9 330.305 135.704 330.828 135.312C331.257 134.976 331.621 134.547 331.92 134.024ZM326.04 130.524H331.5C331.388 129.871 331.108 129.339 330.66 128.928C330.174 128.48 329.558 128.256 328.812 128.256C328.028 128.256 327.384 128.508 326.88 129.012C326.469 129.385 326.189 129.889 326.04 130.524ZM337.168 126.212H341.788C342.964 126.212 343.86 126.445 344.476 126.912C345.204 127.491 345.568 128.247 345.568 129.18C345.568 130.244 345.101 131.009 344.168 131.476C344.765 131.588 345.297 131.849 345.764 132.26C346.38 132.82 346.688 133.576 346.688 134.528C346.688 135.667 346.258 136.563 345.4 137.216C344.69 137.739 343.785 138 342.684 138H337.168V126.212ZM339.912 130.804H341.312C341.797 130.804 342.161 130.72 342.404 130.552C342.758 130.328 342.936 130.011 342.936 129.6C342.936 129.208 342.777 128.9 342.46 128.676C342.236 128.527 341.834 128.452 341.256 128.452H339.912V130.804ZM339.912 135.76H341.956C342.572 135.76 343.048 135.648 343.384 135.424C343.757 135.181 343.944 134.836 343.944 134.388C343.944 133.903 343.766 133.557 343.412 133.352C343.094 133.147 342.637 133.044 342.04 133.044H339.912V135.76ZM349.554 138V126.212H352.298V130.384H353.866C354.37 130.384 354.781 130.403 355.098 130.44C355.416 130.459 355.798 130.561 356.246 130.748C356.694 130.935 357.086 131.215 357.422 131.588C358.038 132.279 358.346 133.137 358.346 134.164C358.346 135.34 357.992 136.283 357.282 136.992C356.965 137.309 356.582 137.552 356.134 137.72C355.705 137.869 355.341 137.953 355.042 137.972C354.762 137.991 354.361 138 353.838 138H349.554ZM352.298 135.648H353.558C354.23 135.648 354.706 135.564 354.986 135.396C355.397 135.097 355.602 134.696 355.602 134.192C355.602 133.669 355.406 133.277 355.014 133.016C354.716 132.829 354.24 132.736 353.586 132.736H352.298V135.648ZM359.578 138V126.212H362.322V138H359.578ZM364.453 138L367.309 125.148L372.181 134.136L377.053 125.148L379.909 138H377.109L375.933 132.092L372.181 138.896L368.429 132.092L367.253 138H364.453ZM382.039 126.212H384.783V132.904L392.847 125.148V138H390.103V131.14L382.039 138.896V126.212ZM401.979 144.412L406.319 136.152L401.279 126.212H404.583L407.943 133.1L411.359 126.212H414.439L405.059 144.412H401.979ZM424.882 126.744V129.824C423.892 128.853 422.782 128.368 421.55 128.368C420.504 128.368 419.636 128.713 418.946 129.404C418.274 130.076 417.938 130.981 417.938 132.12C417.938 133.296 418.292 134.239 419.002 134.948C419.674 135.583 420.504 135.9 421.494 135.9C422.856 135.9 423.986 135.396 424.882 134.388V137.44C423.892 138.056 422.698 138.364 421.298 138.364C419.412 138.364 417.919 137.785 416.818 136.628C415.698 135.471 415.138 133.996 415.138 132.204C415.138 130.356 415.735 128.835 416.93 127.64C418.087 126.483 419.664 125.904 421.662 125.904C422.8 125.904 423.874 126.184 424.882 126.744ZM437.473 126.212V138H434.729V128.732H431.257V133.408C431.257 134.864 430.883 135.993 430.137 136.796C429.185 137.86 427.897 138.261 426.273 138V135.48C427.075 135.667 427.719 135.489 428.205 134.948C428.485 134.612 428.625 134.099 428.625 133.408V126.212H437.473ZM440.069 144.412L444.409 136.152L439.369 126.212H442.673L446.033 133.1L449.449 126.212H452.529L443.149 144.412H440.069ZM454.445 138V126.212H461.669V128.732H457.189V138H454.445ZM471.983 127.584V126.212H474.727V138H471.983V136.768C471.068 137.832 469.892 138.364 468.455 138.364C466.719 138.364 465.328 137.748 464.283 136.516C463.256 135.284 462.743 133.809 462.743 132.092C462.743 130.225 463.294 128.732 464.395 127.612C465.515 126.473 466.878 125.904 468.483 125.904C469.958 125.904 471.124 126.464 471.983 127.584ZM468.819 128.368C467.848 128.368 467.055 128.732 466.439 129.46C465.842 130.188 465.543 131.084 465.543 132.148C465.543 133.193 465.842 134.08 466.439 134.808C467.055 135.536 467.848 135.9 468.819 135.9C469.752 135.9 470.536 135.573 471.171 134.92C471.824 134.267 472.151 133.352 472.151 132.176C472.151 130.963 471.824 130.029 471.171 129.376C470.536 128.704 469.752 128.368 468.819 128.368ZM476.863 138L479.719 125.148L484.591 134.136L489.463 125.148L492.319 138H489.519L488.343 132.092L484.591 138.896L480.839 132.092L479.663 138H476.863ZM494.449 126.212H497.193V132.904L505.257 125.148V138H502.513V131.14L494.449 138.896V126.212ZM511.886 133.38H509.142V119.324H511.886V133.38ZM509.31 137.86C508.993 137.524 508.834 137.123 508.834 136.656C508.834 136.189 508.993 135.797 509.31 135.48C509.646 135.144 510.048 134.976 510.514 134.976C510.981 134.976 511.373 135.144 511.69 135.48C512.026 135.797 512.194 136.189 512.194 136.656C512.194 137.123 512.026 137.524 511.69 137.86C511.373 138.177 510.981 138.336 510.514 138.336C510.048 138.336 509.646 138.177 509.31 137.86Z" fill="#292929"/>
<defs>
<filter id="filter0_dd" x="0" y="0" width="681" height="191" filterUnits="userSpaceOnUse" color-interpolation-filters="sRGB">
<feFlood flood-opacity="0" result="BackgroundImageFix"/>
<feColorMatrix in="SourceAlpha" type="matrix" values="0 0 0 0 0 0 0 0 0 0 0 0 0 0 0 0 0 0 127 0"/>
<feOffset dx="9" dy="12"/>
<feGaussianBlur stdDeviation="12"/>
<feColorMatrix type="matrix" values="0 0 0 0 0 0 0 0 0 0 0 0 0 0 0 0 0 0 0.07 0"/>
<feBlend mode="normal" in2="BackgroundImageFix" result="effect1_dropShadow"/>
<feColorMatrix in="SourceAlpha" type="matrix" values="0 0 0 0 0 0 0 0 0 0 0 0 0 0 0 0 0 0 127 0"/>
<feOffset dy="3"/>
<feGaussianBlur stdDeviation="1.5"/>
<feColorMatrix type="matrix" values="0 0 0 0 0 0 0 0 0 0 0 0 0 0 0 0 0 0 0.03 0"/>
<feBlend mode="normal" in2="effect1_dropShadow" result="effect2_dropShadow"/>
<feBlend mode="normal" in="SourceGraphic" in2="effect2_dropShadow" result="shape"/>
</filter>
</defs>
</svg>
