<svg width="647" height="492" viewBox="0 0 647 492" fill="none" xmlns="http://www.w3.org/2000/svg">
<rect x="58" y="68" width="517" height="343" rx="20" fill="#EEF5FF"/>
<g filter="url(#filter0_dd)">
<path d="M399.926 150.176H22.3062V448.237H399.926V150.176Z" fill="#FAFAFA"/>
</g>
<path d="M210.255 300.104L136.733 394.039" stroke="#A5A5A5" stroke-miterlimit="10"/>
<path opacity="0.08" d="M400.84 328.936H352.784V264.127H399.926" fill="black"/>
<path d="M92.5029 237.589L210.255 306.177L288.929 209.464" stroke="#A5A5A5" stroke-miterlimit="10"/>
<path d="M391.363 314.011H343.308V249.202H415.882V292.529" fill="#FFC854"/>
<path d="M220.593 309.87L324.251 373.523" stroke="#A5A5A5" stroke-miterlimit="10"/>
<path opacity="0.08" d="M273.714 272.375H182.394V355.63H273.714V272.375Z" fill="black"/>
<path d="M88.4717 249.961V300.104" stroke="#A5A5A5" stroke-miterlimit="10"/>
<path d="M207.43 394.039H157.358" stroke="#A5A5A5" stroke-miterlimit="10"/>
<path opacity="0.34" d="M389.072 232.136H370.118V266.646H389.072V232.136Z" fill="white"/>
<path d="M259.361 258.485H168.041V341.74H259.361V258.485Z" fill="#6EC1B1"/>
<path d="M120.571 203.735H56.354V261.176H120.571V203.735Z" fill="#C9C9C9"/>
<path opacity="0.34" d="M391.362 314.011V292.529H415.881L391.362 314.011Z" fill="white"/>
<path d="M366.189 337.547H299.56V396.334H366.189V337.547Z" fill="#C9C9C9"/>
<path d="M353.697 189.362H272.422V229.531H353.697V189.362Z" fill="white"/>
<path d="M169.764 369.313H111.181V418.783H169.764V369.313Z" fill="white"/>
<path d="M243.131 381.184H189.854V406.894H243.131V381.184Z" fill="#C9C9C9"/>
<path d="M253.038 196.609H199.762V222.318H253.038V196.609Z" fill="#C9C9C9"/>
<path d="M119.606 279.07H57.3188V314.132H119.606V279.07Z" fill="#C9C9C9"/>
<path d="M293.96 219.247C299.356 219.247 303.73 214.867 303.73 209.463C303.73 204.06 299.356 199.68 293.96 199.68C288.564 199.68 284.19 204.06 284.19 209.463C284.19 214.867 288.564 219.247 293.96 219.247Z" fill="#C9C9C9"/>
<path d="M340.206 200.042H311.483V206.375H340.206V200.042Z" fill="#C9C9C9"/>
<path opacity="0.22" d="M340.206 210.723H311.483V217.056H340.206V210.723Z" fill="#C9C9C9"/>
<path opacity="0.22" d="M154.825 382.979H126.103V389.311H154.825V382.979Z" fill="#24285B"/>
<path opacity="0.22" d="M154.825 398.077H126.103V404.409H154.825V398.077Z" fill="#24285B"/>
<path opacity="0.63" d="M63.4697 247.752L74.9451 229.997L88.4709 245.837L101.394 223.095L113.472 248.097V254.395H63.4697V247.752Z" fill="white"/>
<path d="M88.0059 226.822C91.2509 226.822 93.8815 224.188 93.8815 220.938C93.8815 217.689 91.2509 215.054 88.0059 215.054C84.7609 215.054 82.1304 217.689 82.1304 220.938C82.1304 224.188 84.7609 226.822 88.0059 226.822Z" fill="white"/>
<path opacity="0.63" d="M307.864 379.942L319.357 362.17L332.865 378.01L345.788 355.285L357.884 380.287V386.585H307.864V379.942Z" fill="white"/>
<path d="M332.4 359.012C335.645 359.012 338.276 356.377 338.276 353.128C338.276 349.878 335.645 347.244 332.4 347.244C329.155 347.244 326.525 349.878 326.525 353.128C326.525 356.377 329.155 359.012 332.4 359.012Z" fill="white"/>
<path d="M51.7707 177.059C55.0252 177.059 57.6635 174.417 57.6635 171.158C57.6635 167.899 55.0252 165.257 51.7707 165.257C48.5162 165.257 45.8779 167.899 45.8779 171.158C45.8779 174.417 48.5162 177.059 51.7707 177.059Z" fill="#6EC1B1"/>
<path d="M69.2936 177.059C72.5481 177.059 75.1864 174.417 75.1864 171.158C75.1864 167.899 72.5481 165.257 69.2936 165.257C66.0392 165.257 63.4009 167.899 63.4009 171.158C63.4009 174.417 66.0392 177.059 69.2936 177.059Z" fill="#FD6F55"/>
<path d="M85.8005 177.059C89.055 177.059 91.6933 174.417 91.6933 171.158C91.6933 167.899 89.055 165.257 85.8005 165.257C82.546 165.257 79.9077 167.899 79.9077 171.158C79.9077 174.417 82.546 177.059 85.8005 177.059Z" fill="#FFD200"/>
<path d="M212.816 278.8H217.616V284.08C219.952 284.208 222.368 285.024 224.864 286.528L221.696 292.672C219.904 291.296 218.112 290.608 216.32 290.608C215.008 290.608 214.048 290.896 213.44 291.472C212.96 291.888 212.72 292.416 212.72 293.056C212.72 293.664 212.944 294.192 213.392 294.64C213.936 295.12 214.672 295.52 215.6 295.84L218.096 296.704C220.592 297.536 222.448 298.544 223.664 299.728C225.264 301.296 226.064 303.248 226.064 305.584C226.064 308.528 225.168 310.944 223.376 312.832C221.936 314.304 220.016 315.344 217.616 315.952V321.376H212.816V316.192C210.992 316.16 209.184 315.776 207.392 315.04C205.696 314.336 204.144 313.424 202.736 312.304L206.192 305.872C207.344 306.992 208.448 307.808 209.504 308.32C211.04 309.056 212.496 309.424 213.872 309.424C215.216 309.424 216.256 309.056 216.992 308.32C217.568 307.744 217.856 307.072 217.856 306.304C217.856 305.568 217.536 304.96 216.896 304.48C216.448 304.16 215.728 303.84 214.736 303.52L211.904 302.56C209.44 301.728 207.68 300.736 206.624 299.584C205.248 298.176 204.56 296.32 204.56 294.016C204.56 291.264 205.36 289.008 206.96 287.248C208.464 285.584 210.416 284.528 212.816 284.08V278.8Z" fill="white"/>
<g filter="url(#filter1_dd)">
<rect x="381.608" y="12" width="232.392" height="196.839" rx="20" fill="#FFE3A7"/>
</g>
<rect x="366.5" y="26.3741" width="231.392" height="195.839" rx="19.5" fill="white" stroke="#FFC854"/>
<g clip-path="url(#clip0)" filter="url(#filter2_dd)">
<path d="M516.967 90.827H558.041C564.522 90.827 569.776 96.081 569.776 102.562V172.974C569.776 179.455 564.522 184.709 558.041 184.709H543.372C541.752 184.709 540.438 186.022 540.438 187.643V201.097C540.438 203.711 537.278 205.019 535.43 203.171L517.827 185.568C517.277 185.018 516.531 184.709 515.753 184.709H458.291C451.811 184.709 446.557 179.455 446.557 172.974V142.175L516.967 90.827Z" fill="#FFBBAF"/>
<path d="M505.233 49.7538H405.483C399.002 49.7538 393.748 55.0077 393.748 61.4889V131.901C393.748 138.382 399.002 143.635 405.483 143.635H420.152C421.772 143.635 423.086 144.949 423.086 146.569V160.023C423.086 162.637 426.246 163.946 428.094 162.098L445.697 144.494C446.247 143.944 446.993 143.635 447.771 143.635H505.233C511.713 143.635 516.967 138.381 516.967 131.9V61.4889C516.968 55.0077 511.714 49.7538 505.233 49.7538Z" fill="#F7F8F9"/>
<path d="M487.527 162.163C488.046 158.964 485.873 155.951 482.674 155.433C479.476 154.914 476.463 157.087 475.944 160.285C475.426 163.484 477.598 166.497 480.797 167.015C483.995 167.534 487.009 165.361 487.527 162.163Z" fill="#F9F5F3"/>
<path d="M459.49 130.179C461.781 127.887 461.781 124.173 459.49 121.882C457.199 119.59 453.485 119.59 451.193 121.882C448.902 124.173 448.902 127.887 451.193 130.179C453.485 132.47 457.199 132.47 459.49 130.179Z" fill="#1A78ED"/>
<path d="M455.358 108.43C452.117 108.43 449.49 105.803 449.49 102.563V96.6948C449.49 91.3205 452.667 86.5429 457.584 84.5238C459.928 83.5611 461.385 81.2062 461.21 78.6635C461.014 75.8176 458.632 73.4351 455.786 73.2388C454.136 73.1273 452.557 73.6795 451.356 74.8008C450.152 75.9235 449.49 77.4476 449.49 79.092C449.49 82.3328 446.863 84.9598 443.622 84.9598C440.381 84.9598 437.754 82.3328 437.754 79.092C437.754 74.2309 439.793 69.5401 443.348 66.2218C446.901 62.9056 451.726 61.1946 456.594 61.5317C465.299 62.1324 472.317 69.1502 472.917 77.856C473.441 85.4503 469.07 92.4928 462.041 95.3794C461.553 95.5799 461.224 96.1087 461.224 96.6948V102.563C461.225 105.803 458.598 108.43 455.358 108.43Z" fill="#1A78ED"/>
<path d="M540.284 162.653C541.03 159.5 539.078 156.34 535.925 155.595C532.771 154.849 529.611 156.801 528.866 159.954C528.12 163.107 530.072 166.268 533.225 167.013C536.379 167.758 539.539 165.807 540.284 162.653Z" fill="#F9F5F3"/>
<path d="M513.926 162.165C514.444 158.967 512.272 155.953 509.073 155.435C505.875 154.916 502.862 157.089 502.343 160.287C501.825 163.486 503.997 166.499 507.196 167.018C510.394 167.536 513.407 165.364 513.926 162.165Z" fill="#F9F5F3"/>
<path d="M437.262 144.495L423.086 158.672V160.023C423.086 162.637 426.246 163.946 428.094 162.098L445.697 144.495C446.248 143.945 446.994 143.635 447.772 143.635H439.337C438.559 143.635 437.812 143.945 437.262 144.495Z" fill="#DFDFDF"/>
<path d="M505.232 49.7538H496.797C503.279 49.7538 508.532 55.0077 508.532 61.4889V131.901C508.532 138.382 503.279 143.635 496.798 143.635H505.233C511.714 143.635 516.967 138.382 516.967 131.901V61.4889C516.967 55.0077 511.713 49.7538 505.232 49.7538Z" fill="#DFDFDF"/>
<path d="M532.003 187.643V199.745L535.43 203.171C537.278 205.019 540.438 203.71 540.438 201.097V187.643C540.438 186.022 541.752 184.709 543.372 184.709H534.937C533.317 184.709 532.003 186.022 532.003 187.643Z" fill="#FD6F55"/>
<path d="M558.041 90.827H549.606C556.087 90.827 561.341 96.081 561.341 102.562V172.974C561.341 179.455 556.087 184.709 549.606 184.709H558.041C564.522 184.709 569.776 179.455 569.776 172.974V102.562C569.776 96.081 564.522 90.827 558.041 90.827Z" fill="#FD6F55"/>
</g>
<defs>
<filter id="filter0_dd" x="0.306152" y="131.176" width="439.62" height="360.061" filterUnits="userSpaceOnUse" color-interpolation-filters="sRGB">
<feFlood flood-opacity="0" result="BackgroundImageFix"/>
<feColorMatrix in="SourceAlpha" type="matrix" values="0 0 0 0 0 0 0 0 0 0 0 0 0 0 0 0 0 0 127 0"/>
<feOffset dx="9" dy="12"/>
<feGaussianBlur stdDeviation="15.5"/>
<feColorMatrix type="matrix" values="0 0 0 0 0 0 0 0 0 0 0 0 0 0 0 0 0 0 0.07 0"/>
<feBlend mode="normal" in2="BackgroundImageFix" result="effect1_dropShadow"/>
<feColorMatrix in="SourceAlpha" type="matrix" values="0 0 0 0 0 0 0 0 0 0 0 0 0 0 0 0 0 0 127 0"/>
<feOffset dx="3" dy="3"/>
<feGaussianBlur stdDeviation="1.5"/>
<feColorMatrix type="matrix" values="0 0 0 0 0 0 0 0 0 0 0 0 0 0 0 0 0 0 0.04 0"/>
<feBlend mode="normal" in2="effect1_dropShadow" result="effect2_dropShadow"/>
<feBlend mode="normal" in="SourceGraphic" in2="effect2_dropShadow" result="shape"/>
</filter>
<filter id="filter1_dd" x="366.608" y="0" width="280.392" height="244.839" filterUnits="userSpaceOnUse" color-interpolation-filters="sRGB">
<feFlood flood-opacity="0" result="BackgroundImageFix"/>
<feColorMatrix in="SourceAlpha" type="matrix" values="0 0 0 0 0 0 0 0 0 0 0 0 0 0 0 0 0 0 127 0"/>
<feOffset dx="9" dy="12"/>
<feGaussianBlur stdDeviation="12"/>
<feColorMatrix type="matrix" values="0 0 0 0 0 0 0 0 0 0 0 0 0 0 0 0 0 0 0.07 0"/>
<feBlend mode="normal" in2="BackgroundImageFix" result="effect1_dropShadow"/>
<feColorMatrix in="SourceAlpha" type="matrix" values="0 0 0 0 0 0 0 0 0 0 0 0 0 0 0 0 0 0 127 0"/>
<feOffset dy="3"/>
<feGaussianBlur stdDeviation="1.5"/>
<feColorMatrix type="matrix" values="0 0 0 0 0 0 0 0 0 0 0 0 0 0 0 0 0 0 0.03 0"/>
<feBlend mode="normal" in2="effect1_dropShadow" result="effect2_dropShadow"/>
<feBlend mode="normal" in="SourceGraphic" in2="effect2_dropShadow" result="shape"/>
</filter>
<filter id="filter2_dd" x="378.748" y="26.8811" width="224.028" height="224.028" filterUnits="userSpaceOnUse" color-interpolation-filters="sRGB">
<feFlood flood-opacity="0" result="BackgroundImageFix"/>
<feColorMatrix in="SourceAlpha" type="matrix" values="0 0 0 0 0 0 0 0 0 0 0 0 0 0 0 0 0 0 127 0"/>
<feOffset dx="9" dy="12"/>
<feGaussianBlur stdDeviation="12"/>
<feColorMatrix type="matrix" values="0 0 0 0 0 0 0 0 0 0 0 0 0 0 0 0 0 0 0.07 0"/>
<feBlend mode="normal" in2="BackgroundImageFix" result="effect1_dropShadow"/>
<feColorMatrix in="SourceAlpha" type="matrix" values="0 0 0 0 0 0 0 0 0 0 0 0 0 0 0 0 0 0 127 0"/>
<feOffset dy="3"/>
<feGaussianBlur stdDeviation="1.5"/>
<feColorMatrix type="matrix" values="0 0 0 0 0 0 0 0 0 0 0 0 0 0 0 0 0 0 0.03 0"/>
<feBlend mode="normal" in2="effect1_dropShadow" result="effect2_dropShadow"/>
<feBlend mode="normal" in="SourceGraphic" in2="effect2_dropShadow" result="shape"/>
</filter>
<clipPath id="clip0">
<rect width="176.028" height="176.028" fill="white" transform="translate(393.748 38.8811)"/>
</clipPath>
</defs>
</svg>
