<svg width="683" height="407" viewBox="0 0 683 407" fill="none" xmlns="http://www.w3.org/2000/svg">
<rect x="87" y="53" width="561" height="354" rx="20" fill="#E0F4F0"/>
<g clip-path="url(#clip0)">
<path d="M563.061 49.4443L571.254 66.1322L589.762 68.8629L576.412 81.9096L579.749 100.418L563.061 91.619L546.677 100.418L549.711 81.9096L536.361 68.8629L554.869 66.1322L563.061 49.4443Z" fill="#FFBBAF"/>
<path d="M655.299 49.4443L663.491 66.1322L681.999 68.8629L668.649 81.9096L671.683 100.418L655.299 91.619L638.611 100.418L641.949 81.9096L628.599 68.8629L647.107 66.1322L655.299 49.4443Z" fill="#FFBBAF"/>
<path d="M582.176 186.284L577.322 185.677H572.467V151.998H575.501L583.086 147.751C592.492 142.593 600.078 134.704 604.932 125.298C604.932 125.298 604.932 125.298 604.932 124.994C605.539 123.781 606.146 122.567 606.146 121.05L607.36 115.588C607.36 115.588 611.001 113.161 613.125 118.016C613.125 118.016 616.159 126.208 611.911 132.883C611.304 135.917 607.056 139.255 607.36 141.986C607.36 141.986 610.091 144.11 612.821 143.199C615.552 142.289 622.834 143.806 624.351 147.447C625.868 149.874 626.475 153.819 621.62 155.943C621.62 155.943 624.958 158.067 624.654 161.404C624.351 165.349 621.317 166.562 621.317 166.562C621.317 166.562 624.048 168.989 622.531 172.327C621.014 175.665 619.193 175.968 619.193 175.968C619.193 175.968 621.924 179.913 620.104 182.643C618.587 184.464 616.463 185.981 614.339 186.588C605.843 189.015 594.313 187.801 582.176 186.284Z" fill="#FFD15C"/>
<path d="M608.36 115.892L607.146 121.354C607.146 121.96 606.843 122.567 606.54 123.174C609.27 123.478 610.181 121.05 610.484 118.926C610.787 117.106 608.36 115.892 608.36 115.892Z" fill="#F3F3F3"/>
<path d="M571.04 148.964H537.361V195.083H571.04V148.964Z" fill="#415A6B"/>
<path d="M560.724 189.925C563.237 189.925 565.275 187.888 565.275 185.374C565.275 182.861 563.237 180.823 560.724 180.823C558.21 180.823 556.172 182.861 556.172 185.374C556.172 187.888 558.21 189.925 560.724 189.925Z" fill="#344A5E"/>
<path d="M609.18 49.4443L620.71 72.8072L646.5 76.7516L627.992 94.9565L632.24 120.443L609.18 108.307L586.121 120.443L590.369 94.9565L571.86 76.7516L597.651 72.8072L609.18 49.4443Z" fill="#F3705A"/>
</g>
<g filter="url(#filter0_dd)">
<path d="M422 98.9999H193V368H422V98.9999Z" fill="#FAFAFA"/>
</g>
<g filter="url(#filter1_dd)">
<path d="M572.873 125.353H444.574V244.832H572.873V125.353Z" fill="#FAFAFA"/>
</g>
<g filter="url(#filter2_dd)">
<path d="M595.699 264.867H504.246V310.778H595.699V264.867Z" fill="#FAFAFA"/>
</g>
<path d="M526.745 300.297C533.638 300.297 539.226 294.709 539.226 287.816C539.226 280.922 533.638 275.334 526.745 275.334C519.851 275.334 514.263 280.922 514.263 287.816C514.263 294.709 519.851 300.297 526.745 300.297Z" fill="#C9C9C9"/>
<path d="M284.029 132H282.088V132.5H280.147V132H278.206V132.5H276.265V132H274.324V132.5H272.382V132H270.441V132.5H268.5V132H266.559V132.5H264.618V132H262.676V132.5H260.735V132H258.794V132.5H256.853V132H254.912V132.5H252.971V132H251.029V132.5H249.088V132H247.147V132.5H245.206V132H243.265V132.5H241.324V132H239.382V132.5H237.441V132H235.5V132.5H233.559V132H231.618V132.5H229.676V132H227.735V132.5H225.794V132H223.853V132.5H221.912V132H219.971V132.5H219.5V132.989H219V134.967H219.5V136.946H219V138.924H219.5V140.902H219V142.88H219.5V144.859H219V146.837H219.5V148.815H219V150.793H219.5V152.772H219V154.75H219.5V156.728H219V158.706H219.5V160.685H219V162.663H219.5V164.641H219V166.619H219.5V168.598H219V170.576H219.5V172.554H219V174.532H219.5V176.511H219V178.489H219.5V180.467H219V182.446H219.5V184.424H219V186.402H219.5V188.38H219V190.359H219.5V192.337H219V194.315H219.5V196.293H219V198.272H219.5V200.25H219V202.228H219.5V204.206H219V206.185H219.5V208.163H219V210.141H219.5V212.119H219V214.098H219.5V216.076H219V218.054H219.5V220.033H219V222.011H219.5V222.5H219.971V223H221.912V222.5H223.853V223H225.794V222.5H227.735V223H229.676V222.5H231.618V223H233.559V222.5H235.5V223H237.441V222.5H239.382V223H241.324V222.5H243.265V223H245.206V222.5H247.147V223H249.088V222.5H251.029V223H252.971V222.5H254.912V223H256.853V222.5H258.794V223H260.735V222.5H262.676V223H264.618V222.5H266.559V223H268.5V222.5H270.441V223H272.382V222.5H274.324V223H276.265V222.5H278.206V223H280.147V222.5H282.088V223H284.029V222.5H284.5V222.011H285V220.032H284.5V218.054H285V216.076H284.5V214.098H285V212.119H284.5V210.141H285V208.163H284.5V206.185H285V204.206H284.5V202.228H285V200.25H284.5V198.272H285V196.293H284.5V194.315H285V192.337H284.5V190.359H285V188.38H284.5V186.402H285V184.424H284.5V182.446H285V180.467H284.5V178.489H285V176.511H284.5V174.532H285V172.554H284.5V170.576H285V168.598H284.5V166.619H285V164.641H284.5V162.663H285V160.685H284.5V158.706H285V156.728H284.5V154.75H285V152.772H284.5V150.793H285V148.815H284.5V146.837H285V144.859H284.5V142.88H285V140.902H284.5V138.924H285V136.946H284.5V134.967H285V132.989H284.5V132.5H284.029V132Z" fill="white" stroke="#FD6F55" stroke-dasharray="2 2"/>
<path d="M501.782 139.972H458.948V179.594H501.782V139.972Z" fill="#E4E4E4"/>
<path opacity="0.44" d="M501.782 190.66H458.948V230.282H501.782V190.66Z" fill="#C9C9C9"/>
<path opacity="0.44" d="M558.649 190.66H515.815V230.282H558.649V190.66Z" fill="#C9C9C9"/>
<path opacity="0.63" d="M462.146 172.135L470.517 159.204L480.372 170.733L489.777 154.182L498.583 172.38V176.953H462.146V172.135Z" fill="#6EC1B1"/>
<path d="M480.031 156.89C482.392 156.89 484.305 154.977 484.305 152.616C484.305 150.256 482.392 148.343 480.031 148.343C477.671 148.343 475.757 150.256 475.757 152.616C475.757 154.977 477.671 156.89 480.031 156.89Z" fill="#FFC854"/>
<path d="M558.99 139.972H516.155V179.594H558.99V139.972Z" fill="#E4E4E4"/>
<path opacity="0.63" d="M519.354 172.135L527.725 159.204L537.566 170.733L546.985 154.182L555.791 172.38V176.953H519.354V172.135Z" fill="#6EC1B1"/>
<path d="M537.225 156.89C539.585 156.89 541.499 154.977 541.499 152.616C541.499 150.256 539.585 148.343 537.225 148.343C534.865 148.343 532.951 150.256 532.951 152.616C532.951 154.977 534.865 156.89 537.225 156.89Z" fill="#FFC854"/>
<path opacity="0.46" d="M402 132H308V188H402V132Z" fill="#1A78ED"/>
<path d="M402 204H308V223H402V204Z" fill="#E7E7E7"/>
<path d="M402 204H375V223H402V204Z" fill="#C9C9C9"/>
<path d="M579.324 279.88H548.699V285.434H579.324V279.88Z" fill="#C9C9C9"/>
<path opacity="0.45" d="M579.324 290.198H548.699V295.751H579.324V290.198Z" fill="#C9C9C9"/>
<path d="M240.57 173.997C237.695 173.997 235.425 173.131 233.759 171.4C232.387 169.93 231.701 168.166 231.701 166.108C231.701 163.854 232.371 162.008 233.71 160.571C235.245 158.84 237.532 157.974 240.57 157.974C243.543 157.974 245.862 158.84 247.528 160.571C248.9 162.008 249.586 163.805 249.586 165.961C249.586 168.117 248.884 169.93 247.479 171.4C245.813 173.131 243.51 173.997 240.57 173.997ZM240.423 191L259.337 158.317H263.6L244.637 191H240.423ZM240.668 162.286C239.557 162.286 238.659 162.662 237.973 163.413C237.32 164.132 236.993 164.981 236.993 165.961C236.993 167.072 237.418 168.003 238.267 168.754C238.92 169.342 239.721 169.636 240.668 169.636C241.648 169.636 242.514 169.293 243.265 168.607C243.984 167.888 244.343 167.006 244.343 165.961C244.343 164.883 243.951 163.968 243.167 163.217C242.514 162.596 241.681 162.286 240.668 162.286ZM263.404 179.681C262.293 179.681 261.395 180.057 260.709 180.808C260.056 181.527 259.729 182.376 259.729 183.356C259.729 184.467 260.154 185.398 261.003 186.149C261.656 186.737 262.457 187.031 263.404 187.031C264.384 187.031 265.25 186.688 266.001 186.002C266.72 185.283 267.079 184.401 267.079 183.356C267.079 182.245 266.687 181.331 265.903 180.612C265.25 179.991 264.417 179.681 263.404 179.681ZM263.306 191.392C260.431 191.392 258.161 190.526 256.495 188.795C255.123 187.325 254.437 185.561 254.437 183.503C254.437 181.249 255.107 179.403 256.446 177.966C257.981 176.235 260.268 175.369 263.306 175.369C266.279 175.369 268.598 176.235 270.264 177.966C271.636 179.403 272.322 181.2 272.322 183.356C272.322 185.512 271.62 187.325 270.215 188.795C268.549 190.526 266.246 191.392 263.306 191.392Z" fill="#FD6F55"/>
<path d="M298 260H230V325H298V260Z" fill="#E7E7E7"/>
<path d="M384 260H316V325H384V260Z" fill="#C9C9C9"/>
<g clip-path="url(#clip1)">
<path d="M167.377 287.598V341.434C167.377 342.478 167.545 343.482 167.858 344.422C167.9 344.547 167.963 344.673 168.004 344.819C169.363 348.372 172.79 350.88 176.824 350.88H216.908L235.654 365.321V350.88H241.736C244.181 350.88 246.166 348.894 246.166 346.449V287.598C246.166 285.153 244.181 283.167 241.736 283.167H171.808C169.363 283.167 167.377 285.153 167.377 287.598Z" fill="#ABB2B9"/>
<path d="M234.609 294.745H178.935V301.83H234.609V294.745Z" fill="#334A5E"/>
<path d="M234.609 312.175H178.935V319.26H234.609V312.175Z" fill="#334A5E"/>
<path d="M234.609 329.625H178.935V336.71H234.609V329.625Z" fill="#334A5E"/>
<path d="M214.358 306.867H144.431C141.985 306.867 140 308.852 140 311.297V370.128C140 372.573 141.985 374.558 144.431 374.558H150.512V389L169.259 374.558H214.358C216.804 374.558 218.789 372.573 218.789 370.128V311.297C218.789 308.852 216.804 306.867 214.358 306.867Z" fill="#FAFAFA"/>
<path d="M156.887 348.894C161.203 348.894 164.703 345.395 164.703 341.078C164.703 336.761 161.203 333.262 156.887 333.262C152.57 333.262 149.07 336.761 149.07 341.078C149.07 345.395 152.57 348.894 156.887 348.894Z" fill="#F2705B"/>
<path d="M179.394 348.894C183.711 348.894 187.211 345.395 187.211 341.078C187.211 336.761 183.711 333.262 179.394 333.262C175.078 333.262 171.578 336.761 171.578 341.078C171.578 345.395 175.078 348.894 179.394 348.894Z" fill="#1A78ED"/>
<path d="M201.903 348.894C206.219 348.894 209.719 345.395 209.719 341.078C209.719 336.761 206.219 333.262 201.903 333.262C197.586 333.262 194.086 336.761 194.086 341.078C194.086 345.395 197.586 348.894 201.903 348.894Z" fill="#6EC1B1"/>
</g>
<g filter="url(#filter3_dd)">
<rect x="15" y="12" width="181" height="165" rx="10" fill="#FFBBAF"/>
</g>
<path d="M158.971 65.3823H53.8237V122.425H158.971V65.3823Z" fill="white"/>
<path d="M71.9614 87.7258C71.9614 85.8857 73.2756 84.8344 75.3787 84.8344C77.2189 84.8344 79.0588 85.623 80.636 86.9372L82.4762 83.7828C80.636 81.9427 78.2702 81.1541 75.3787 81.1541C70.6471 81.1541 67.7556 84.3085 67.7556 87.9885C67.7556 96.1375 78.7961 94.5603 78.7961 99.5546C78.7961 101.395 77.4818 102.972 74.8531 102.972C72.4873 102.972 70.3844 101.92 69.0699 100.343L66.9668 103.498C68.807 105.338 71.4355 106.652 74.8528 106.652C80.1101 106.652 82.7389 103.498 82.7389 99.5549C83.0018 91.1432 71.9614 92.1947 71.9614 87.7258Z" fill="#FD6F55"/>
<path d="M94.8316 81.6799L87.4712 106.127H91.9399L93.2541 101.395H101.403L102.717 106.127H107.186L99.8259 81.6799H94.8316ZM94.043 97.7149L97.1974 85.8859L100.352 97.7149H94.043Z" fill="#FD6F55"/>
<path d="M116.912 81.6799H112.969V106.127H125.587V102.447H116.912V81.6799Z" fill="#FD6F55"/>
<path d="M145.827 85.0973V81.6799H132.421V106.127H145.827V102.447H136.364V95.3491H145.564V91.9318H136.364V85.0973H145.827Z" fill="#FD6F55"/>
<defs>
<filter id="filter0_dd" x="178" y="86.9999" width="277" height="317" filterUnits="userSpaceOnUse" color-interpolation-filters="sRGB">
<feFlood flood-opacity="0" result="BackgroundImageFix"/>
<feColorMatrix in="SourceAlpha" type="matrix" values="0 0 0 0 0 0 0 0 0 0 0 0 0 0 0 0 0 0 127 0"/>
<feOffset dx="9" dy="12"/>
<feGaussianBlur stdDeviation="12"/>
<feColorMatrix type="matrix" values="0 0 0 0 0 0 0 0 0 0 0 0 0 0 0 0 0 0 0.07 0"/>
<feBlend mode="normal" in2="BackgroundImageFix" result="effect1_dropShadow"/>
<feColorMatrix in="SourceAlpha" type="matrix" values="0 0 0 0 0 0 0 0 0 0 0 0 0 0 0 0 0 0 127 0"/>
<feOffset dy="3"/>
<feGaussianBlur stdDeviation="1.5"/>
<feColorMatrix type="matrix" values="0 0 0 0 0 0 0 0 0 0 0 0 0 0 0 0 0 0 0.03 0"/>
<feBlend mode="normal" in2="effect1_dropShadow" result="effect2_dropShadow"/>
<feBlend mode="normal" in="SourceGraphic" in2="effect2_dropShadow" result="shape"/>
</filter>
<filter id="filter1_dd" x="429.574" y="113.353" width="176.298" height="167.478" filterUnits="userSpaceOnUse" color-interpolation-filters="sRGB">
<feFlood flood-opacity="0" result="BackgroundImageFix"/>
<feColorMatrix in="SourceAlpha" type="matrix" values="0 0 0 0 0 0 0 0 0 0 0 0 0 0 0 0 0 0 127 0"/>
<feOffset dx="9" dy="12"/>
<feGaussianBlur stdDeviation="12"/>
<feColorMatrix type="matrix" values="0 0 0 0 0 0 0 0 0 0 0 0 0 0 0 0 0 0 0.07 0"/>
<feBlend mode="normal" in2="BackgroundImageFix" result="effect1_dropShadow"/>
<feColorMatrix in="SourceAlpha" type="matrix" values="0 0 0 0 0 0 0 0 0 0 0 0 0 0 0 0 0 0 127 0"/>
<feOffset dy="3"/>
<feGaussianBlur stdDeviation="1.5"/>
<feColorMatrix type="matrix" values="0 0 0 0 0 0 0 0 0 0 0 0 0 0 0 0 0 0 0.03 0"/>
<feBlend mode="normal" in2="effect1_dropShadow" result="effect2_dropShadow"/>
<feBlend mode="normal" in="SourceGraphic" in2="effect2_dropShadow" result="shape"/>
</filter>
<filter id="filter2_dd" x="489.246" y="252.867" width="139.453" height="93.9103" filterUnits="userSpaceOnUse" color-interpolation-filters="sRGB">
<feFlood flood-opacity="0" result="BackgroundImageFix"/>
<feColorMatrix in="SourceAlpha" type="matrix" values="0 0 0 0 0 0 0 0 0 0 0 0 0 0 0 0 0 0 127 0"/>
<feOffset dx="9" dy="12"/>
<feGaussianBlur stdDeviation="12"/>
<feColorMatrix type="matrix" values="0 0 0 0 0 0 0 0 0 0 0 0 0 0 0 0 0 0 0.07 0"/>
<feBlend mode="normal" in2="BackgroundImageFix" result="effect1_dropShadow"/>
<feColorMatrix in="SourceAlpha" type="matrix" values="0 0 0 0 0 0 0 0 0 0 0 0 0 0 0 0 0 0 127 0"/>
<feOffset dy="3"/>
<feGaussianBlur stdDeviation="1.5"/>
<feColorMatrix type="matrix" values="0 0 0 0 0 0 0 0 0 0 0 0 0 0 0 0 0 0 0.03 0"/>
<feBlend mode="normal" in2="effect1_dropShadow" result="effect2_dropShadow"/>
<feBlend mode="normal" in="SourceGraphic" in2="effect2_dropShadow" result="shape"/>
</filter>
<filter id="filter3_dd" x="0" y="0" width="229" height="213" filterUnits="userSpaceOnUse" color-interpolation-filters="sRGB">
<feFlood flood-opacity="0" result="BackgroundImageFix"/>
<feColorMatrix in="SourceAlpha" type="matrix" values="0 0 0 0 0 0 0 0 0 0 0 0 0 0 0 0 0 0 127 0"/>
<feOffset dx="9" dy="12"/>
<feGaussianBlur stdDeviation="12"/>
<feColorMatrix type="matrix" values="0 0 0 0 0 0 0 0 0 0 0 0 0 0 0 0 0 0 0.07 0"/>
<feBlend mode="normal" in2="BackgroundImageFix" result="effect1_dropShadow"/>
<feColorMatrix in="SourceAlpha" type="matrix" values="0 0 0 0 0 0 0 0 0 0 0 0 0 0 0 0 0 0 127 0"/>
<feOffset dy="3"/>
<feGaussianBlur stdDeviation="1.5"/>
<feColorMatrix type="matrix" values="0 0 0 0 0 0 0 0 0 0 0 0 0 0 0 0 0 0 0.03 0"/>
<feBlend mode="normal" in2="effect1_dropShadow" result="effect2_dropShadow"/>
<feBlend mode="normal" in="SourceGraphic" in2="effect2_dropShadow" result="shape"/>
</filter>
<clipPath id="clip0">
<rect width="145.639" height="145.639" fill="white" transform="translate(537.361 49.4443)"/>
</clipPath>
<clipPath id="clip1">
<rect width="106.167" height="106.167" fill="white" transform="translate(140 283)"/>
</clipPath>
</defs>
</svg>
