<svg width="658" height="290" viewBox="0 0 658 290" fill="none" xmlns="http://www.w3.org/2000/svg">
<rect x="28" y="43" width="624" height="214" rx="20" fill="#FFF3F1"/>
<g filter="url(#filter0_dd)">
<path d="M281 44H20C17.2386 44 15 46.2386 15 49V249C15 251.761 17.2386 254 20 254H281C283.761 254 286 251.761 286 249V49C286 46.2386 283.761 44 281 44Z" fill="white"/>
<path d="M18.0861 44.3794C16.8639 44.8862 15.8862 45.8639 15.3794 47.0861L16.3031 47.4691C16.1081 47.9394 16 48.4558 16 49V51.5H15V56.5H16V61.5H15V66.5H16V71.5H15V76.5H16V81.5H15V86.5H16V91.5H15V96.5H16V101.5H15V106.5H16V111.5H15V116.5H16V121.5H15V126.5H16V131.5H15V136.5H16V141.5H15V146.5H16V151.5H15V156.5H16V161.5H15V166.5H16V171.5H15V176.5H16V181.5H15V186.5H16V191.5H15V196.5H16V201.5H15V206.5H16V211.5H15V216.5H16V221.5H15V226.5H16V231.5H15V236.5H16V241.5H15V246.5H16V249C16 249.544 16.1081 250.061 16.3031 250.531L15.3794 250.914C15.8862 252.136 16.8639 253.114 18.0861 253.621L18.4691 252.697C18.9394 252.892 19.4558 253 20 253H22.5096V254H27.5289V253H32.5481V254H37.5673V253H42.5865V254H47.6058V253H52.625V254H57.6442V253H62.6635V254H67.6827V253H72.7019V254H77.7211V253H82.7404V254H87.7596V253H92.7788V254H97.7981V253H102.817V254H107.837V253H112.856V254H117.875V253H122.894V254H127.913V253H132.933V254H137.952V253H142.971V254H147.99V253H153.01V254H158.029V253H163.048V254H168.067V253H173.087V254H178.106V253H183.125V254H188.144V253H193.163V254H198.183V253H203.202V254H208.221V253H213.24V254H218.26V253H223.279V254H228.298V253H233.317V254H238.336V253H243.356V254H248.375V253H253.394V254H258.413V253H263.433V254H268.452V253H273.471V254H278.49V253H281C281.544 253 282.061 252.892 282.531 252.697L282.914 253.621C284.136 253.114 285.114 252.136 285.621 250.914L284.697 250.531C284.892 250.061 285 249.544 285 249V246.5H286V241.5H285V236.5H286V231.5H285V226.5H286V221.5H285V216.5H286V211.5H285V206.5H286V201.5H285V196.5H286V191.5H285V186.5H286V181.5H285V176.5H286V171.5H285V166.5H286V161.5H285V156.5H286V151.5H285V146.5H286V141.5H285V136.5H286V131.5H285V126.5H286V121.5H285V116.5H286V111.5H285V106.5H286V101.5H285V96.5H286V91.5H285V86.5H286V81.5H285V76.5H286V71.5H285V66.5H286V61.5H285V56.5H286V51.5H285V49C285 48.4558 284.892 47.9394 284.697 47.4691L285.621 47.0861C285.114 45.8639 284.136 44.8862 282.914 44.3794L282.531 45.3031C282.061 45.1081 281.544 45 281 45H278.49V44H273.471V45H268.452V44H263.433V45H258.413V44H253.394V45H248.375V44H243.356V45H238.337V44H233.317V45H228.298V44H223.279V45H218.26V44H213.24V45H208.221V44H203.202V45H198.183V44H193.163V45H188.144V44H183.125V45H178.106V44H173.087V45H168.067V44H163.048V45H158.029V44H153.01V45H147.99V44H142.971V45H137.952V44H132.933V45H127.913V44H122.894V45H117.875V44H112.856V45H107.837V44H102.817V45H97.7981V44H92.7789V45H87.7596V44H82.7404V45H77.7212V44H72.702V45H67.6827V44H62.6635V45H57.6443V44H52.6251V45H47.6058V44H42.5866V45H37.5674V44H32.5482V45H27.5289V44H22.5097V45H20C19.4558 45 18.9394 45.1081 18.4691 45.3031L18.0861 44.3794Z" stroke="#475762" stroke-width="2" stroke-dasharray="5 5"/>
</g>
<path d="M78.9 77C74.1526 77 69.5997 78.8833 66.2428 82.2355C62.8859 85.5877 61 90.1343 61 94.875V130.625C65.7474 130.625 70.3003 132.508 73.6572 135.86C77.0141 139.213 78.9 143.759 78.9 148.5C78.9 153.241 77.0141 157.787 73.6572 161.14C70.3003 164.492 65.7474 166.375 61 166.375V202.125C61 206.866 62.8859 211.412 66.2428 214.765C69.5997 218.117 74.1526 220 78.9 220H222.1C226.847 220 231.4 218.117 234.757 214.765C238.114 211.412 240 206.866 240 202.125V166.375C235.253 166.375 230.7 164.492 227.343 161.14C223.986 157.787 222.1 153.241 222.1 148.5C222.1 143.759 223.986 139.213 227.343 135.86C230.7 132.508 235.253 130.625 240 130.625V94.875C240 90.1343 238.114 85.5877 234.757 82.2355C231.4 78.8833 226.847 77 222.1 77H78.9ZM181.825 103.812L195.25 117.219L119.175 193.188L105.75 179.781L181.825 103.812ZM121.95 104.17C130.721 104.17 137.791 111.231 137.791 119.989C137.791 124.185 136.122 128.209 133.151 131.175C130.18 134.142 126.151 135.809 121.95 135.809C113.179 135.809 106.108 128.748 106.108 119.989C106.108 115.794 107.777 111.77 110.748 108.803C113.719 105.837 117.748 104.17 121.95 104.17ZM179.05 161.191C187.821 161.191 194.892 168.252 194.892 177.011C194.892 181.206 193.223 185.23 190.252 188.197C187.281 191.163 183.252 192.83 179.05 192.83C170.279 192.83 163.209 185.769 163.209 177.011C163.209 172.815 164.878 168.791 167.849 165.825C170.82 162.858 174.849 161.191 179.05 161.191Z" fill="#FD6F55"/>
<rect x="340" y="82" width="258" height="19" rx="9.5" fill="white"/>
<rect x="340" y="121" width="258" height="19" rx="9.5" fill="white"/>
<rect x="340" y="160" width="258" height="19" rx="9.5" fill="white"/>
<rect x="340" y="199" width="258" height="19" rx="9.5" fill="white"/>
<g filter="url(#filter1_dd)">
<path d="M624.028 172L536 172.156L536.119 239.526L624.147 239.371L624.028 172Z" fill="#1A78ED"/>
</g>
<path d="M588.109 190.754C586.181 190.761 584.312 191.417 582.803 192.616C581.521 193.634 580.465 194.909 579.703 196.358C578.923 194.917 577.86 193.649 576.579 192.628C575.067 191.429 573.191 190.783 571.261 190.795C569.945 190.822 568.649 191.116 567.449 191.658C566.249 192.2 565.171 192.978 564.28 193.947C563.389 194.916 562.703 196.055 562.263 197.296C561.823 198.537 561.639 199.854 561.721 201.167C561.732 207.553 566.863 211.906 574.62 218.496C575.945 219.619 577.448 220.896 579.008 222.247C579.206 222.423 579.463 222.519 579.728 222.516C580.002 222.491 580.256 222.365 580.442 222.162C581.987 220.79 583.482 219.523 584.79 218.409C592.527 211.782 597.656 207.399 597.628 201.021C597.698 199.717 597.505 198.412 597.061 197.184C596.617 195.956 595.93 194.83 595.042 193.872C594.155 192.915 593.083 192.145 591.892 191.61C590.701 191.074 589.415 190.783 588.109 190.754Z" fill="white"/>
<g filter="url(#filter2_dd)">
<path d="M343.818 12L253 12.1606L253.123 81.6694L343.941 81.5087L343.818 12Z" fill="#6EC1B1"/>
</g>
<path d="M291.832 42.5864C291.832 42.5864 305.007 42.9713 307.879 32.2437C308.051 31.6112 308.39 31.037 308.861 30.5821C309.333 30.1272 309.919 29.8087 310.557 29.6604C311.195 29.512 311.862 29.5395 312.486 29.7398C313.109 29.9401 313.667 30.3058 314.1 30.7979C314.771 31.7336 315.229 32.8054 315.441 33.9376C315.653 35.0697 315.614 36.2346 315.326 37.3498C313.836 46.5829 316.166 42.8793 321.513 45.7499C326.859 48.6204 317.648 64.7965 309.255 64.1442C300.861 63.4918 301.196 55.519 291.803 58.3964L291.832 42.5864Z" fill="#FFE3A7"/>
<path d="M295.454 39.5547L275.866 39.5894L275.904 60.7536L295.491 60.719L295.454 39.5547Z" fill="#475762"/>
<defs>
<filter id="filter0_dd" x="0" y="32" width="319" height="258" filterUnits="userSpaceOnUse" color-interpolation-filters="sRGB">
<feFlood flood-opacity="0" result="BackgroundImageFix"/>
<feColorMatrix in="SourceAlpha" type="matrix" values="0 0 0 0 0 0 0 0 0 0 0 0 0 0 0 0 0 0 127 0"/>
<feOffset dx="9" dy="12"/>
<feGaussianBlur stdDeviation="12"/>
<feColorMatrix type="matrix" values="0 0 0 0 0 0 0 0 0 0 0 0 0 0 0 0 0 0 0.07 0"/>
<feBlend mode="normal" in2="BackgroundImageFix" result="effect1_dropShadow"/>
<feColorMatrix in="SourceAlpha" type="matrix" values="0 0 0 0 0 0 0 0 0 0 0 0 0 0 0 0 0 0 127 0"/>
<feOffset dy="3"/>
<feGaussianBlur stdDeviation="1.5"/>
<feColorMatrix type="matrix" values="0 0 0 0 0 0 0 0 0 0 0 0 0 0 0 0 0 0 0.03 0"/>
<feBlend mode="normal" in2="effect1_dropShadow" result="effect2_dropShadow"/>
<feBlend mode="normal" in="SourceGraphic" in2="effect2_dropShadow" result="shape"/>
</filter>
<filter id="filter1_dd" x="521" y="160" width="136.147" height="115.526" filterUnits="userSpaceOnUse" color-interpolation-filters="sRGB">
<feFlood flood-opacity="0" result="BackgroundImageFix"/>
<feColorMatrix in="SourceAlpha" type="matrix" values="0 0 0 0 0 0 0 0 0 0 0 0 0 0 0 0 0 0 127 0"/>
<feOffset dx="9" dy="12"/>
<feGaussianBlur stdDeviation="12"/>
<feColorMatrix type="matrix" values="0 0 0 0 0 0 0 0 0 0 0 0 0 0 0 0 0 0 0.07 0"/>
<feBlend mode="normal" in2="BackgroundImageFix" result="effect1_dropShadow"/>
<feColorMatrix in="SourceAlpha" type="matrix" values="0 0 0 0 0 0 0 0 0 0 0 0 0 0 0 0 0 0 127 0"/>
<feOffset dy="3"/>
<feGaussianBlur stdDeviation="1.5"/>
<feColorMatrix type="matrix" values="0 0 0 0 0 0 0 0 0 0 0 0 0 0 0 0 0 0 0.03 0"/>
<feBlend mode="normal" in2="effect1_dropShadow" result="effect2_dropShadow"/>
<feBlend mode="normal" in="SourceGraphic" in2="effect2_dropShadow" result="shape"/>
</filter>
<filter id="filter2_dd" x="238" y="0" width="138.941" height="117.669" filterUnits="userSpaceOnUse" color-interpolation-filters="sRGB">
<feFlood flood-opacity="0" result="BackgroundImageFix"/>
<feColorMatrix in="SourceAlpha" type="matrix" values="0 0 0 0 0 0 0 0 0 0 0 0 0 0 0 0 0 0 127 0"/>
<feOffset dx="9" dy="12"/>
<feGaussianBlur stdDeviation="12"/>
<feColorMatrix type="matrix" values="0 0 0 0 0 0 0 0 0 0 0 0 0 0 0 0 0 0 0.07 0"/>
<feBlend mode="normal" in2="BackgroundImageFix" result="effect1_dropShadow"/>
<feColorMatrix in="SourceAlpha" type="matrix" values="0 0 0 0 0 0 0 0 0 0 0 0 0 0 0 0 0 0 127 0"/>
<feOffset dy="3"/>
<feGaussianBlur stdDeviation="1.5"/>
<feColorMatrix type="matrix" values="0 0 0 0 0 0 0 0 0 0 0 0 0 0 0 0 0 0 0.03 0"/>
<feBlend mode="normal" in2="effect1_dropShadow" result="effect2_dropShadow"/>
<feBlend mode="normal" in="SourceGraphic" in2="effect2_dropShadow" result="shape"/>
</filter>
</defs>
</svg>
