<svg width="465" height="363" viewBox="0 0 465 363" fill="none" xmlns="http://www.w3.org/2000/svg">
<g clip-path="url(#clip0)">
<path d="M212 89.2034H215.453V92.5939H212V89.2034Z" fill="#B3B3B3"/>
<path d="M212 -35.115H215.453V-31.7245H212V-35.115Z" fill="#B3B3B3"/>
<path d="M224.662 89.2034H228.115V92.5939H224.662V89.2034Z" fill="#B3B3B3"/>
<path d="M224.662 -35.115H228.115V-31.7245H224.662V-35.115Z" fill="#B3B3B3"/>
<path d="M237.324 89.2034H240.777V92.5939H237.324V89.2034Z" fill="#B3B3B3"/>
<path d="M237.324 -35.115H240.777V-31.7245H237.324V-35.115Z" fill="#B3B3B3"/>
<path d="M249.986 89.2034H253.439V92.5939H249.986V89.2034Z" fill="#B3B3B3"/>
<path d="M249.986 -35.115H253.439V-31.7245H249.986V-35.115Z" fill="#B3B3B3"/>
<path d="M262.647 89.2034H266.101V92.5939H262.647V89.2034Z" fill="#B3B3B3"/>
<path d="M262.647 -35.115H266.101V-31.7245H262.647V-35.115Z" fill="#B3B3B3"/>
<path d="M275.309 89.2034H278.762V92.5939H275.309V89.2034Z" fill="#B3B3B3"/>
<path d="M275.309 -35.115H278.762V-31.7245H275.309V-35.115Z" fill="#B3B3B3"/>
<path d="M287.971 89.2034H291.424V92.5939H287.971V89.2034Z" fill="#B3B3B3"/>
<path d="M287.971 -35.115H291.424V-31.7245H287.971V-35.115Z" fill="#B3B3B3"/>
<path d="M300.633 89.2034H304.086V92.5939H300.633V89.2034Z" fill="#B3B3B3"/>
<path d="M300.633 -35.115H304.086V-31.7245H300.633V-35.115Z" fill="#B3B3B3"/>
<path d="M313.295 89.2034H316.748V92.5939H313.295V89.2034Z" fill="#B3B3B3"/>
<path d="M313.295 -35.115H316.748V-31.7245H313.295V-35.115Z" fill="#B3B3B3"/>
<path d="M325.957 89.2034H329.41V92.5939H325.957V89.2034Z" fill="#B3B3B3"/>
<path d="M325.957 -35.115H329.41V-31.7245H325.957V-35.115Z" fill="#B3B3B3"/>
<path d="M338.618 89.2034H342.072V92.5939H338.618V89.2034Z" fill="#B3B3B3"/>
<path d="M338.618 -35.115H342.072V-31.7245H338.618V-35.115Z" fill="#B3B3B3"/>
<path d="M351.28 89.2034H354.734V92.5939H351.28V89.2034Z" fill="#B3B3B3"/>
<path d="M351.28 -35.115H354.734V-31.7245H351.28V-35.115Z" fill="#B3B3B3"/>
<path d="M363.942 89.2034H367.395V92.5939H363.942V89.2034Z" fill="#B3B3B3"/>
<path d="M363.942 -35.115H367.395V-31.7245H363.942V-35.115Z" fill="#B3B3B3"/>
<path d="M376.604 89.2034H380.057V92.5939H376.604V89.2034Z" fill="#B3B3B3"/>
<path d="M376.604 -35.115H380.057V-31.7245H376.604V-35.115Z" fill="#B3B3B3"/>
<path d="M389.266 89.2034H392.719V92.5939H389.266V89.2034Z" fill="#B3B3B3"/>
<path d="M389.266 -35.115H392.719V-31.7245H389.266V-35.115Z" fill="#B3B3B3"/>
<path d="M401.928 89.2034H405.381V92.5939H401.928V89.2034Z" fill="#B3B3B3"/>
<path d="M401.928 -35.115H405.381V-31.7245H401.928V-35.115Z" fill="#B3B3B3"/>
<path d="M414.59 89.2034H418.043V92.5939H414.59V89.2034Z" fill="#B3B3B3"/>
<path d="M414.59 -35.115H418.043V-31.7245H414.59V-35.115Z" fill="#B3B3B3"/>
<path d="M427.251 89.2034H430.705V92.5939H427.251V89.2034Z" fill="#B3B3B3"/>
<path d="M427.251 -35.115H430.705V-31.7245H427.251V-35.115Z" fill="#B3B3B3"/>
<path d="M439.913 89.2034H443.367V92.5939H439.913V89.2034Z" fill="#B3B3B3"/>
<path d="M439.913 -35.115H443.367V-31.7245H439.913V-35.115Z" fill="#B3B3B3"/>
<path d="M452.575 89.2034H456.028V92.5939H452.575V89.2034Z" fill="#B3B3B3"/>
<path d="M452.575 -35.115H456.028V-31.7245H452.575V-35.115Z" fill="#B3B3B3"/>
<path d="M212 100.505H215.453V103.896H212V100.505Z" fill="#B3B3B3"/>
<path d="M212 -23.8133H215.453V-20.4228H212V-23.8133Z" fill="#B3B3B3"/>
<path d="M224.662 100.505H228.115V103.896H224.662V100.505Z" fill="#B3B3B3"/>
<path d="M224.662 -23.8133H228.115V-20.4228H224.662V-23.8133Z" fill="#B3B3B3"/>
<path d="M237.324 100.505H240.777V103.896H237.324V100.505Z" fill="#B3B3B3"/>
<path d="M237.324 -23.8133H240.777V-20.4228H237.324V-23.8133Z" fill="#B3B3B3"/>
<path d="M249.986 100.505H253.439V103.896H249.986V100.505Z" fill="#B3B3B3"/>
<path d="M249.986 -23.8133H253.439V-20.4228H249.986V-23.8133Z" fill="#B3B3B3"/>
<path d="M262.647 100.505H266.101V103.896H262.647V100.505Z" fill="#B3B3B3"/>
<path d="M262.647 -23.8133H266.101V-20.4228H262.647V-23.8133Z" fill="#B3B3B3"/>
<path d="M275.309 100.505H278.762V103.896H275.309V100.505Z" fill="#B3B3B3"/>
<path d="M275.309 -23.8133H278.762V-20.4228H275.309V-23.8133Z" fill="#B3B3B3"/>
<path d="M287.971 100.505H291.424V103.896H287.971V100.505Z" fill="#B3B3B3"/>
<path d="M287.971 -23.8133H291.424V-20.4228H287.971V-23.8133Z" fill="#B3B3B3"/>
<path d="M300.633 100.505H304.086V103.896H300.633V100.505Z" fill="#B3B3B3"/>
<path d="M300.633 -23.8133H304.086V-20.4228H300.633V-23.8133Z" fill="#B3B3B3"/>
<path d="M313.295 100.505H316.748V103.896H313.295V100.505Z" fill="#B3B3B3"/>
<path d="M313.295 -23.8133H316.748V-20.4228H313.295V-23.8133Z" fill="#B3B3B3"/>
<path d="M325.957 100.505H329.41V103.896H325.957V100.505Z" fill="#B3B3B3"/>
<path d="M325.957 -23.8133H329.41V-20.4228H325.957V-23.8133Z" fill="#B3B3B3"/>
<path d="M338.618 100.505H342.072V103.896H338.618V100.505Z" fill="#B3B3B3"/>
<path d="M338.618 -23.8133H342.072V-20.4228H338.618V-23.8133Z" fill="#B3B3B3"/>
<path d="M351.28 100.505H354.734V103.896H351.28V100.505Z" fill="#B3B3B3"/>
<path d="M351.28 -23.8133H354.734V-20.4228H351.28V-23.8133Z" fill="#B3B3B3"/>
<path d="M363.942 100.505H367.395V103.896H363.942V100.505Z" fill="#B3B3B3"/>
<path d="M363.942 -23.8133H367.395V-20.4228H363.942V-23.8133Z" fill="#B3B3B3"/>
<path d="M376.604 100.505H380.057V103.896H376.604V100.505Z" fill="#B3B3B3"/>
<path d="M376.604 -23.8133H380.057V-20.4228H376.604V-23.8133Z" fill="#B3B3B3"/>
<path d="M389.266 100.505H392.719V103.896H389.266V100.505Z" fill="#B3B3B3"/>
<path d="M389.266 -23.8133H392.719V-20.4228H389.266V-23.8133Z" fill="#B3B3B3"/>
<path d="M401.928 100.505H405.381V103.896H401.928V100.505Z" fill="#B3B3B3"/>
<path d="M401.928 -23.8133H405.381V-20.4228H401.928V-23.8133Z" fill="#B3B3B3"/>
<path d="M414.59 100.505H418.043V103.896H414.59V100.505Z" fill="#B3B3B3"/>
<path d="M414.59 -23.8133H418.043V-20.4228H414.59V-23.8133Z" fill="#B3B3B3"/>
<path d="M427.251 100.505H430.705V103.896H427.251V100.505Z" fill="#B3B3B3"/>
<path d="M427.251 -23.8133H430.705V-20.4228H427.251V-23.8133Z" fill="#B3B3B3"/>
<path d="M439.913 100.505H443.367V103.896H439.913V100.505Z" fill="#B3B3B3"/>
<path d="M439.913 -23.8133H443.367V-20.4228H439.913V-23.8133Z" fill="#B3B3B3"/>
<path d="M452.575 100.505H456.028V103.896H452.575V100.505Z" fill="#B3B3B3"/>
<path d="M452.575 -23.8133H456.028V-20.4228H452.575V-23.8133Z" fill="#B3B3B3"/>
<path d="M212 111.807H215.453V115.197H212V111.807Z" fill="#B3B3B3"/>
<path d="M212 -12.5116H215.453V-9.12114H212V-12.5116Z" fill="#B3B3B3"/>
<path d="M224.662 111.807H228.115V115.197H224.662V111.807Z" fill="#B3B3B3"/>
<path d="M224.662 -12.5116H228.115V-9.12114H224.662V-12.5116Z" fill="#B3B3B3"/>
<path d="M237.324 111.807H240.777V115.197H237.324V111.807Z" fill="#B3B3B3"/>
<path d="M237.324 -12.5116H240.777V-9.12114H237.324V-12.5116Z" fill="#B3B3B3"/>
<path d="M249.986 111.807H253.439V115.197H249.986V111.807Z" fill="#B3B3B3"/>
<path d="M249.986 -12.5116H253.439V-9.12114H249.986V-12.5116Z" fill="#B3B3B3"/>
<path d="M262.647 111.807H266.101V115.197H262.647V111.807Z" fill="#B3B3B3"/>
<path d="M262.647 -12.5116H266.101V-9.12114H262.647V-12.5116Z" fill="#B3B3B3"/>
<path d="M275.309 111.807H278.762V115.197H275.309V111.807Z" fill="#B3B3B3"/>
<path d="M275.309 -12.5116H278.762V-9.12114H275.309V-12.5116Z" fill="#B3B3B3"/>
<path d="M287.971 111.807H291.424V115.197H287.971V111.807Z" fill="#B3B3B3"/>
<path d="M287.971 -12.5116H291.424V-9.12114H287.971V-12.5116Z" fill="#B3B3B3"/>
<path d="M300.633 111.807H304.086V115.197H300.633V111.807Z" fill="#B3B3B3"/>
<path d="M300.633 -12.5116H304.086V-9.12114H300.633V-12.5116Z" fill="#B3B3B3"/>
<path d="M313.295 111.807H316.748V115.197H313.295V111.807Z" fill="#B3B3B3"/>
<path d="M313.295 -12.5116H316.748V-9.12114H313.295V-12.5116Z" fill="#B3B3B3"/>
<path d="M325.957 111.807H329.41V115.197H325.957V111.807Z" fill="#B3B3B3"/>
<path d="M325.957 -12.5116H329.41V-9.12114H325.957V-12.5116Z" fill="#B3B3B3"/>
<path d="M338.618 111.807H342.072V115.197H338.618V111.807Z" fill="#B3B3B3"/>
<path d="M338.618 -12.5116H342.072V-9.12114H338.618V-12.5116Z" fill="#B3B3B3"/>
<path d="M351.28 111.807H354.734V115.197H351.28V111.807Z" fill="#B3B3B3"/>
<path d="M351.28 -12.5116H354.734V-9.12114H351.28V-12.5116Z" fill="#B3B3B3"/>
<path d="M363.942 111.807H367.395V115.197H363.942V111.807Z" fill="#B3B3B3"/>
<path d="M363.942 -12.5116H367.395V-9.12114H363.942V-12.5116Z" fill="#B3B3B3"/>
<path d="M376.604 111.807H380.057V115.197H376.604V111.807Z" fill="#B3B3B3"/>
<path d="M376.604 -12.5116H380.057V-9.12114H376.604V-12.5116Z" fill="#B3B3B3"/>
<path d="M389.266 111.807H392.719V115.197H389.266V111.807Z" fill="#B3B3B3"/>
<path d="M389.266 -12.5116H392.719V-9.12114H389.266V-12.5116Z" fill="#B3B3B3"/>
<path d="M401.928 111.807H405.381V115.197H401.928V111.807Z" fill="#B3B3B3"/>
<path d="M401.928 -12.5116H405.381V-9.12114H401.928V-12.5116Z" fill="#B3B3B3"/>
<path d="M414.59 111.807H418.043V115.197H414.59V111.807Z" fill="#B3B3B3"/>
<path d="M414.59 -12.5116H418.043V-9.12114H414.59V-12.5116Z" fill="#B3B3B3"/>
<path d="M427.251 111.807H430.705V115.197H427.251V111.807Z" fill="#B3B3B3"/>
<path d="M427.251 -12.5116H430.705V-9.12114H427.251V-12.5116Z" fill="#B3B3B3"/>
<path d="M439.913 111.807H443.367V115.197H439.913V111.807Z" fill="#B3B3B3"/>
<path d="M439.913 -12.5116H443.367V-9.12114H439.913V-12.5116Z" fill="#B3B3B3"/>
<path d="M452.575 111.807H456.028V115.197H452.575V111.807Z" fill="#B3B3B3"/>
<path d="M452.575 -12.5116H456.028V-9.12114H452.575V-12.5116Z" fill="#B3B3B3"/>
<path d="M212 123.108H215.453V126.499H212V123.108Z" fill="#B3B3B3"/>
<path d="M212 -1.20997H215.453V2.18053H212V-1.20997Z" fill="#B3B3B3"/>
<path d="M224.662 123.108H228.115V126.499H224.662V123.108Z" fill="#B3B3B3"/>
<path d="M224.662 -1.20997H228.115V2.18053H224.662V-1.20997Z" fill="#B3B3B3"/>
<path d="M237.324 123.108H240.777V126.499H237.324V123.108Z" fill="#B3B3B3"/>
<path d="M237.324 -1.20997H240.777V2.18053H237.324V-1.20997Z" fill="#B3B3B3"/>
<path d="M249.986 123.108H253.439V126.499H249.986V123.108Z" fill="#B3B3B3"/>
<path d="M249.986 -1.20997H253.439V2.18053H249.986V-1.20997Z" fill="#B3B3B3"/>
<path d="M262.647 123.108H266.101V126.499H262.647V123.108Z" fill="#B3B3B3"/>
<path d="M262.647 -1.20997H266.101V2.18053H262.647V-1.20997Z" fill="#B3B3B3"/>
<path d="M275.309 123.108H278.762V126.499H275.309V123.108Z" fill="#B3B3B3"/>
<path d="M275.309 -1.20997H278.762V2.18053H275.309V-1.20997Z" fill="#B3B3B3"/>
<path d="M287.971 123.108H291.424V126.499H287.971V123.108Z" fill="#B3B3B3"/>
<path d="M287.971 -1.20997H291.424V2.18053H287.971V-1.20997Z" fill="#B3B3B3"/>
<path d="M300.633 123.108H304.086V126.499H300.633V123.108Z" fill="#B3B3B3"/>
<path d="M300.633 -1.20997H304.086V2.18053H300.633V-1.20997Z" fill="#B3B3B3"/>
<path d="M313.295 123.108H316.748V126.499H313.295V123.108Z" fill="#B3B3B3"/>
<path d="M313.295 -1.20997H316.748V2.18053H313.295V-1.20997Z" fill="#B3B3B3"/>
<path d="M325.957 123.108H329.41V126.499H325.957V123.108Z" fill="#B3B3B3"/>
<path d="M325.957 -1.20997H329.41V2.18053H325.957V-1.20997Z" fill="#B3B3B3"/>
<path d="M338.618 123.108H342.072V126.499H338.618V123.108Z" fill="#B3B3B3"/>
<path d="M338.618 -1.20997H342.072V2.18053H338.618V-1.20997Z" fill="#B3B3B3"/>
<path d="M351.28 123.108H354.734V126.499H351.28V123.108Z" fill="#B3B3B3"/>
<path d="M351.28 -1.20997H354.734V2.18053H351.28V-1.20997Z" fill="#B3B3B3"/>
<path d="M363.942 123.108H367.395V126.499H363.942V123.108Z" fill="#B3B3B3"/>
<path d="M363.942 -1.20997H367.395V2.18053H363.942V-1.20997Z" fill="#B3B3B3"/>
<path d="M376.604 123.108H380.057V126.499H376.604V123.108Z" fill="#B3B3B3"/>
<path d="M376.604 -1.20997H380.057V2.18053H376.604V-1.20997Z" fill="#B3B3B3"/>
<path d="M389.266 123.108H392.719V126.499H389.266V123.108Z" fill="#B3B3B3"/>
<path d="M389.266 -1.20997H392.719V2.18053H389.266V-1.20997Z" fill="#B3B3B3"/>
<path d="M401.928 123.108H405.381V126.499H401.928V123.108Z" fill="#B3B3B3"/>
<path d="M401.928 -1.20997H405.381V2.18053H401.928V-1.20997Z" fill="#B3B3B3"/>
<path d="M414.59 123.108H418.043V126.499H414.59V123.108Z" fill="#B3B3B3"/>
<path d="M414.59 -1.20997H418.043V2.18053H414.59V-1.20997Z" fill="#B3B3B3"/>
<path d="M427.251 123.108H430.705V126.499H427.251V123.108Z" fill="#B3B3B3"/>
<path d="M427.251 -1.20997H430.705V2.18053H427.251V-1.20997Z" fill="#B3B3B3"/>
<path d="M439.913 123.108H443.367V126.499H439.913V123.108Z" fill="#B3B3B3"/>
<path d="M439.913 -1.20997H443.367V2.18053H439.913V-1.20997Z" fill="#B3B3B3"/>
<path d="M452.575 123.108H456.028V126.499H452.575V123.108Z" fill="#B3B3B3"/>
<path d="M452.575 -1.20997H456.028V2.18053H452.575V-1.20997Z" fill="#B3B3B3"/>
<path d="M212 134.41H215.453V137.801H212V134.41Z" fill="#B3B3B3"/>
<path d="M212 10.0917H215.453V13.4822H212V10.0917Z" fill="#B3B3B3"/>
<path d="M224.662 134.41H228.115V137.801H224.662V134.41Z" fill="#B3B3B3"/>
<path d="M224.662 10.0917H228.115V13.4822H224.662V10.0917Z" fill="#B3B3B3"/>
<path d="M237.324 134.41H240.777V137.801H237.324V134.41Z" fill="#B3B3B3"/>
<path d="M237.324 10.0917H240.777V13.4822H237.324V10.0917Z" fill="#B3B3B3"/>
<path d="M249.986 134.41H253.439V137.801H249.986V134.41Z" fill="#B3B3B3"/>
<path d="M249.986 10.0917H253.439V13.4822H249.986V10.0917Z" fill="#B3B3B3"/>
<path d="M262.647 134.41H266.101V137.801H262.647V134.41Z" fill="#B3B3B3"/>
<path d="M262.647 10.0917H266.101V13.4822H262.647V10.0917Z" fill="#B3B3B3"/>
<path d="M275.309 134.41H278.762V137.801H275.309V134.41Z" fill="#B3B3B3"/>
<path d="M275.309 10.0917H278.762V13.4822H275.309V10.0917Z" fill="#B3B3B3"/>
<path d="M287.971 134.41H291.424V137.801H287.971V134.41Z" fill="#B3B3B3"/>
<path d="M287.971 10.0917H291.424V13.4822H287.971V10.0917Z" fill="#B3B3B3"/>
<path d="M300.633 134.41H304.086V137.801H300.633V134.41Z" fill="#B3B3B3"/>
<path d="M300.633 10.0917H304.086V13.4822H300.633V10.0917Z" fill="#B3B3B3"/>
<path d="M313.295 134.41H316.748V137.801H313.295V134.41Z" fill="#B3B3B3"/>
<path d="M313.295 10.0917H316.748V13.4822H313.295V10.0917Z" fill="#B3B3B3"/>
<path d="M325.957 134.41H329.41V137.801H325.957V134.41Z" fill="#B3B3B3"/>
<path d="M325.957 10.0917H329.41V13.4822H325.957V10.0917Z" fill="#B3B3B3"/>
<path d="M338.618 134.41H342.072V137.801H338.618V134.41Z" fill="#B3B3B3"/>
<path d="M338.618 10.0917H342.072V13.4822H338.618V10.0917Z" fill="#B3B3B3"/>
<path d="M351.28 134.41H354.734V137.801H351.28V134.41Z" fill="#B3B3B3"/>
<path d="M351.28 10.0917H354.734V13.4822H351.28V10.0917Z" fill="#B3B3B3"/>
<path d="M363.942 134.41H367.395V137.801H363.942V134.41Z" fill="#B3B3B3"/>
<path d="M363.942 10.0917H367.395V13.4822H363.942V10.0917Z" fill="#B3B3B3"/>
<path d="M376.604 134.41H380.057V137.801H376.604V134.41Z" fill="#B3B3B3"/>
<path d="M376.604 10.0917H380.057V13.4822H376.604V10.0917Z" fill="#B3B3B3"/>
<path d="M389.266 134.41H392.719V137.801H389.266V134.41Z" fill="#B3B3B3"/>
<path d="M389.266 10.0917H392.719V13.4822H389.266V10.0917Z" fill="#B3B3B3"/>
<path d="M401.928 134.41H405.381V137.801H401.928V134.41Z" fill="#B3B3B3"/>
<path d="M401.928 10.0917H405.381V13.4822H401.928V10.0917Z" fill="#B3B3B3"/>
<path d="M414.59 134.41H418.043V137.801H414.59V134.41Z" fill="#B3B3B3"/>
<path d="M414.59 10.0917H418.043V13.4822H414.59V10.0917Z" fill="#B3B3B3"/>
<path d="M427.251 134.41H430.705V137.801H427.251V134.41Z" fill="#B3B3B3"/>
<path d="M427.251 10.0917H430.705V13.4822H427.251V10.0917Z" fill="#B3B3B3"/>
<path d="M439.913 134.41H443.367V137.801H439.913V134.41Z" fill="#B3B3B3"/>
<path d="M439.913 10.0917H443.367V13.4822H439.913V10.0917Z" fill="#B3B3B3"/>
<path d="M452.575 134.41H456.028V137.801H452.575V134.41Z" fill="#B3B3B3"/>
<path d="M452.575 10.0917H456.028V13.4822H452.575V10.0917Z" fill="#B3B3B3"/>
<path d="M212 145.712H215.453V149.102H212V145.712Z" fill="#B3B3B3"/>
<path d="M212 21.3934H215.453V24.7839H212V21.3934Z" fill="#B3B3B3"/>
<path d="M224.662 145.712H228.115V149.102H224.662V145.712Z" fill="#B3B3B3"/>
<path d="M224.662 21.3934H228.115V24.7839H224.662V21.3934Z" fill="#B3B3B3"/>
<path d="M237.324 145.712H240.777V149.102H237.324V145.712Z" fill="#B3B3B3"/>
<path d="M237.324 21.3934H240.777V24.7839H237.324V21.3934Z" fill="#B3B3B3"/>
<path d="M249.986 145.712H253.439V149.102H249.986V145.712Z" fill="#B3B3B3"/>
<path d="M249.986 21.3934H253.439V24.7839H249.986V21.3934Z" fill="#B3B3B3"/>
<path d="M262.647 145.712H266.101V149.102H262.647V145.712Z" fill="#B3B3B3"/>
<path d="M262.647 21.3934H266.101V24.7839H262.647V21.3934Z" fill="#B3B3B3"/>
<path d="M275.309 145.712H278.762V149.102H275.309V145.712Z" fill="#B3B3B3"/>
<path d="M275.309 21.3934H278.762V24.7839H275.309V21.3934Z" fill="#B3B3B3"/>
<path d="M287.971 145.712H291.424V149.102H287.971V145.712Z" fill="#B3B3B3"/>
<path d="M287.971 21.3934H291.424V24.7839H287.971V21.3934Z" fill="#B3B3B3"/>
<path d="M300.633 145.712H304.086V149.102H300.633V145.712Z" fill="#B3B3B3"/>
<path d="M300.633 21.3934H304.086V24.7839H300.633V21.3934Z" fill="#B3B3B3"/>
<path d="M313.295 145.712H316.748V149.102H313.295V145.712Z" fill="#B3B3B3"/>
<path d="M313.295 21.3934H316.748V24.7839H313.295V21.3934Z" fill="#B3B3B3"/>
<path d="M325.957 145.712H329.41V149.102H325.957V145.712Z" fill="#B3B3B3"/>
<path d="M325.957 21.3934H329.41V24.7839H325.957V21.3934Z" fill="#B3B3B3"/>
<path d="M338.618 145.712H342.072V149.102H338.618V145.712Z" fill="#B3B3B3"/>
<path d="M338.618 21.3934H342.072V24.7839H338.618V21.3934Z" fill="#B3B3B3"/>
<path d="M351.28 145.712H354.734V149.102H351.28V145.712Z" fill="#B3B3B3"/>
<path d="M351.28 21.3934H354.734V24.7839H351.28V21.3934Z" fill="#B3B3B3"/>
<path d="M363.942 145.712H367.395V149.102H363.942V145.712Z" fill="#B3B3B3"/>
<path d="M363.942 21.3934H367.395V24.7839H363.942V21.3934Z" fill="#B3B3B3"/>
<path d="M376.604 145.712H380.057V149.102H376.604V145.712Z" fill="#B3B3B3"/>
<path d="M376.604 21.3934H380.057V24.7839H376.604V21.3934Z" fill="#B3B3B3"/>
<path d="M389.266 145.712H392.719V149.102H389.266V145.712Z" fill="#B3B3B3"/>
<path d="M389.266 21.3934H392.719V24.7839H389.266V21.3934Z" fill="#B3B3B3"/>
<path d="M401.928 145.712H405.381V149.102H401.928V145.712Z" fill="#B3B3B3"/>
<path d="M401.928 21.3934H405.381V24.7839H401.928V21.3934Z" fill="#B3B3B3"/>
<path d="M414.59 145.712H418.043V149.102H414.59V145.712Z" fill="#B3B3B3"/>
<path d="M414.59 21.3934H418.043V24.7839H414.59V21.3934Z" fill="#B3B3B3"/>
<path d="M427.251 145.712H430.705V149.102H427.251V145.712Z" fill="#B3B3B3"/>
<path d="M427.251 21.3934H430.705V24.7839H427.251V21.3934Z" fill="#B3B3B3"/>
<path d="M439.913 145.712H443.367V149.102H439.913V145.712Z" fill="#B3B3B3"/>
<path d="M439.913 21.3934H443.367V24.7839H439.913V21.3934Z" fill="#B3B3B3"/>
<path d="M452.575 145.712H456.028V149.102H452.575V145.712Z" fill="#B3B3B3"/>
<path d="M452.575 21.3934H456.028V24.7839H452.575V21.3934Z" fill="#B3B3B3"/>
<path d="M212 157.013H215.453V160.404H212V157.013Z" fill="#B3B3B3"/>
<path d="M212 32.6951H215.453V36.0856H212V32.6951Z" fill="#B3B3B3"/>
<path d="M224.662 157.013H228.115V160.404H224.662V157.013Z" fill="#B3B3B3"/>
<path d="M224.662 32.6951H228.115V36.0856H224.662V32.6951Z" fill="#B3B3B3"/>
<path d="M237.324 157.013H240.777V160.404H237.324V157.013Z" fill="#B3B3B3"/>
<path d="M237.324 32.6951H240.777V36.0856H237.324V32.6951Z" fill="#B3B3B3"/>
<path d="M249.986 157.013H253.439V160.404H249.986V157.013Z" fill="#B3B3B3"/>
<path d="M249.986 32.6951H253.439V36.0856H249.986V32.6951Z" fill="#B3B3B3"/>
<path d="M262.647 157.013H266.101V160.404H262.647V157.013Z" fill="#B3B3B3"/>
<path d="M262.647 32.6951H266.101V36.0856H262.647V32.6951Z" fill="#B3B3B3"/>
<path d="M275.309 157.013H278.762V160.404H275.309V157.013Z" fill="#B3B3B3"/>
<path d="M275.309 32.6951H278.762V36.0856H275.309V32.6951Z" fill="#B3B3B3"/>
<path d="M287.971 157.013H291.424V160.404H287.971V157.013Z" fill="#B3B3B3"/>
<path d="M287.971 32.6951H291.424V36.0856H287.971V32.6951Z" fill="#B3B3B3"/>
<path d="M300.633 157.013H304.086V160.404H300.633V157.013Z" fill="#B3B3B3"/>
<path d="M300.633 32.6951H304.086V36.0856H300.633V32.6951Z" fill="#B3B3B3"/>
<path d="M313.295 157.013H316.748V160.404H313.295V157.013Z" fill="#B3B3B3"/>
<path d="M313.295 32.6951H316.748V36.0856H313.295V32.6951Z" fill="#B3B3B3"/>
<path d="M325.957 157.013H329.41V160.404H325.957V157.013Z" fill="#B3B3B3"/>
<path d="M325.957 32.6951H329.41V36.0856H325.957V32.6951Z" fill="#B3B3B3"/>
<path d="M338.618 157.013H342.072V160.404H338.618V157.013Z" fill="#B3B3B3"/>
<path d="M338.618 32.6951H342.072V36.0856H338.618V32.6951Z" fill="#B3B3B3"/>
<path d="M351.28 157.013H354.734V160.404H351.28V157.013Z" fill="#B3B3B3"/>
<path d="M351.28 32.6951H354.734V36.0856H351.28V32.6951Z" fill="#B3B3B3"/>
<path d="M363.942 157.013H367.395V160.404H363.942V157.013Z" fill="#B3B3B3"/>
<path d="M363.942 32.6951H367.395V36.0856H363.942V32.6951Z" fill="#B3B3B3"/>
<path d="M376.604 157.013H380.057V160.404H376.604V157.013Z" fill="#B3B3B3"/>
<path d="M376.604 32.6951H380.057V36.0856H376.604V32.6951Z" fill="#B3B3B3"/>
<path d="M389.266 157.013H392.719V160.404H389.266V157.013Z" fill="#B3B3B3"/>
<path d="M389.266 32.6951H392.719V36.0856H389.266V32.6951Z" fill="#B3B3B3"/>
<path d="M401.928 157.013H405.381V160.404H401.928V157.013Z" fill="#B3B3B3"/>
<path d="M401.928 32.6951H405.381V36.0856H401.928V32.6951Z" fill="#B3B3B3"/>
<path d="M414.59 157.013H418.043V160.404H414.59V157.013Z" fill="#B3B3B3"/>
<path d="M414.59 32.6951H418.043V36.0856H414.59V32.6951Z" fill="#B3B3B3"/>
<path d="M427.251 157.013H430.705V160.404H427.251V157.013Z" fill="#B3B3B3"/>
<path d="M427.251 32.6951H430.705V36.0856H427.251V32.6951Z" fill="#B3B3B3"/>
<path d="M439.913 157.013H443.367V160.404H439.913V157.013Z" fill="#B3B3B3"/>
<path d="M439.913 32.6951H443.367V36.0856H439.913V32.6951Z" fill="#B3B3B3"/>
<path d="M452.575 157.013H456.028V160.404H452.575V157.013Z" fill="#B3B3B3"/>
<path d="M452.575 32.6951H456.028V36.0856H452.575V32.6951Z" fill="#B3B3B3"/>
<path d="M212 168.315H215.453V171.706H212V168.315Z" fill="#B3B3B3"/>
<path d="M212 43.9967H215.453V47.3872H212V43.9967Z" fill="#B3B3B3"/>
<path d="M224.662 168.315H228.115V171.706H224.662V168.315Z" fill="#B3B3B3"/>
<path d="M224.662 43.9967H228.115V47.3872H224.662V43.9967Z" fill="#B3B3B3"/>
<path d="M237.324 168.315H240.777V171.706H237.324V168.315Z" fill="#B3B3B3"/>
<path d="M237.324 43.9967H240.777V47.3872H237.324V43.9967Z" fill="#B3B3B3"/>
<path d="M249.986 168.315H253.439V171.706H249.986V168.315Z" fill="#B3B3B3"/>
<path d="M249.986 43.9967H253.439V47.3872H249.986V43.9967Z" fill="#B3B3B3"/>
<path d="M262.647 168.315H266.101V171.706H262.647V168.315Z" fill="#B3B3B3"/>
<path d="M262.647 43.9967H266.101V47.3872H262.647V43.9967Z" fill="#B3B3B3"/>
<path d="M275.309 168.315H278.762V171.706H275.309V168.315Z" fill="#B3B3B3"/>
<path d="M275.309 43.9967H278.762V47.3872H275.309V43.9967Z" fill="#B3B3B3"/>
<path d="M287.971 168.315H291.424V171.706H287.971V168.315Z" fill="#B3B3B3"/>
<path d="M287.971 43.9967H291.424V47.3872H287.971V43.9967Z" fill="#B3B3B3"/>
<path d="M300.633 168.315H304.086V171.706H300.633V168.315Z" fill="#B3B3B3"/>
<path d="M300.633 43.9967H304.086V47.3872H300.633V43.9967Z" fill="#B3B3B3"/>
<path d="M313.295 168.315H316.748V171.706H313.295V168.315Z" fill="#B3B3B3"/>
<path d="M313.295 43.9967H316.748V47.3872H313.295V43.9967Z" fill="#B3B3B3"/>
<path d="M325.957 168.315H329.41V171.706H325.957V168.315Z" fill="#B3B3B3"/>
<path d="M325.957 43.9967H329.41V47.3872H325.957V43.9967Z" fill="#B3B3B3"/>
<path d="M338.618 168.315H342.072V171.706H338.618V168.315Z" fill="#B3B3B3"/>
<path d="M338.618 43.9967H342.072V47.3872H338.618V43.9967Z" fill="#B3B3B3"/>
<path d="M351.28 168.315H354.734V171.706H351.28V168.315Z" fill="#B3B3B3"/>
<path d="M351.28 43.9967H354.734V47.3872H351.28V43.9967Z" fill="#B3B3B3"/>
<path d="M363.942 168.315H367.395V171.706H363.942V168.315Z" fill="#B3B3B3"/>
<path d="M363.942 43.9967H367.395V47.3872H363.942V43.9967Z" fill="#B3B3B3"/>
<path d="M376.604 168.315H380.057V171.706H376.604V168.315Z" fill="#B3B3B3"/>
<path d="M376.604 43.9967H380.057V47.3872H376.604V43.9967Z" fill="#B3B3B3"/>
<path d="M389.266 168.315H392.719V171.706H389.266V168.315Z" fill="#B3B3B3"/>
<path d="M389.266 43.9967H392.719V47.3872H389.266V43.9967Z" fill="#B3B3B3"/>
<path d="M401.928 168.315H405.381V171.706H401.928V168.315Z" fill="#B3B3B3"/>
<path d="M401.928 43.9967H405.381V47.3872H401.928V43.9967Z" fill="#B3B3B3"/>
<path d="M414.59 168.315H418.043V171.706H414.59V168.315Z" fill="#B3B3B3"/>
<path d="M414.59 43.9967H418.043V47.3872H414.59V43.9967Z" fill="#B3B3B3"/>
<path d="M427.251 168.315H430.705V171.706H427.251V168.315Z" fill="#B3B3B3"/>
<path d="M427.251 43.9967H430.705V47.3872H427.251V43.9967Z" fill="#B3B3B3"/>
<path d="M439.913 168.315H443.367V171.706H439.913V168.315Z" fill="#B3B3B3"/>
<path d="M439.913 43.9967H443.367V47.3872H439.913V43.9967Z" fill="#B3B3B3"/>
<path d="M452.575 168.315H456.028V171.706H452.575V168.315Z" fill="#B3B3B3"/>
<path d="M452.575 43.9967H456.028V47.3872H452.575V43.9967Z" fill="#B3B3B3"/>
<path d="M212 179.617H215.453V183.007H212V179.617Z" fill="#B3B3B3"/>
<path d="M212 55.2984H215.453V58.6889H212V55.2984Z" fill="#B3B3B3"/>
<path d="M224.662 179.617H228.115V183.007H224.662V179.617Z" fill="#B3B3B3"/>
<path d="M224.662 55.2984H228.115V58.6889H224.662V55.2984Z" fill="#B3B3B3"/>
<path d="M237.324 179.617H240.777V183.007H237.324V179.617Z" fill="#B3B3B3"/>
<path d="M237.324 55.2984H240.777V58.6889H237.324V55.2984Z" fill="#B3B3B3"/>
<path d="M249.986 179.617H253.439V183.007H249.986V179.617Z" fill="#B3B3B3"/>
<path d="M249.986 55.2984H253.439V58.6889H249.986V55.2984Z" fill="#B3B3B3"/>
<path d="M262.647 179.617H266.101V183.007H262.647V179.617Z" fill="#B3B3B3"/>
<path d="M262.647 55.2984H266.101V58.6889H262.647V55.2984Z" fill="#B3B3B3"/>
<path d="M275.309 179.617H278.762V183.007H275.309V179.617Z" fill="#B3B3B3"/>
<path d="M275.309 55.2984H278.762V58.6889H275.309V55.2984Z" fill="#B3B3B3"/>
<path d="M287.971 179.617H291.424V183.007H287.971V179.617Z" fill="#B3B3B3"/>
<path d="M287.971 55.2984H291.424V58.6889H287.971V55.2984Z" fill="#B3B3B3"/>
<path d="M300.633 179.617H304.086V183.007H300.633V179.617Z" fill="#B3B3B3"/>
<path d="M300.633 55.2984H304.086V58.6889H300.633V55.2984Z" fill="#B3B3B3"/>
<path d="M313.295 179.617H316.748V183.007H313.295V179.617Z" fill="#B3B3B3"/>
<path d="M313.295 55.2984H316.748V58.6889H313.295V55.2984Z" fill="#B3B3B3"/>
<path d="M325.957 179.617H329.41V183.007H325.957V179.617Z" fill="#B3B3B3"/>
<path d="M325.957 55.2984H329.41V58.6889H325.957V55.2984Z" fill="#B3B3B3"/>
<path d="M338.618 179.617H342.072V183.007H338.618V179.617Z" fill="#B3B3B3"/>
<path d="M338.618 55.2984H342.072V58.6889H338.618V55.2984Z" fill="#B3B3B3"/>
<path d="M351.28 179.617H354.734V183.007H351.28V179.617Z" fill="#B3B3B3"/>
<path d="M351.28 55.2984H354.734V58.6889H351.28V55.2984Z" fill="#B3B3B3"/>
<path d="M363.942 179.617H367.395V183.007H363.942V179.617Z" fill="#B3B3B3"/>
<path d="M363.942 55.2984H367.395V58.6889H363.942V55.2984Z" fill="#B3B3B3"/>
<path d="M376.604 179.617H380.057V183.007H376.604V179.617Z" fill="#B3B3B3"/>
<path d="M376.604 55.2984H380.057V58.6889H376.604V55.2984Z" fill="#B3B3B3"/>
<path d="M389.266 179.617H392.719V183.007H389.266V179.617Z" fill="#B3B3B3"/>
<path d="M389.266 55.2984H392.719V58.6889H389.266V55.2984Z" fill="#B3B3B3"/>
<path d="M401.928 179.617H405.381V183.007H401.928V179.617Z" fill="#B3B3B3"/>
<path d="M401.928 55.2984H405.381V58.6889H401.928V55.2984Z" fill="#B3B3B3"/>
<path d="M414.59 179.617H418.043V183.007H414.59V179.617Z" fill="#B3B3B3"/>
<path d="M414.59 55.2984H418.043V58.6889H414.59V55.2984Z" fill="#B3B3B3"/>
<path d="M427.251 179.617H430.705V183.007H427.251V179.617Z" fill="#B3B3B3"/>
<path d="M427.251 55.2984H430.705V58.6889H427.251V55.2984Z" fill="#B3B3B3"/>
<path d="M439.913 179.617H443.367V183.007H439.913V179.617Z" fill="#B3B3B3"/>
<path d="M439.913 55.2984H443.367V58.6889H439.913V55.2984Z" fill="#B3B3B3"/>
<path d="M452.575 179.617H456.028V183.007H452.575V179.617Z" fill="#B3B3B3"/>
<path d="M452.575 55.2984H456.028V58.6889H452.575V55.2984Z" fill="#B3B3B3"/>
<path d="M212 190.918H215.453V194.309H212V190.918Z" fill="#B3B3B3"/>
<path d="M212 66.6001H215.453V69.9906H212V66.6001Z" fill="#B3B3B3"/>
<path d="M224.662 190.918H228.115V194.309H224.662V190.918Z" fill="#B3B3B3"/>
<path d="M224.662 66.6001H228.115V69.9906H224.662V66.6001Z" fill="#B3B3B3"/>
<path d="M237.324 190.918H240.777V194.309H237.324V190.918Z" fill="#B3B3B3"/>
<path d="M237.324 66.6001H240.777V69.9906H237.324V66.6001Z" fill="#B3B3B3"/>
<path d="M249.986 190.918H253.439V194.309H249.986V190.918Z" fill="#B3B3B3"/>
<path d="M249.986 66.6001H253.439V69.9906H249.986V66.6001Z" fill="#B3B3B3"/>
<path d="M262.647 190.918H266.101V194.309H262.647V190.918Z" fill="#B3B3B3"/>
<path d="M262.647 66.6001H266.101V69.9906H262.647V66.6001Z" fill="#B3B3B3"/>
<path d="M275.309 190.918H278.762V194.309H275.309V190.918Z" fill="#B3B3B3"/>
<path d="M275.309 66.6001H278.762V69.9906H275.309V66.6001Z" fill="#B3B3B3"/>
<path d="M287.971 190.918H291.424V194.309H287.971V190.918Z" fill="#B3B3B3"/>
<path d="M287.971 66.6001H291.424V69.9906H287.971V66.6001Z" fill="#B3B3B3"/>
<path d="M300.633 190.918H304.086V194.309H300.633V190.918Z" fill="#B3B3B3"/>
<path d="M300.633 66.6001H304.086V69.9906H300.633V66.6001Z" fill="#B3B3B3"/>
<path d="M313.295 190.918H316.748V194.309H313.295V190.918Z" fill="#B3B3B3"/>
<path d="M313.295 66.6001H316.748V69.9906H313.295V66.6001Z" fill="#B3B3B3"/>
<path d="M325.957 190.918H329.41V194.309H325.957V190.918Z" fill="#B3B3B3"/>
<path d="M325.957 66.6001H329.41V69.9906H325.957V66.6001Z" fill="#B3B3B3"/>
<path d="M338.618 190.918H342.072V194.309H338.618V190.918Z" fill="#B3B3B3"/>
<path d="M338.618 66.6001H342.072V69.9906H338.618V66.6001Z" fill="#B3B3B3"/>
<path d="M351.28 190.918H354.734V194.309H351.28V190.918Z" fill="#B3B3B3"/>
<path d="M351.28 66.6001H354.734V69.9906H351.28V66.6001Z" fill="#B3B3B3"/>
<path d="M363.942 190.918H367.395V194.309H363.942V190.918Z" fill="#B3B3B3"/>
<path d="M363.942 66.6001H367.395V69.9906H363.942V66.6001Z" fill="#B3B3B3"/>
<path d="M376.604 190.918H380.057V194.309H376.604V190.918Z" fill="#B3B3B3"/>
<path d="M376.604 66.6001H380.057V69.9906H376.604V66.6001Z" fill="#B3B3B3"/>
<path d="M389.266 190.918H392.719V194.309H389.266V190.918Z" fill="#B3B3B3"/>
<path d="M389.266 66.6001H392.719V69.9906H389.266V66.6001Z" fill="#B3B3B3"/>
<path d="M401.928 190.918H405.381V194.309H401.928V190.918Z" fill="#B3B3B3"/>
<path d="M401.928 66.6001H405.381V69.9906H401.928V66.6001Z" fill="#B3B3B3"/>
<path d="M414.59 190.918H418.043V194.309H414.59V190.918Z" fill="#B3B3B3"/>
<path d="M414.59 66.6001H418.043V69.9906H414.59V66.6001Z" fill="#B3B3B3"/>
<path d="M427.251 190.918H430.705V194.309H427.251V190.918Z" fill="#B3B3B3"/>
<path d="M427.251 66.6001H430.705V69.9906H427.251V66.6001Z" fill="#B3B3B3"/>
<path d="M439.913 190.918H443.367V194.309H439.913V190.918Z" fill="#B3B3B3"/>
<path d="M439.913 66.6001H443.367V69.9906H439.913V66.6001Z" fill="#B3B3B3"/>
<path d="M452.575 190.918H456.028V194.309H452.575V190.918Z" fill="#B3B3B3"/>
<path d="M452.575 66.6001H456.028V69.9906H452.575V66.6001Z" fill="#B3B3B3"/>
<path d="M212 202.22H215.453V205.611H212V202.22Z" fill="#B3B3B3"/>
<path d="M212 77.9017H215.453V81.2923H212V77.9017Z" fill="#B3B3B3"/>
<path d="M224.662 202.22H228.115V205.611H224.662V202.22Z" fill="#B3B3B3"/>
<path d="M224.662 77.9017H228.115V81.2923H224.662V77.9017Z" fill="#B3B3B3"/>
<path d="M237.324 202.22H240.777V205.611H237.324V202.22Z" fill="#B3B3B3"/>
<path d="M237.324 77.9017H240.777V81.2923H237.324V77.9017Z" fill="#B3B3B3"/>
<path d="M249.986 202.22H253.439V205.611H249.986V202.22Z" fill="#B3B3B3"/>
<path d="M249.986 77.9017H253.439V81.2923H249.986V77.9017Z" fill="#B3B3B3"/>
<path d="M262.647 202.22H266.101V205.611H262.647V202.22Z" fill="#B3B3B3"/>
<path d="M262.647 77.9017H266.101V81.2923H262.647V77.9017Z" fill="#B3B3B3"/>
<path d="M275.309 202.22H278.762V205.611H275.309V202.22Z" fill="#B3B3B3"/>
<path d="M275.309 77.9017H278.762V81.2923H275.309V77.9017Z" fill="#B3B3B3"/>
<path d="M287.971 202.22H291.424V205.611H287.971V202.22Z" fill="#B3B3B3"/>
<path d="M287.971 77.9017H291.424V81.2923H287.971V77.9017Z" fill="#B3B3B3"/>
<path d="M300.633 202.22H304.086V205.611H300.633V202.22Z" fill="#B3B3B3"/>
<path d="M300.633 77.9017H304.086V81.2923H300.633V77.9017Z" fill="#B3B3B3"/>
<path d="M313.295 202.22H316.748V205.611H313.295V202.22Z" fill="#B3B3B3"/>
<path d="M313.295 77.9017H316.748V81.2923H313.295V77.9017Z" fill="#B3B3B3"/>
<path d="M325.957 202.22H329.41V205.611H325.957V202.22Z" fill="#B3B3B3"/>
<path d="M325.957 77.9017H329.41V81.2923H325.957V77.9017Z" fill="#B3B3B3"/>
<path d="M338.618 202.22H342.072V205.611H338.618V202.22Z" fill="#B3B3B3"/>
<path d="M338.618 77.9017H342.072V81.2923H338.618V77.9017Z" fill="#B3B3B3"/>
<path d="M351.28 202.22H354.734V205.611H351.28V202.22Z" fill="#B3B3B3"/>
<path d="M351.28 77.9017H354.734V81.2923H351.28V77.9017Z" fill="#B3B3B3"/>
<path d="M363.942 202.22H367.395V205.611H363.942V202.22Z" fill="#B3B3B3"/>
<path d="M363.942 77.9017H367.395V81.2923H363.942V77.9017Z" fill="#B3B3B3"/>
<path d="M376.604 202.22H380.057V205.611H376.604V202.22Z" fill="#B3B3B3"/>
<path d="M376.604 77.9017H380.057V81.2923H376.604V77.9017Z" fill="#B3B3B3"/>
<path d="M389.266 202.22H392.719V205.611H389.266V202.22Z" fill="#B3B3B3"/>
<path d="M389.266 77.9017H392.719V81.2923H389.266V77.9017Z" fill="#B3B3B3"/>
<path d="M401.928 202.22H405.381V205.611H401.928V202.22Z" fill="#B3B3B3"/>
<path d="M401.928 77.9017H405.381V81.2923H401.928V77.9017Z" fill="#B3B3B3"/>
<path d="M414.59 202.22H418.043V205.611H414.59V202.22Z" fill="#B3B3B3"/>
<path d="M414.59 77.9017H418.043V81.2923H414.59V77.9017Z" fill="#B3B3B3"/>
<path d="M427.251 202.22H430.705V205.611H427.251V202.22Z" fill="#B3B3B3"/>
<path d="M427.251 77.9017H430.705V81.2923H427.251V77.9017Z" fill="#B3B3B3"/>
<path d="M439.913 202.22H443.367V205.611H439.913V202.22Z" fill="#B3B3B3"/>
<path d="M439.913 77.9017H443.367V81.2923H439.913V77.9017Z" fill="#B3B3B3"/>
<path d="M452.575 202.22H456.028V205.611H452.575V202.22Z" fill="#B3B3B3"/>
<path d="M452.575 77.9017H456.028V81.2923H452.575V77.9017Z" fill="#B3B3B3"/>
</g>
<path d="M76.1562 147.829L213.5 216.501L350.844 147.829V294.329L213.5 362.999L76.1562 294.328V147.829Z" fill="#DB5449"/>
<path d="M76.1562 161.562V204.367L213.042 271.437L350.843 204.138V161.562L213.5 228.861L76.1562 161.562Z" fill="#C54B42"/>
<path d="M213.5 362.999V216.501L85.3126 152.407H76.1562V294.329L213.5 362.999Z" fill="#D05045"/>
<path d="M76.1562 161.562V204.367L213.042 271.437L213.5 271.208V228.631V228.86L76.1562 161.562Z" fill="#BB483E"/>
<path d="M67 143.022L213.5 70.001L360 143.022V152.636L213.5 225.656L67 152.865V143.022Z" fill="#EB6258"/>
<path d="M297.508 93.1197C292.701 84.4214 282.4 79.1562 270.268 79.1562C242.571 79.1562 223.114 105.023 213.5 121.504C203.885 105.023 184.2 79.3852 156.731 79.3852C139.105 79.3852 126.515 90.144 126.515 104.794C126.515 130.889 155.128 147.828 212.584 147.828C270.039 147.828 300.483 126.082 300.483 105.023C300.484 100.903 299.569 96.7825 297.508 93.1197ZM162.683 121.276C156.273 116.927 153.985 112.119 153.985 108.915C153.985 105.023 157.647 102.048 162.912 102.048C175.273 102.048 185.116 118.3 190.609 129.517C176.188 128.372 167.719 124.48 162.683 121.276ZM264.317 121.276C259.281 124.48 250.811 128.372 236.39 129.516C241.655 118.3 251.498 102.047 264.088 102.047C269.352 102.047 273.015 105.023 273.015 108.914C273.016 112.119 270.726 116.926 264.317 121.276Z" fill="#EFEFEF"/>
<path d="M67 143.25L213.5 214.898L360 143.25V190.634L213.042 262.282L67 190.634V143.25Z" fill="#E2574C"/>
<path d="M268.437 194.296V189.032L213.5 159.274L158.563 189.032V194.296L121.938 178.273V170.948L211.669 123.565L213.5 124.48L215.331 123.565L305.062 170.719V178.044L268.437 194.296Z" fill="#EFEFEF"/>
<path d="M268.438 189.032V335.303L305.062 316.99V170.719L268.438 189.032Z" fill="#DCDCDC"/>
<path d="M121.938 317.218L158.562 335.531V189.261L121.938 170.719C121.937 170.718 121.938 317.218 121.938 317.218Z" fill="#D1D1D1"/>
<path d="M300.639 222.433L278.135 244.938C275.027 248.045 269.99 248.045 266.882 244.938L236.137 214.192C234.255 212.311 233.439 209.614 233.961 207.005L237.711 188.251C238.341 185.102 240.803 182.64 243.953 182.01L262.707 178.259C265.316 177.737 268.012 178.554 269.893 180.435L300.639 211.181C303.746 214.288 303.746 219.326 300.639 222.433Z" fill="#FFC854"/>
<path d="M256.895 216.464C255.961 216.464 255.028 216.108 254.315 215.396L252.891 213.972C251.467 212.548 251.467 210.238 252.891 208.814C254.316 207.39 256.625 207.39 258.049 208.814L259.473 210.238C260.897 211.662 260.897 213.972 259.473 215.396C258.761 216.108 257.828 216.464 256.895 216.464Z" fill="#EEF1F3"/>
<path d="M283.63 220.533C282.697 220.533 281.763 220.177 281.051 219.464L279.627 218.04C278.203 216.616 278.203 214.307 279.627 212.883C281.052 211.458 283.36 211.458 284.785 212.883L286.209 214.307C287.633 215.731 287.633 218.04 286.209 219.464C285.496 220.177 284.563 220.533 283.63 220.533Z" fill="#EEF1F3"/>
<path d="M272.64 231.575C270.964 231.575 269.466 230.387 269.124 228.669L263.518 200.445C263.129 198.488 264.39 196.584 266.334 196.192C268.277 195.802 270.169 197.07 270.557 199.027L276.164 227.252C276.553 229.209 275.292 231.113 273.348 231.505C273.11 231.552 272.874 231.575 272.64 231.575Z" fill="#EEF1F3"/>
<path d="M249.98 197.865C249.063 197.865 248.144 197.515 247.444 196.815L214.514 163.884C213.114 162.484 213.114 160.213 214.514 158.813C215.915 157.412 218.185 157.412 219.586 158.813L252.517 191.743C253.917 193.144 253.917 195.415 252.517 196.815C251.816 197.515 250.898 197.865 249.98 197.865Z" fill="#475762"/>
<path d="M300.65 211.182L270.041 180.435C268.169 178.554 265.484 177.737 262.887 178.259L257.636 179.314C258.14 179.631 258.615 180.003 259.044 180.435L289.653 211.182C292.746 214.289 292.746 219.327 289.653 222.435L267.249 244.94C267.216 244.973 267.18 245.001 267.146 245.033C270.246 248.042 275.185 248.014 278.246 244.94L300.65 222.435C303.743 219.327 303.743 214.289 300.65 211.182Z" fill="#FFB313"/>
<path d="M21.3961 0H88.6039C99.7883 0 108.854 9.06664 108.854 20.2506V64.3306C108.854 75.5147 99.7879 84.5811 88.6039 84.5811H78.9587C78.4998 84.5811 78.1279 84.953 78.1279 85.4119V107.156C78.1279 109.727 74.9832 110.973 73.2222 109.1L50.4083 84.8428C50.2512 84.6757 50.0321 84.5811 49.8028 84.5811H21.3961C10.212 84.5811 1.14558 75.5145 1.14558 64.3306V20.2506C1.14558 9.06664 10.2122 0 21.3961 0Z" fill="#6EC1B1"/>
<path d="M69.6083 77.0237C69.6083 76.5405 69.9683 76.1488 70.4126 76.1488H79.7502C90.5775 76.1488 99.3547 66.6013 99.3547 54.824V8.40543C99.3547 6.41254 99.1025 4.48388 98.6326 2.65405C104.739 6.14183 108.854 12.7154 108.854 20.2507V64.3307C108.854 75.5146 99.7879 84.5812 88.6039 84.5812H78.9587C78.4998 84.5812 78.1279 84.9533 78.1279 85.412V107.156C78.1279 109.727 74.9832 110.973 73.2222 109.1L69.6085 105.258V77.0237H69.6083Z" fill="#61A89A"/>
<path d="M32.2462 26.2809C37.3876 21.1394 45.7236 21.1394 50.8652 26.2809L53.7695 29.1851C54.4619 29.8776 55.5849 29.8776 56.2774 29.1851L59.1352 26.3273C64.2767 21.1859 72.6126 21.1859 77.7543 26.3273C82.8957 31.4687 82.8957 39.8047 77.7543 44.9463L56.2757 66.4249C55.5832 67.1174 54.4602 67.1174 53.7678 66.4249L32.2464 44.8999C27.1048 39.7583 27.1048 31.4225 32.2462 26.2809Z" fill="#EC5569"/>
<path d="M32.2462 26.2809C37.3876 21.1394 45.7236 21.1394 50.8652 26.2809L53.7695 29.1851C54.4619 29.8776 55.5849 29.8776 56.2774 29.1851L59.1352 26.3273C64.2767 21.1859 72.6126 21.1859 77.7543 26.3273C82.8957 31.4687 82.8957 39.8047 77.7543 44.9463L56.2757 66.4249C55.5832 67.1174 54.4602 67.1174 53.7678 66.4249L32.2464 44.8999C27.1048 39.7583 27.1048 31.4225 32.2462 26.2809Z" fill="#FFF5F5"/>
<path d="M70.867 44.9463C76.0084 39.8049 76.0084 31.4689 70.867 26.3273C69.1804 24.6408 67.1493 23.5111 65.0011 22.9313C69.4024 21.7427 74.2991 22.8724 77.7538 26.3273C82.8952 31.4687 82.8952 39.8047 77.7538 44.9463L56.2752 66.4249C55.5827 67.1174 54.4597 67.1174 53.7673 66.4249L51.578 64.2353L70.867 44.9463Z" fill="#DCE6EB"/>
<defs>
<clipPath id="clip0">
<rect width="253" height="203" fill="white" transform="translate(212 8)"/>
</clipPath>
</defs>
</svg>
