<svg width="456" height="372" viewBox="0 0 456 372" fill="none" xmlns="http://www.w3.org/2000/svg">
<g clip-path="url(#clip0)">
<path d="M166 250.203H169.453V253.594H166V250.203Z" fill="#B3B3B3"/>
<path d="M166 125.885H169.453V129.276H166V125.885Z" fill="#B3B3B3"/>
<path d="M178.662 250.203H182.115V253.594H178.662V250.203Z" fill="#B3B3B3"/>
<path d="M178.662 125.885H182.115V129.276H178.662V125.885Z" fill="#B3B3B3"/>
<path d="M191.324 250.203H194.777V253.594H191.324V250.203Z" fill="#B3B3B3"/>
<path d="M191.324 125.885H194.777V129.276H191.324V125.885Z" fill="#B3B3B3"/>
<path d="M203.986 250.203H207.439V253.594H203.986V250.203Z" fill="#B3B3B3"/>
<path d="M203.986 125.885H207.439V129.276H203.986V125.885Z" fill="#B3B3B3"/>
<path d="M216.647 250.203H220.101V253.594H216.647V250.203Z" fill="#B3B3B3"/>
<path d="M216.647 125.885H220.101V129.276H216.647V125.885Z" fill="#B3B3B3"/>
<path d="M229.309 250.203H232.762V253.594H229.309V250.203Z" fill="#B3B3B3"/>
<path d="M229.309 125.885H232.762V129.276H229.309V125.885Z" fill="#B3B3B3"/>
<path d="M241.971 250.203H245.424V253.594H241.971V250.203Z" fill="#B3B3B3"/>
<path d="M241.971 125.885H245.424V129.276H241.971V125.885Z" fill="#B3B3B3"/>
<path d="M254.633 250.203H258.086V253.594H254.633V250.203Z" fill="#B3B3B3"/>
<path d="M254.633 125.885H258.086V129.276H254.633V125.885Z" fill="#B3B3B3"/>
<path d="M267.295 250.203H270.748V253.594H267.295V250.203Z" fill="#B3B3B3"/>
<path d="M267.295 125.885H270.748V129.276H267.295V125.885Z" fill="#B3B3B3"/>
<path d="M279.957 250.203H283.41V253.594H279.957V250.203Z" fill="#B3B3B3"/>
<path d="M279.957 125.885H283.41V129.276H279.957V125.885Z" fill="#B3B3B3"/>
<path d="M292.618 250.203H296.072V253.594H292.618V250.203Z" fill="#B3B3B3"/>
<path d="M292.618 125.885H296.072V129.276H292.618V125.885Z" fill="#B3B3B3"/>
<path d="M305.28 250.203H308.734V253.594H305.28V250.203Z" fill="#B3B3B3"/>
<path d="M305.28 125.885H308.734V129.276H305.28V125.885Z" fill="#B3B3B3"/>
<path d="M317.942 250.203H321.395V253.594H317.942V250.203Z" fill="#B3B3B3"/>
<path d="M317.942 125.885H321.395V129.276H317.942V125.885Z" fill="#B3B3B3"/>
<path d="M330.604 250.203H334.057V253.594H330.604V250.203Z" fill="#B3B3B3"/>
<path d="M330.604 125.885H334.057V129.276H330.604V125.885Z" fill="#B3B3B3"/>
<path d="M343.266 250.203H346.719V253.594H343.266V250.203Z" fill="#B3B3B3"/>
<path d="M343.266 125.885H346.719V129.276H343.266V125.885Z" fill="#B3B3B3"/>
<path d="M355.928 250.203H359.381V253.594H355.928V250.203Z" fill="#B3B3B3"/>
<path d="M355.928 125.885H359.381V129.276H355.928V125.885Z" fill="#B3B3B3"/>
<path d="M368.59 250.203H372.043V253.594H368.59V250.203Z" fill="#B3B3B3"/>
<path d="M368.59 125.885H372.043V129.276H368.59V125.885Z" fill="#B3B3B3"/>
<path d="M381.251 250.203H384.705V253.594H381.251V250.203Z" fill="#B3B3B3"/>
<path d="M381.251 125.885H384.705V129.276H381.251V125.885Z" fill="#B3B3B3"/>
<path d="M393.913 250.203H397.367V253.594H393.913V250.203Z" fill="#B3B3B3"/>
<path d="M393.913 125.885H397.367V129.276H393.913V125.885Z" fill="#B3B3B3"/>
<path d="M406.575 250.203H410.028V253.594H406.575V250.203Z" fill="#B3B3B3"/>
<path d="M406.575 125.885H410.028V129.276H406.575V125.885Z" fill="#B3B3B3"/>
<path d="M166 261.505H169.453V264.896H166V261.505Z" fill="#B3B3B3"/>
<path d="M166 137.187H169.453V140.577H166V137.187Z" fill="#B3B3B3"/>
<path d="M178.662 261.505H182.115V264.896H178.662V261.505Z" fill="#B3B3B3"/>
<path d="M178.662 137.187H182.115V140.577H178.662V137.187Z" fill="#B3B3B3"/>
<path d="M191.324 261.505H194.777V264.896H191.324V261.505Z" fill="#B3B3B3"/>
<path d="M191.324 137.187H194.777V140.577H191.324V137.187Z" fill="#B3B3B3"/>
<path d="M203.986 261.505H207.439V264.896H203.986V261.505Z" fill="#B3B3B3"/>
<path d="M203.986 137.187H207.439V140.577H203.986V137.187Z" fill="#B3B3B3"/>
<path d="M216.647 261.505H220.101V264.896H216.647V261.505Z" fill="#B3B3B3"/>
<path d="M216.647 137.187H220.101V140.577H216.647V137.187Z" fill="#B3B3B3"/>
<path d="M229.309 261.505H232.762V264.896H229.309V261.505Z" fill="#B3B3B3"/>
<path d="M229.309 137.187H232.762V140.577H229.309V137.187Z" fill="#B3B3B3"/>
<path d="M241.971 261.505H245.424V264.896H241.971V261.505Z" fill="#B3B3B3"/>
<path d="M241.971 137.187H245.424V140.577H241.971V137.187Z" fill="#B3B3B3"/>
<path d="M254.633 261.505H258.086V264.896H254.633V261.505Z" fill="#B3B3B3"/>
<path d="M254.633 137.187H258.086V140.577H254.633V137.187Z" fill="#B3B3B3"/>
<path d="M267.295 261.505H270.748V264.896H267.295V261.505Z" fill="#B3B3B3"/>
<path d="M267.295 137.187H270.748V140.577H267.295V137.187Z" fill="#B3B3B3"/>
<path d="M279.957 261.505H283.41V264.896H279.957V261.505Z" fill="#B3B3B3"/>
<path d="M279.957 137.187H283.41V140.577H279.957V137.187Z" fill="#B3B3B3"/>
<path d="M292.618 261.505H296.072V264.896H292.618V261.505Z" fill="#B3B3B3"/>
<path d="M292.618 137.187H296.072V140.577H292.618V137.187Z" fill="#B3B3B3"/>
<path d="M305.28 261.505H308.734V264.896H305.28V261.505Z" fill="#B3B3B3"/>
<path d="M305.28 137.187H308.734V140.577H305.28V137.187Z" fill="#B3B3B3"/>
<path d="M317.942 261.505H321.395V264.896H317.942V261.505Z" fill="#B3B3B3"/>
<path d="M317.942 137.187H321.395V140.577H317.942V137.187Z" fill="#B3B3B3"/>
<path d="M330.604 261.505H334.057V264.896H330.604V261.505Z" fill="#B3B3B3"/>
<path d="M330.604 137.187H334.057V140.577H330.604V137.187Z" fill="#B3B3B3"/>
<path d="M343.266 261.505H346.719V264.896H343.266V261.505Z" fill="#B3B3B3"/>
<path d="M343.266 137.187H346.719V140.577H343.266V137.187Z" fill="#B3B3B3"/>
<path d="M355.928 261.505H359.381V264.896H355.928V261.505Z" fill="#B3B3B3"/>
<path d="M355.928 137.187H359.381V140.577H355.928V137.187Z" fill="#B3B3B3"/>
<path d="M368.59 261.505H372.043V264.896H368.59V261.505Z" fill="#B3B3B3"/>
<path d="M368.59 137.187H372.043V140.577H368.59V137.187Z" fill="#B3B3B3"/>
<path d="M381.251 261.505H384.705V264.896H381.251V261.505Z" fill="#B3B3B3"/>
<path d="M381.251 137.187H384.705V140.577H381.251V137.187Z" fill="#B3B3B3"/>
<path d="M393.913 261.505H397.367V264.896H393.913V261.505Z" fill="#B3B3B3"/>
<path d="M393.913 137.187H397.367V140.577H393.913V137.187Z" fill="#B3B3B3"/>
<path d="M406.575 261.505H410.028V264.896H406.575V261.505Z" fill="#B3B3B3"/>
<path d="M406.575 137.187H410.028V140.577H406.575V137.187Z" fill="#B3B3B3"/>
<path d="M166 272.807H169.453V276.197H166V272.807Z" fill="#B3B3B3"/>
<path d="M166 148.488H169.453V151.879H166V148.488Z" fill="#B3B3B3"/>
<path d="M178.662 272.807H182.115V276.197H178.662V272.807Z" fill="#B3B3B3"/>
<path d="M178.662 148.488H182.115V151.879H178.662V148.488Z" fill="#B3B3B3"/>
<path d="M191.324 272.807H194.777V276.197H191.324V272.807Z" fill="#B3B3B3"/>
<path d="M191.324 148.488H194.777V151.879H191.324V148.488Z" fill="#B3B3B3"/>
<path d="M203.986 272.807H207.439V276.197H203.986V272.807Z" fill="#B3B3B3"/>
<path d="M203.986 148.488H207.439V151.879H203.986V148.488Z" fill="#B3B3B3"/>
<path d="M216.647 272.807H220.101V276.197H216.647V272.807Z" fill="#B3B3B3"/>
<path d="M216.647 148.488H220.101V151.879H216.647V148.488Z" fill="#B3B3B3"/>
<path d="M229.309 272.807H232.762V276.197H229.309V272.807Z" fill="#B3B3B3"/>
<path d="M229.309 148.488H232.762V151.879H229.309V148.488Z" fill="#B3B3B3"/>
<path d="M241.971 272.807H245.424V276.197H241.971V272.807Z" fill="#B3B3B3"/>
<path d="M241.971 148.488H245.424V151.879H241.971V148.488Z" fill="#B3B3B3"/>
<path d="M254.633 272.807H258.086V276.197H254.633V272.807Z" fill="#B3B3B3"/>
<path d="M254.633 148.488H258.086V151.879H254.633V148.488Z" fill="#B3B3B3"/>
<path d="M267.295 272.807H270.748V276.197H267.295V272.807Z" fill="#B3B3B3"/>
<path d="M267.295 148.488H270.748V151.879H267.295V148.488Z" fill="#B3B3B3"/>
<path d="M279.957 272.807H283.41V276.197H279.957V272.807Z" fill="#B3B3B3"/>
<path d="M279.957 148.488H283.41V151.879H279.957V148.488Z" fill="#B3B3B3"/>
<path d="M292.618 272.807H296.072V276.197H292.618V272.807Z" fill="#B3B3B3"/>
<path d="M292.618 148.488H296.072V151.879H292.618V148.488Z" fill="#B3B3B3"/>
<path d="M305.28 272.807H308.734V276.197H305.28V272.807Z" fill="#B3B3B3"/>
<path d="M305.28 148.488H308.734V151.879H305.28V148.488Z" fill="#B3B3B3"/>
<path d="M317.942 272.807H321.395V276.197H317.942V272.807Z" fill="#B3B3B3"/>
<path d="M317.942 148.488H321.395V151.879H317.942V148.488Z" fill="#B3B3B3"/>
<path d="M330.604 272.807H334.057V276.197H330.604V272.807Z" fill="#B3B3B3"/>
<path d="M330.604 148.488H334.057V151.879H330.604V148.488Z" fill="#B3B3B3"/>
<path d="M343.266 272.807H346.719V276.197H343.266V272.807Z" fill="#B3B3B3"/>
<path d="M343.266 148.488H346.719V151.879H343.266V148.488Z" fill="#B3B3B3"/>
<path d="M355.928 272.807H359.381V276.197H355.928V272.807Z" fill="#B3B3B3"/>
<path d="M355.928 148.488H359.381V151.879H355.928V148.488Z" fill="#B3B3B3"/>
<path d="M368.59 272.807H372.043V276.197H368.59V272.807Z" fill="#B3B3B3"/>
<path d="M368.59 148.488H372.043V151.879H368.59V148.488Z" fill="#B3B3B3"/>
<path d="M381.251 272.807H384.705V276.197H381.251V272.807Z" fill="#B3B3B3"/>
<path d="M381.251 148.488H384.705V151.879H381.251V148.488Z" fill="#B3B3B3"/>
<path d="M393.913 272.807H397.367V276.197H393.913V272.807Z" fill="#B3B3B3"/>
<path d="M393.913 148.488H397.367V151.879H393.913V148.488Z" fill="#B3B3B3"/>
<path d="M406.575 272.807H410.028V276.197H406.575V272.807Z" fill="#B3B3B3"/>
<path d="M406.575 148.488H410.028V151.879H406.575V148.488Z" fill="#B3B3B3"/>
<path d="M166 284.108H169.453V287.499H166V284.108Z" fill="#B3B3B3"/>
<path d="M166 159.79H169.453V163.181H166V159.79Z" fill="#B3B3B3"/>
<path d="M178.662 284.108H182.115V287.499H178.662V284.108Z" fill="#B3B3B3"/>
<path d="M178.662 159.79H182.115V163.181H178.662V159.79Z" fill="#B3B3B3"/>
<path d="M191.324 284.108H194.777V287.499H191.324V284.108Z" fill="#B3B3B3"/>
<path d="M191.324 159.79H194.777V163.181H191.324V159.79Z" fill="#B3B3B3"/>
<path d="M203.986 284.108H207.439V287.499H203.986V284.108Z" fill="#B3B3B3"/>
<path d="M203.986 159.79H207.439V163.181H203.986V159.79Z" fill="#B3B3B3"/>
<path d="M216.647 284.108H220.101V287.499H216.647V284.108Z" fill="#B3B3B3"/>
<path d="M216.647 159.79H220.101V163.181H216.647V159.79Z" fill="#B3B3B3"/>
<path d="M229.309 284.108H232.762V287.499H229.309V284.108Z" fill="#B3B3B3"/>
<path d="M229.309 159.79H232.762V163.181H229.309V159.79Z" fill="#B3B3B3"/>
<path d="M241.971 284.108H245.424V287.499H241.971V284.108Z" fill="#B3B3B3"/>
<path d="M241.971 159.79H245.424V163.181H241.971V159.79Z" fill="#B3B3B3"/>
<path d="M254.633 284.108H258.086V287.499H254.633V284.108Z" fill="#B3B3B3"/>
<path d="M254.633 159.79H258.086V163.181H254.633V159.79Z" fill="#B3B3B3"/>
<path d="M267.295 284.108H270.748V287.499H267.295V284.108Z" fill="#B3B3B3"/>
<path d="M267.295 159.79H270.748V163.181H267.295V159.79Z" fill="#B3B3B3"/>
<path d="M279.957 284.108H283.41V287.499H279.957V284.108Z" fill="#B3B3B3"/>
<path d="M279.957 159.79H283.41V163.181H279.957V159.79Z" fill="#B3B3B3"/>
<path d="M292.618 284.108H296.072V287.499H292.618V284.108Z" fill="#B3B3B3"/>
<path d="M292.618 159.79H296.072V163.181H292.618V159.79Z" fill="#B3B3B3"/>
<path d="M305.28 284.108H308.734V287.499H305.28V284.108Z" fill="#B3B3B3"/>
<path d="M305.28 159.79H308.734V163.181H305.28V159.79Z" fill="#B3B3B3"/>
<path d="M317.942 284.108H321.395V287.499H317.942V284.108Z" fill="#B3B3B3"/>
<path d="M317.942 159.79H321.395V163.181H317.942V159.79Z" fill="#B3B3B3"/>
<path d="M330.604 284.108H334.057V287.499H330.604V284.108Z" fill="#B3B3B3"/>
<path d="M330.604 159.79H334.057V163.181H330.604V159.79Z" fill="#B3B3B3"/>
<path d="M343.266 284.108H346.719V287.499H343.266V284.108Z" fill="#B3B3B3"/>
<path d="M343.266 159.79H346.719V163.181H343.266V159.79Z" fill="#B3B3B3"/>
<path d="M355.928 284.108H359.381V287.499H355.928V284.108Z" fill="#B3B3B3"/>
<path d="M355.928 159.79H359.381V163.181H355.928V159.79Z" fill="#B3B3B3"/>
<path d="M368.59 284.108H372.043V287.499H368.59V284.108Z" fill="#B3B3B3"/>
<path d="M368.59 159.79H372.043V163.181H368.59V159.79Z" fill="#B3B3B3"/>
<path d="M381.251 284.108H384.705V287.499H381.251V284.108Z" fill="#B3B3B3"/>
<path d="M381.251 159.79H384.705V163.181H381.251V159.79Z" fill="#B3B3B3"/>
<path d="M393.913 284.108H397.367V287.499H393.913V284.108Z" fill="#B3B3B3"/>
<path d="M393.913 159.79H397.367V163.181H393.913V159.79Z" fill="#B3B3B3"/>
<path d="M406.575 284.108H410.028V287.499H406.575V284.108Z" fill="#B3B3B3"/>
<path d="M406.575 159.79H410.028V163.181H406.575V159.79Z" fill="#B3B3B3"/>
<path d="M166 295.41H169.453V298.801H166V295.41Z" fill="#B3B3B3"/>
<path d="M166 171.092H169.453V174.482H166V171.092Z" fill="#B3B3B3"/>
<path d="M178.662 295.41H182.115V298.801H178.662V295.41Z" fill="#B3B3B3"/>
<path d="M178.662 171.092H182.115V174.482H178.662V171.092Z" fill="#B3B3B3"/>
<path d="M191.324 295.41H194.777V298.801H191.324V295.41Z" fill="#B3B3B3"/>
<path d="M191.324 171.092H194.777V174.482H191.324V171.092Z" fill="#B3B3B3"/>
<path d="M203.986 295.41H207.439V298.801H203.986V295.41Z" fill="#B3B3B3"/>
<path d="M203.986 171.092H207.439V174.482H203.986V171.092Z" fill="#B3B3B3"/>
<path d="M216.647 295.41H220.101V298.801H216.647V295.41Z" fill="#B3B3B3"/>
<path d="M216.647 171.092H220.101V174.482H216.647V171.092Z" fill="#B3B3B3"/>
<path d="M229.309 295.41H232.762V298.801H229.309V295.41Z" fill="#B3B3B3"/>
<path d="M229.309 171.092H232.762V174.482H229.309V171.092Z" fill="#B3B3B3"/>
<path d="M241.971 295.41H245.424V298.801H241.971V295.41Z" fill="#B3B3B3"/>
<path d="M241.971 171.092H245.424V174.482H241.971V171.092Z" fill="#B3B3B3"/>
<path d="M254.633 295.41H258.086V298.801H254.633V295.41Z" fill="#B3B3B3"/>
<path d="M254.633 171.092H258.086V174.482H254.633V171.092Z" fill="#B3B3B3"/>
<path d="M267.295 295.41H270.748V298.801H267.295V295.41Z" fill="#B3B3B3"/>
<path d="M267.295 171.092H270.748V174.482H267.295V171.092Z" fill="#B3B3B3"/>
<path d="M279.957 295.41H283.41V298.801H279.957V295.41Z" fill="#B3B3B3"/>
<path d="M279.957 171.092H283.41V174.482H279.957V171.092Z" fill="#B3B3B3"/>
<path d="M292.618 295.41H296.072V298.801H292.618V295.41Z" fill="#B3B3B3"/>
<path d="M292.618 171.092H296.072V174.482H292.618V171.092Z" fill="#B3B3B3"/>
<path d="M305.28 295.41H308.734V298.801H305.28V295.41Z" fill="#B3B3B3"/>
<path d="M305.28 171.092H308.734V174.482H305.28V171.092Z" fill="#B3B3B3"/>
<path d="M317.942 295.41H321.395V298.801H317.942V295.41Z" fill="#B3B3B3"/>
<path d="M317.942 171.092H321.395V174.482H317.942V171.092Z" fill="#B3B3B3"/>
<path d="M330.604 295.41H334.057V298.801H330.604V295.41Z" fill="#B3B3B3"/>
<path d="M330.604 171.092H334.057V174.482H330.604V171.092Z" fill="#B3B3B3"/>
<path d="M343.266 295.41H346.719V298.801H343.266V295.41Z" fill="#B3B3B3"/>
<path d="M343.266 171.092H346.719V174.482H343.266V171.092Z" fill="#B3B3B3"/>
<path d="M355.928 295.41H359.381V298.801H355.928V295.41Z" fill="#B3B3B3"/>
<path d="M355.928 171.092H359.381V174.482H355.928V171.092Z" fill="#B3B3B3"/>
<path d="M368.59 295.41H372.043V298.801H368.59V295.41Z" fill="#B3B3B3"/>
<path d="M368.59 171.092H372.043V174.482H368.59V171.092Z" fill="#B3B3B3"/>
<path d="M381.251 295.41H384.705V298.801H381.251V295.41Z" fill="#B3B3B3"/>
<path d="M381.251 171.092H384.705V174.482H381.251V171.092Z" fill="#B3B3B3"/>
<path d="M393.913 295.41H397.367V298.801H393.913V295.41Z" fill="#B3B3B3"/>
<path d="M393.913 171.092H397.367V174.482H393.913V171.092Z" fill="#B3B3B3"/>
<path d="M406.575 295.41H410.028V298.801H406.575V295.41Z" fill="#B3B3B3"/>
<path d="M406.575 171.092H410.028V174.482H406.575V171.092Z" fill="#B3B3B3"/>
<path d="M166 306.712H169.453V310.102H166V306.712Z" fill="#B3B3B3"/>
<path d="M166 182.393H169.453V185.784H166V182.393Z" fill="#B3B3B3"/>
<path d="M178.662 306.712H182.115V310.102H178.662V306.712Z" fill="#B3B3B3"/>
<path d="M178.662 182.393H182.115V185.784H178.662V182.393Z" fill="#B3B3B3"/>
<path d="M191.324 306.712H194.777V310.102H191.324V306.712Z" fill="#B3B3B3"/>
<path d="M191.324 182.393H194.777V185.784H191.324V182.393Z" fill="#B3B3B3"/>
<path d="M203.986 306.712H207.439V310.102H203.986V306.712Z" fill="#B3B3B3"/>
<path d="M203.986 182.393H207.439V185.784H203.986V182.393Z" fill="#B3B3B3"/>
<path d="M216.647 306.712H220.101V310.102H216.647V306.712Z" fill="#B3B3B3"/>
<path d="M216.647 182.393H220.101V185.784H216.647V182.393Z" fill="#B3B3B3"/>
<path d="M229.309 306.712H232.762V310.102H229.309V306.712Z" fill="#B3B3B3"/>
<path d="M229.309 182.393H232.762V185.784H229.309V182.393Z" fill="#B3B3B3"/>
<path d="M241.971 306.712H245.424V310.102H241.971V306.712Z" fill="#B3B3B3"/>
<path d="M241.971 182.393H245.424V185.784H241.971V182.393Z" fill="#B3B3B3"/>
<path d="M254.633 306.712H258.086V310.102H254.633V306.712Z" fill="#B3B3B3"/>
<path d="M254.633 182.393H258.086V185.784H254.633V182.393Z" fill="#B3B3B3"/>
<path d="M267.295 306.712H270.748V310.102H267.295V306.712Z" fill="#B3B3B3"/>
<path d="M267.295 182.393H270.748V185.784H267.295V182.393Z" fill="#B3B3B3"/>
<path d="M279.957 306.712H283.41V310.102H279.957V306.712Z" fill="#B3B3B3"/>
<path d="M279.957 182.393H283.41V185.784H279.957V182.393Z" fill="#B3B3B3"/>
<path d="M292.618 306.712H296.072V310.102H292.618V306.712Z" fill="#B3B3B3"/>
<path d="M292.618 182.393H296.072V185.784H292.618V182.393Z" fill="#B3B3B3"/>
<path d="M305.28 306.712H308.734V310.102H305.28V306.712Z" fill="#B3B3B3"/>
<path d="M305.28 182.393H308.734V185.784H305.28V182.393Z" fill="#B3B3B3"/>
<path d="M317.942 306.712H321.395V310.102H317.942V306.712Z" fill="#B3B3B3"/>
<path d="M317.942 182.393H321.395V185.784H317.942V182.393Z" fill="#B3B3B3"/>
<path d="M330.604 306.712H334.057V310.102H330.604V306.712Z" fill="#B3B3B3"/>
<path d="M330.604 182.393H334.057V185.784H330.604V182.393Z" fill="#B3B3B3"/>
<path d="M343.266 306.712H346.719V310.102H343.266V306.712Z" fill="#B3B3B3"/>
<path d="M343.266 182.393H346.719V185.784H343.266V182.393Z" fill="#B3B3B3"/>
<path d="M355.928 306.712H359.381V310.102H355.928V306.712Z" fill="#B3B3B3"/>
<path d="M355.928 182.393H359.381V185.784H355.928V182.393Z" fill="#B3B3B3"/>
<path d="M368.59 306.712H372.043V310.102H368.59V306.712Z" fill="#B3B3B3"/>
<path d="M368.59 182.393H372.043V185.784H368.59V182.393Z" fill="#B3B3B3"/>
<path d="M381.251 306.712H384.705V310.102H381.251V306.712Z" fill="#B3B3B3"/>
<path d="M381.251 182.393H384.705V185.784H381.251V182.393Z" fill="#B3B3B3"/>
<path d="M393.913 306.712H397.367V310.102H393.913V306.712Z" fill="#B3B3B3"/>
<path d="M393.913 182.393H397.367V185.784H393.913V182.393Z" fill="#B3B3B3"/>
<path d="M406.575 306.712H410.028V310.102H406.575V306.712Z" fill="#B3B3B3"/>
<path d="M406.575 182.393H410.028V185.784H406.575V182.393Z" fill="#B3B3B3"/>
<path d="M166 318.013H169.453V321.404H166V318.013Z" fill="#B3B3B3"/>
<path d="M166 193.695H169.453V197.086H166V193.695Z" fill="#B3B3B3"/>
<path d="M178.662 318.013H182.115V321.404H178.662V318.013Z" fill="#B3B3B3"/>
<path d="M178.662 193.695H182.115V197.086H178.662V193.695Z" fill="#B3B3B3"/>
<path d="M191.324 318.013H194.777V321.404H191.324V318.013Z" fill="#B3B3B3"/>
<path d="M191.324 193.695H194.777V197.086H191.324V193.695Z" fill="#B3B3B3"/>
<path d="M203.986 318.013H207.439V321.404H203.986V318.013Z" fill="#B3B3B3"/>
<path d="M203.986 193.695H207.439V197.086H203.986V193.695Z" fill="#B3B3B3"/>
<path d="M216.647 318.013H220.101V321.404H216.647V318.013Z" fill="#B3B3B3"/>
<path d="M216.647 193.695H220.101V197.086H216.647V193.695Z" fill="#B3B3B3"/>
<path d="M229.309 318.013H232.762V321.404H229.309V318.013Z" fill="#B3B3B3"/>
<path d="M229.309 193.695H232.762V197.086H229.309V193.695Z" fill="#B3B3B3"/>
<path d="M241.971 318.013H245.424V321.404H241.971V318.013Z" fill="#B3B3B3"/>
<path d="M241.971 193.695H245.424V197.086H241.971V193.695Z" fill="#B3B3B3"/>
<path d="M254.633 318.013H258.086V321.404H254.633V318.013Z" fill="#B3B3B3"/>
<path d="M254.633 193.695H258.086V197.086H254.633V193.695Z" fill="#B3B3B3"/>
<path d="M267.295 318.013H270.748V321.404H267.295V318.013Z" fill="#B3B3B3"/>
<path d="M267.295 193.695H270.748V197.086H267.295V193.695Z" fill="#B3B3B3"/>
<path d="M279.957 318.013H283.41V321.404H279.957V318.013Z" fill="#B3B3B3"/>
<path d="M279.957 193.695H283.41V197.086H279.957V193.695Z" fill="#B3B3B3"/>
<path d="M292.618 318.013H296.072V321.404H292.618V318.013Z" fill="#B3B3B3"/>
<path d="M292.618 193.695H296.072V197.086H292.618V193.695Z" fill="#B3B3B3"/>
<path d="M305.28 318.013H308.734V321.404H305.28V318.013Z" fill="#B3B3B3"/>
<path d="M305.28 193.695H308.734V197.086H305.28V193.695Z" fill="#B3B3B3"/>
<path d="M317.942 318.013H321.395V321.404H317.942V318.013Z" fill="#B3B3B3"/>
<path d="M317.942 193.695H321.395V197.086H317.942V193.695Z" fill="#B3B3B3"/>
<path d="M330.604 318.013H334.057V321.404H330.604V318.013Z" fill="#B3B3B3"/>
<path d="M330.604 193.695H334.057V197.086H330.604V193.695Z" fill="#B3B3B3"/>
<path d="M343.266 318.013H346.719V321.404H343.266V318.013Z" fill="#B3B3B3"/>
<path d="M343.266 193.695H346.719V197.086H343.266V193.695Z" fill="#B3B3B3"/>
<path d="M355.928 318.013H359.381V321.404H355.928V318.013Z" fill="#B3B3B3"/>
<path d="M355.928 193.695H359.381V197.086H355.928V193.695Z" fill="#B3B3B3"/>
<path d="M368.59 318.013H372.043V321.404H368.59V318.013Z" fill="#B3B3B3"/>
<path d="M368.59 193.695H372.043V197.086H368.59V193.695Z" fill="#B3B3B3"/>
<path d="M381.251 318.013H384.705V321.404H381.251V318.013Z" fill="#B3B3B3"/>
<path d="M381.251 193.695H384.705V197.086H381.251V193.695Z" fill="#B3B3B3"/>
<path d="M393.913 318.013H397.367V321.404H393.913V318.013Z" fill="#B3B3B3"/>
<path d="M393.913 193.695H397.367V197.086H393.913V193.695Z" fill="#B3B3B3"/>
<path d="M406.575 318.013H410.028V321.404H406.575V318.013Z" fill="#B3B3B3"/>
<path d="M406.575 193.695H410.028V197.086H406.575V193.695Z" fill="#B3B3B3"/>
<path d="M166 329.315H169.453V332.706H166V329.315Z" fill="#B3B3B3"/>
<path d="M166 204.997H169.453V208.387H166V204.997Z" fill="#B3B3B3"/>
<path d="M178.662 329.315H182.115V332.706H178.662V329.315Z" fill="#B3B3B3"/>
<path d="M178.662 204.997H182.115V208.387H178.662V204.997Z" fill="#B3B3B3"/>
<path d="M191.324 329.315H194.777V332.706H191.324V329.315Z" fill="#B3B3B3"/>
<path d="M191.324 204.997H194.777V208.387H191.324V204.997Z" fill="#B3B3B3"/>
<path d="M203.986 329.315H207.439V332.706H203.986V329.315Z" fill="#B3B3B3"/>
<path d="M203.986 204.997H207.439V208.387H203.986V204.997Z" fill="#B3B3B3"/>
<path d="M216.647 329.315H220.101V332.706H216.647V329.315Z" fill="#B3B3B3"/>
<path d="M216.647 204.997H220.101V208.387H216.647V204.997Z" fill="#B3B3B3"/>
<path d="M229.309 329.315H232.762V332.706H229.309V329.315Z" fill="#B3B3B3"/>
<path d="M229.309 204.997H232.762V208.387H229.309V204.997Z" fill="#B3B3B3"/>
<path d="M241.971 329.315H245.424V332.706H241.971V329.315Z" fill="#B3B3B3"/>
<path d="M241.971 204.997H245.424V208.387H241.971V204.997Z" fill="#B3B3B3"/>
<path d="M254.633 329.315H258.086V332.706H254.633V329.315Z" fill="#B3B3B3"/>
<path d="M254.633 204.997H258.086V208.387H254.633V204.997Z" fill="#B3B3B3"/>
<path d="M267.295 329.315H270.748V332.706H267.295V329.315Z" fill="#B3B3B3"/>
<path d="M267.295 204.997H270.748V208.387H267.295V204.997Z" fill="#B3B3B3"/>
<path d="M279.957 329.315H283.41V332.706H279.957V329.315Z" fill="#B3B3B3"/>
<path d="M279.957 204.997H283.41V208.387H279.957V204.997Z" fill="#B3B3B3"/>
<path d="M292.618 329.315H296.072V332.706H292.618V329.315Z" fill="#B3B3B3"/>
<path d="M292.618 204.997H296.072V208.387H292.618V204.997Z" fill="#B3B3B3"/>
<path d="M305.28 329.315H308.734V332.706H305.28V329.315Z" fill="#B3B3B3"/>
<path d="M305.28 204.997H308.734V208.387H305.28V204.997Z" fill="#B3B3B3"/>
<path d="M317.942 329.315H321.395V332.706H317.942V329.315Z" fill="#B3B3B3"/>
<path d="M317.942 204.997H321.395V208.387H317.942V204.997Z" fill="#B3B3B3"/>
<path d="M330.604 329.315H334.057V332.706H330.604V329.315Z" fill="#B3B3B3"/>
<path d="M330.604 204.997H334.057V208.387H330.604V204.997Z" fill="#B3B3B3"/>
<path d="M343.266 329.315H346.719V332.706H343.266V329.315Z" fill="#B3B3B3"/>
<path d="M343.266 204.997H346.719V208.387H343.266V204.997Z" fill="#B3B3B3"/>
<path d="M355.928 329.315H359.381V332.706H355.928V329.315Z" fill="#B3B3B3"/>
<path d="M355.928 204.997H359.381V208.387H355.928V204.997Z" fill="#B3B3B3"/>
<path d="M368.59 329.315H372.043V332.706H368.59V329.315Z" fill="#B3B3B3"/>
<path d="M368.59 204.997H372.043V208.387H368.59V204.997Z" fill="#B3B3B3"/>
<path d="M381.251 329.315H384.705V332.706H381.251V329.315Z" fill="#B3B3B3"/>
<path d="M381.251 204.997H384.705V208.387H381.251V204.997Z" fill="#B3B3B3"/>
<path d="M393.913 329.315H397.367V332.706H393.913V329.315Z" fill="#B3B3B3"/>
<path d="M393.913 204.997H397.367V208.387H393.913V204.997Z" fill="#B3B3B3"/>
<path d="M406.575 329.315H410.028V332.706H406.575V329.315Z" fill="#B3B3B3"/>
<path d="M406.575 204.997H410.028V208.387H406.575V204.997Z" fill="#B3B3B3"/>
<path d="M166 340.617H169.453V344.007H166V340.617Z" fill="#B3B3B3"/>
<path d="M166 216.298H169.453V219.689H166V216.298Z" fill="#B3B3B3"/>
<path d="M178.662 340.617H182.115V344.007H178.662V340.617Z" fill="#B3B3B3"/>
<path d="M178.662 216.298H182.115V219.689H178.662V216.298Z" fill="#B3B3B3"/>
<path d="M191.324 340.617H194.777V344.007H191.324V340.617Z" fill="#B3B3B3"/>
<path d="M191.324 216.298H194.777V219.689H191.324V216.298Z" fill="#B3B3B3"/>
<path d="M203.986 340.617H207.439V344.007H203.986V340.617Z" fill="#B3B3B3"/>
<path d="M203.986 216.298H207.439V219.689H203.986V216.298Z" fill="#B3B3B3"/>
<path d="M216.647 340.617H220.101V344.007H216.647V340.617Z" fill="#B3B3B3"/>
<path d="M216.647 216.298H220.101V219.689H216.647V216.298Z" fill="#B3B3B3"/>
<path d="M229.309 340.617H232.762V344.007H229.309V340.617Z" fill="#B3B3B3"/>
<path d="M229.309 216.298H232.762V219.689H229.309V216.298Z" fill="#B3B3B3"/>
<path d="M241.971 340.617H245.424V344.007H241.971V340.617Z" fill="#B3B3B3"/>
<path d="M241.971 216.298H245.424V219.689H241.971V216.298Z" fill="#B3B3B3"/>
<path d="M254.633 340.617H258.086V344.007H254.633V340.617Z" fill="#B3B3B3"/>
<path d="M254.633 216.298H258.086V219.689H254.633V216.298Z" fill="#B3B3B3"/>
<path d="M267.295 340.617H270.748V344.007H267.295V340.617Z" fill="#B3B3B3"/>
<path d="M267.295 216.298H270.748V219.689H267.295V216.298Z" fill="#B3B3B3"/>
<path d="M279.957 340.617H283.41V344.007H279.957V340.617Z" fill="#B3B3B3"/>
<path d="M279.957 216.298H283.41V219.689H279.957V216.298Z" fill="#B3B3B3"/>
<path d="M292.618 340.617H296.072V344.007H292.618V340.617Z" fill="#B3B3B3"/>
<path d="M292.618 216.298H296.072V219.689H292.618V216.298Z" fill="#B3B3B3"/>
<path d="M305.28 340.617H308.734V344.007H305.28V340.617Z" fill="#B3B3B3"/>
<path d="M305.28 216.298H308.734V219.689H305.28V216.298Z" fill="#B3B3B3"/>
<path d="M317.942 340.617H321.395V344.007H317.942V340.617Z" fill="#B3B3B3"/>
<path d="M317.942 216.298H321.395V219.689H317.942V216.298Z" fill="#B3B3B3"/>
<path d="M330.604 340.617H334.057V344.007H330.604V340.617Z" fill="#B3B3B3"/>
<path d="M330.604 216.298H334.057V219.689H330.604V216.298Z" fill="#B3B3B3"/>
<path d="M343.266 340.617H346.719V344.007H343.266V340.617Z" fill="#B3B3B3"/>
<path d="M343.266 216.298H346.719V219.689H343.266V216.298Z" fill="#B3B3B3"/>
<path d="M355.928 340.617H359.381V344.007H355.928V340.617Z" fill="#B3B3B3"/>
<path d="M355.928 216.298H359.381V219.689H355.928V216.298Z" fill="#B3B3B3"/>
<path d="M368.59 340.617H372.043V344.007H368.59V340.617Z" fill="#B3B3B3"/>
<path d="M368.59 216.298H372.043V219.689H368.59V216.298Z" fill="#B3B3B3"/>
<path d="M381.251 340.617H384.705V344.007H381.251V340.617Z" fill="#B3B3B3"/>
<path d="M381.251 216.298H384.705V219.689H381.251V216.298Z" fill="#B3B3B3"/>
<path d="M393.913 340.617H397.367V344.007H393.913V340.617Z" fill="#B3B3B3"/>
<path d="M393.913 216.298H397.367V219.689H393.913V216.298Z" fill="#B3B3B3"/>
<path d="M406.575 340.617H410.028V344.007H406.575V340.617Z" fill="#B3B3B3"/>
<path d="M406.575 216.298H410.028V219.689H406.575V216.298Z" fill="#B3B3B3"/>
<path d="M166 351.918H169.453V355.309H166V351.918Z" fill="#B3B3B3"/>
<path d="M166 227.6H169.453V230.991H166V227.6Z" fill="#B3B3B3"/>
<path d="M178.662 351.918H182.115V355.309H178.662V351.918Z" fill="#B3B3B3"/>
<path d="M178.662 227.6H182.115V230.991H178.662V227.6Z" fill="#B3B3B3"/>
<path d="M191.324 351.918H194.777V355.309H191.324V351.918Z" fill="#B3B3B3"/>
<path d="M191.324 227.6H194.777V230.991H191.324V227.6Z" fill="#B3B3B3"/>
<path d="M203.986 351.918H207.439V355.309H203.986V351.918Z" fill="#B3B3B3"/>
<path d="M203.986 227.6H207.439V230.991H203.986V227.6Z" fill="#B3B3B3"/>
<path d="M216.647 351.918H220.101V355.309H216.647V351.918Z" fill="#B3B3B3"/>
<path d="M216.647 227.6H220.101V230.991H216.647V227.6Z" fill="#B3B3B3"/>
<path d="M229.309 351.918H232.762V355.309H229.309V351.918Z" fill="#B3B3B3"/>
<path d="M229.309 227.6H232.762V230.991H229.309V227.6Z" fill="#B3B3B3"/>
<path d="M241.971 351.918H245.424V355.309H241.971V351.918Z" fill="#B3B3B3"/>
<path d="M241.971 227.6H245.424V230.991H241.971V227.6Z" fill="#B3B3B3"/>
<path d="M254.633 351.918H258.086V355.309H254.633V351.918Z" fill="#B3B3B3"/>
<path d="M254.633 227.6H258.086V230.991H254.633V227.6Z" fill="#B3B3B3"/>
<path d="M267.295 351.918H270.748V355.309H267.295V351.918Z" fill="#B3B3B3"/>
<path d="M267.295 227.6H270.748V230.991H267.295V227.6Z" fill="#B3B3B3"/>
<path d="M279.957 351.918H283.41V355.309H279.957V351.918Z" fill="#B3B3B3"/>
<path d="M279.957 227.6H283.41V230.991H279.957V227.6Z" fill="#B3B3B3"/>
<path d="M292.618 351.918H296.072V355.309H292.618V351.918Z" fill="#B3B3B3"/>
<path d="M292.618 227.6H296.072V230.991H292.618V227.6Z" fill="#B3B3B3"/>
<path d="M305.28 351.918H308.734V355.309H305.28V351.918Z" fill="#B3B3B3"/>
<path d="M305.28 227.6H308.734V230.991H305.28V227.6Z" fill="#B3B3B3"/>
<path d="M317.942 351.918H321.395V355.309H317.942V351.918Z" fill="#B3B3B3"/>
<path d="M317.942 227.6H321.395V230.991H317.942V227.6Z" fill="#B3B3B3"/>
<path d="M330.604 351.918H334.057V355.309H330.604V351.918Z" fill="#B3B3B3"/>
<path d="M330.604 227.6H334.057V230.991H330.604V227.6Z" fill="#B3B3B3"/>
<path d="M343.266 351.918H346.719V355.309H343.266V351.918Z" fill="#B3B3B3"/>
<path d="M343.266 227.6H346.719V230.991H343.266V227.6Z" fill="#B3B3B3"/>
<path d="M355.928 351.918H359.381V355.309H355.928V351.918Z" fill="#B3B3B3"/>
<path d="M355.928 227.6H359.381V230.991H355.928V227.6Z" fill="#B3B3B3"/>
<path d="M368.59 351.918H372.043V355.309H368.59V351.918Z" fill="#B3B3B3"/>
<path d="M368.59 227.6H372.043V230.991H368.59V227.6Z" fill="#B3B3B3"/>
<path d="M381.251 351.918H384.705V355.309H381.251V351.918Z" fill="#B3B3B3"/>
<path d="M381.251 227.6H384.705V230.991H381.251V227.6Z" fill="#B3B3B3"/>
<path d="M393.913 351.918H397.367V355.309H393.913V351.918Z" fill="#B3B3B3"/>
<path d="M393.913 227.6H397.367V230.991H393.913V227.6Z" fill="#B3B3B3"/>
<path d="M406.575 351.918H410.028V355.309H406.575V351.918Z" fill="#B3B3B3"/>
<path d="M406.575 227.6H410.028V230.991H406.575V227.6Z" fill="#B3B3B3"/>
<path d="M166 363.22H169.453V366.611H166V363.22Z" fill="#B3B3B3"/>
<path d="M166 238.902H169.453V242.292H166V238.902Z" fill="#B3B3B3"/>
<path d="M178.662 363.22H182.115V366.611H178.662V363.22Z" fill="#B3B3B3"/>
<path d="M178.662 238.902H182.115V242.292H178.662V238.902Z" fill="#B3B3B3"/>
<path d="M191.324 363.22H194.777V366.611H191.324V363.22Z" fill="#B3B3B3"/>
<path d="M191.324 238.902H194.777V242.292H191.324V238.902Z" fill="#B3B3B3"/>
<path d="M203.986 363.22H207.439V366.611H203.986V363.22Z" fill="#B3B3B3"/>
<path d="M203.986 238.902H207.439V242.292H203.986V238.902Z" fill="#B3B3B3"/>
<path d="M216.647 363.22H220.101V366.611H216.647V363.22Z" fill="#B3B3B3"/>
<path d="M216.647 238.902H220.101V242.292H216.647V238.902Z" fill="#B3B3B3"/>
<path d="M229.309 363.22H232.762V366.611H229.309V363.22Z" fill="#B3B3B3"/>
<path d="M229.309 238.902H232.762V242.292H229.309V238.902Z" fill="#B3B3B3"/>
<path d="M241.971 363.22H245.424V366.611H241.971V363.22Z" fill="#B3B3B3"/>
<path d="M241.971 238.902H245.424V242.292H241.971V238.902Z" fill="#B3B3B3"/>
<path d="M254.633 363.22H258.086V366.611H254.633V363.22Z" fill="#B3B3B3"/>
<path d="M254.633 238.902H258.086V242.292H254.633V238.902Z" fill="#B3B3B3"/>
<path d="M267.295 363.22H270.748V366.611H267.295V363.22Z" fill="#B3B3B3"/>
<path d="M267.295 238.902H270.748V242.292H267.295V238.902Z" fill="#B3B3B3"/>
<path d="M279.957 363.22H283.41V366.611H279.957V363.22Z" fill="#B3B3B3"/>
<path d="M279.957 238.902H283.41V242.292H279.957V238.902Z" fill="#B3B3B3"/>
<path d="M292.618 363.22H296.072V366.611H292.618V363.22Z" fill="#B3B3B3"/>
<path d="M292.618 238.902H296.072V242.292H292.618V238.902Z" fill="#B3B3B3"/>
<path d="M305.28 363.22H308.734V366.611H305.28V363.22Z" fill="#B3B3B3"/>
<path d="M305.28 238.902H308.734V242.292H305.28V238.902Z" fill="#B3B3B3"/>
<path d="M317.942 363.22H321.395V366.611H317.942V363.22Z" fill="#B3B3B3"/>
<path d="M317.942 238.902H321.395V242.292H317.942V238.902Z" fill="#B3B3B3"/>
<path d="M330.604 363.22H334.057V366.611H330.604V363.22Z" fill="#B3B3B3"/>
<path d="M330.604 238.902H334.057V242.292H330.604V238.902Z" fill="#B3B3B3"/>
<path d="M343.266 363.22H346.719V366.611H343.266V363.22Z" fill="#B3B3B3"/>
<path d="M343.266 238.902H346.719V242.292H343.266V238.902Z" fill="#B3B3B3"/>
<path d="M355.928 363.22H359.381V366.611H355.928V363.22Z" fill="#B3B3B3"/>
<path d="M355.928 238.902H359.381V242.292H355.928V238.902Z" fill="#B3B3B3"/>
<path d="M368.59 363.22H372.043V366.611H368.59V363.22Z" fill="#B3B3B3"/>
<path d="M368.59 238.902H372.043V242.292H368.59V238.902Z" fill="#B3B3B3"/>
<path d="M381.251 363.22H384.705V366.611H381.251V363.22Z" fill="#B3B3B3"/>
<path d="M381.251 238.902H384.705V242.292H381.251V238.902Z" fill="#B3B3B3"/>
<path d="M393.913 363.22H397.367V366.611H393.913V363.22Z" fill="#B3B3B3"/>
<path d="M393.913 238.902H397.367V242.292H393.913V238.902Z" fill="#B3B3B3"/>
<path d="M406.575 363.22H410.028V366.611H406.575V363.22Z" fill="#B3B3B3"/>
<path d="M406.575 238.902H410.028V242.292H406.575V238.902Z" fill="#B3B3B3"/>
</g>
<path d="M311.532 271.998C313.605 264.459 319.544 258.522 327.082 256.448C330.54 255.497 333 252.446 333 248.857V118.571C333 114.984 330.54 111.933 327.082 110.981C319.543 108.907 313.605 102.969 311.532 95.431C310.58 91.9722 307.529 89.5125 303.941 89.5125H243.654L221.006 103.519L116.399 261.956L119.262 277.916H303.941C307.529 277.916 310.58 275.457 311.532 271.998Z" fill="#FFC854"/>
<path d="M327.082 110.981C319.543 108.908 313.605 102.97 311.532 95.4317C310.58 91.973 307.53 89.5132 303.941 89.5132H285.875C289.462 89.5132 292.513 91.973 293.465 95.4317C295.539 102.97 301.477 108.908 309.015 110.981C312.474 111.933 314.934 114.984 314.934 118.572V248.858C314.934 252.445 312.474 255.497 309.015 256.448C301.476 258.522 295.539 264.46 293.465 271.998C292.514 275.457 289.463 277.916 285.875 277.916H303.941C307.529 277.916 310.58 275.457 311.532 271.998C313.605 264.459 319.544 258.522 327.082 256.448C330.54 255.497 333 252.446 333 248.858V118.571C333 114.984 330.54 111.933 327.082 110.981Z" fill="#EBB748"/>
<path d="M29.0588 89.5125C25.4712 89.5125 22.4203 91.9722 21.4681 95.431C19.3946 102.97 13.4572 108.908 5.91855 110.981C2.45978 111.933 0 114.984 0 118.572V248.857C0 252.445 2.45978 255.497 5.91855 256.448C13.4572 258.522 19.3946 264.46 21.4681 271.998C22.4196 275.457 25.4706 277.916 29.0588 277.916H119.262L243.654 89.5125H29.0588Z" fill="#EB6258"/>
<path d="M225.196 89.5125L100.804 277.916H119.262L243.654 89.5125H225.196Z" fill="#DB5449"/>
<path d="M236.088 251.548C229.996 251.548 226.404 250.873 220.774 247.191C218.452 245.671 217.801 242.557 219.321 240.234C220.84 237.912 223.955 237.262 226.277 238.78C230.103 241.284 231.659 241.535 236.628 241.496C241.732 241.463 244.694 237.657 245.286 234.135C245.58 232.394 245.693 228.142 240.443 226.286C232.673 223.54 228.178 221.381 224.931 218.833C221.007 215.756 219.213 210.429 220.249 204.933C221.375 198.958 225.538 194.204 231.113 192.525C241.583 189.374 251.835 194.42 252.266 194.636C254.747 195.88 255.749 198.9 254.504 201.38C253.263 203.855 250.255 204.859 247.778 203.628C247.639 203.56 240.56 200.175 234.012 202.148C231.658 202.857 230.461 205.013 230.125 206.794C229.792 208.562 230.188 210.183 231.133 210.925C234.018 213.188 239.152 215.17 243.793 216.81C252.034 219.723 256.617 227.356 255.198 235.802C253.891 243.573 247.115 251.477 236.694 251.546C236.489 251.548 236.287 251.548 236.088 251.548Z" fill="#475762"/>
<path d="M236.661 258.807C233.885 258.807 231.636 256.558 231.636 253.782V189.886C231.636 187.11 233.886 184.861 236.661 184.861C239.436 184.861 241.686 187.111 241.686 189.886V253.782C241.686 256.558 239.436 258.807 236.661 258.807Z" fill="#475762"/>
<path d="M61.4132 176.232C60.7648 176.232 60.1059 176.106 59.4705 175.84C56.9112 174.765 55.7073 171.82 56.7811 169.261L77.141 120.748C78.2148 118.188 81.1617 116.985 83.7197 118.058C86.279 119.133 87.4828 122.078 86.409 124.637L66.0492 173.15C65.2421 175.074 63.3761 176.232 61.4132 176.232Z" fill="#ECF4FF"/>
<path d="M53.818 146.364C46.0868 146.364 39.7969 139.421 39.7969 130.886C39.7969 122.35 46.0868 115.406 53.818 115.406C61.5485 115.406 67.8385 122.35 67.8385 130.886C67.8385 139.421 61.5485 146.364 53.818 146.364ZM53.818 125.457C51.6652 125.457 49.8467 127.943 49.8467 130.886C49.8467 133.828 51.6652 136.314 53.818 136.314C55.9701 136.314 57.7886 133.828 57.7886 130.886C57.7886 127.943 55.9701 125.457 53.818 125.457Z" fill="#ECF4FF"/>
<path d="M88.7147 179.534C80.9835 179.534 74.6936 172.59 74.6936 164.054C74.6936 155.519 80.9835 148.575 88.7147 148.575C96.4459 148.575 102.736 155.519 102.736 164.054C102.736 172.59 96.4459 179.534 88.7147 179.534ZM88.7147 158.626C86.5619 158.626 84.7434 161.112 84.7434 164.054C84.7434 166.997 86.5619 169.483 88.7147 169.483C90.8675 169.483 92.686 166.997 92.686 164.054C92.686 161.112 90.8675 158.626 88.7147 158.626Z" fill="#ECF4FF"/>
<path d="M305.185 149.312H263.827C261.051 149.312 258.802 147.062 258.802 144.287C258.802 141.512 261.052 139.262 263.827 139.262H305.185C307.961 139.262 310.21 141.512 310.21 144.287C310.21 147.062 307.961 149.312 305.185 149.312Z" fill="#475762"/>
<path d="M305.185 168.721H250.427C247.651 168.721 245.402 166.471 245.402 163.696C245.402 160.921 247.652 158.671 250.427 158.671H305.185C307.961 158.671 310.21 160.921 310.21 163.696C310.21 166.471 307.961 168.721 305.185 168.721Z" fill="#475762"/>
<path d="M87.9583 223.671H44.8218C42.0459 223.671 39.7969 221.421 39.7969 218.646C39.7969 215.871 42.0466 213.621 44.8218 213.621H87.9583C90.7342 213.621 92.9832 215.871 92.9832 218.646C92.9832 221.421 90.7342 223.671 87.9583 223.671Z" fill="#ECF4FF"/>
<path d="M102.699 245.537H44.8218C42.0459 245.537 39.7969 243.288 39.7969 240.512C39.7969 237.737 42.0466 235.488 44.8218 235.488H102.699C105.475 235.488 107.724 237.737 107.724 240.512C107.724 243.288 105.475 245.537 102.699 245.537Z" fill="#ECF4FF"/>
<path d="M230.226 94.5401H200.606C189.729 94.5401 180.878 85.6896 180.878 74.8118C180.878 63.934 189.729 55.0835 200.606 55.0835H215.523C226.401 55.0835 235.251 63.934 235.251 74.8118V89.5152C235.251 92.291 233.001 94.5401 230.226 94.5401ZM200.606 65.134C195.269 65.134 190.928 69.4753 190.928 74.8118C190.928 80.1483 195.269 84.4896 200.606 84.4896H225.2V74.8118C225.2 69.4753 220.859 65.134 215.523 65.134H200.606Z" fill="#EBB748"/>
<path d="M259.845 94.5401H230.226C227.45 94.5401 225.201 92.2904 225.201 89.5152V74.8118C225.201 63.934 234.051 55.0835 244.929 55.0835H259.846C270.724 55.0835 279.574 63.934 279.574 74.8118C279.574 85.6896 270.723 94.5401 259.845 94.5401ZM235.251 84.4903H259.845C265.182 84.4903 269.523 80.1489 269.523 74.8124C269.523 69.476 265.182 65.1346 259.845 65.1346H244.929C239.592 65.1346 235.251 69.476 235.251 74.8124V84.4903Z" fill="#EBB748"/>
<path d="M198.277 131.181C195.794 131.181 193.636 129.342 193.301 126.814C192.938 124.063 194.874 121.537 197.625 121.173L203.102 120.45C204.416 120.276 205.543 119.515 206.195 118.361C206.847 117.207 206.917 115.849 206.388 114.635C203.722 108.518 205.607 101.475 210.971 97.5064L227.238 85.4749C229.47 83.8248 232.615 84.2957 234.267 86.5272C235.917 88.7587 235.446 91.9059 233.214 93.556L216.948 105.587C215.371 106.753 214.817 108.823 215.601 110.62C217.403 114.754 217.164 119.378 214.946 123.305C212.727 127.232 208.89 129.823 204.419 130.414L198.942 131.138C198.718 131.167 198.497 131.181 198.277 131.181Z" fill="#EBB748"/>
<path d="M262.174 131.181C261.955 131.181 261.733 131.167 261.51 131.138L256.033 130.414C251.561 129.823 247.724 127.232 245.506 123.304C243.288 119.377 243.048 114.752 244.851 110.618C245.634 108.821 245.08 106.752 243.504 105.586L227.237 93.5555C225.006 91.9054 224.535 88.7582 226.185 86.5267C227.835 84.2952 230.982 83.8243 233.214 85.4744L249.481 97.5053C254.846 101.475 256.73 108.518 254.064 114.634C253.535 115.849 253.605 117.208 254.257 118.361C254.908 119.515 256.035 120.276 257.35 120.449L262.827 121.173C265.578 121.537 267.513 124.062 267.151 126.813C266.816 129.341 264.656 131.181 262.174 131.181Z" fill="#EBB748"/>
<g clip-path="url(#clip1)">
<path d="M445.801 84.4723V39.5198C445.801 34.344 441.605 30.1482 436.429 30.1482H374.372C369.196 30.1484 365 34.3441 365 39.5199V84.4723C365 89.6481 369.196 93.8439 374.372 93.8439H394.8C396.014 93.8439 397.137 94.4911 397.746 95.5422L404.779 107.684H409.222L416.255 95.5422C416.863 94.4911 417.986 93.8439 419.201 93.8439H426.2H426.201H436.43C441.605 93.8436 445.801 89.648 445.801 84.4723Z" fill="#1A78ED"/>
<path d="M411.811 95.542L404.778 107.684L408.144 113.494C409.193 115.305 411.807 115.305 412.856 113.494L423.254 95.542C423.863 94.4909 424.986 93.8438 426.2 93.8438H414.757C413.542 93.8439 412.42 94.4909 411.811 95.542Z" fill="#1D68C6"/>
<path d="M446.628 30.1484H435.185C440.361 30.1484 444.557 34.3442 444.557 39.52V84.4724C444.557 89.6482 440.361 93.844 435.185 93.844H446.628C451.804 93.844 456 89.6482 456 84.4724V39.5198C456 34.3442 451.804 30.1484 446.628 30.1484Z" fill="#1D68C6"/>
<path d="M410.5 85.0742C423.088 85.0742 433.293 74.8693 433.293 62.281C433.293 49.6927 423.088 39.4878 410.5 39.4878C397.912 39.4878 387.707 49.6927 387.707 62.281C387.707 74.8693 397.912 85.0742 410.5 85.0742Z" fill="#FFC854"/>
<path d="M410.5 39.4878C408.538 39.4878 406.633 39.7372 404.815 40.2055C414.641 42.7377 421.923 51.6749 421.923 62.2808C421.923 72.8868 414.641 81.8243 404.815 84.3563C406.633 84.8248 408.538 85.074 410.5 85.074C423.068 85.074 433.293 74.8491 433.293 62.281C433.293 49.7129 423.068 39.4878 410.5 39.4878Z" fill="#FFB20F"/>
<path d="M406.293 57.0113C405.535 57.0113 404.92 56.3965 404.92 55.6381C404.92 54.8945 404.315 54.2895 403.572 54.2895C402.828 54.2895 402.223 54.8945 402.223 55.6381C402.223 56.3965 401.608 57.0113 400.85 57.0113C400.091 57.0113 399.477 56.3965 399.477 55.6381C399.477 53.38 401.314 51.543 403.572 51.543C405.83 51.543 407.667 53.38 407.667 55.6381C407.667 56.3965 407.052 57.0113 406.293 57.0113Z" fill="#475762"/>
<path d="M420.151 57.0113C419.392 57.0113 418.777 56.3965 418.777 55.6381C418.777 54.8945 418.172 54.2895 417.429 54.2895C416.685 54.2895 416.08 54.8945 416.08 55.6381C416.08 56.3965 415.465 57.0113 414.707 57.0113C413.949 57.0113 413.334 56.3965 413.334 55.6381C413.334 53.38 415.171 51.543 417.429 51.543C419.687 51.543 421.524 53.38 421.524 55.6381C421.524 56.3965 420.909 57.0113 420.151 57.0113Z" fill="#475762"/>
<path d="M410.5 76.0769C405.249 76.0769 400.606 73.7971 398.672 70.2688C398.307 69.6038 398.551 68.7691 399.216 68.4046C399.881 68.0402 400.716 68.2836 401.08 68.9486C402.517 71.5695 406.302 73.3305 410.5 73.3305C414.698 73.3305 418.483 71.5697 419.92 68.9486C420.285 68.2836 421.119 68.0402 421.784 68.4046C422.449 68.7693 422.693 69.6039 422.328 70.2688C420.394 73.7971 415.751 76.0769 410.5 76.0769Z" fill="#475762"/>
</g>
<defs>
<clipPath id="clip0">
<rect width="253" height="203" fill="white" transform="translate(166 169)"/>
</clipPath>
<clipPath id="clip1">
<rect width="91" height="91" fill="white" transform="translate(365 27)"/>
</clipPath>
</defs>
</svg>
