<svg width="436" height="372" viewBox="0 0 436 372" fill="none" xmlns="http://www.w3.org/2000/svg">
<g clip-path="url(#clip0)">
<path d="M68 132.203H71.4532V135.594H68V132.203Z" fill="#B3B3B3"/>
<path d="M68 7.88501H71.4532V11.2755H68V7.88501Z" fill="#B3B3B3"/>
<path d="M80.6618 132.203H84.1151V135.594H80.6618V132.203Z" fill="#B3B3B3"/>
<path d="M80.6618 7.88501H84.1151V11.2755H80.6618V7.88501Z" fill="#B3B3B3"/>
<path d="M93.3237 132.203H96.7769V135.594H93.3237V132.203Z" fill="#B3B3B3"/>
<path d="M93.3237 7.88501H96.7769V11.2755H93.3237V7.88501Z" fill="#B3B3B3"/>
<path d="M105.986 132.203H109.439V135.594H105.986V132.203Z" fill="#B3B3B3"/>
<path d="M105.986 7.88501H109.439V11.2755H105.986V7.88501Z" fill="#B3B3B3"/>
<path d="M118.647 132.203H122.101V135.594H118.647V132.203Z" fill="#B3B3B3"/>
<path d="M118.647 7.88501H122.101V11.2755H118.647V7.88501Z" fill="#B3B3B3"/>
<path d="M131.309 132.203H134.762V135.594H131.309V132.203Z" fill="#B3B3B3"/>
<path d="M131.309 7.88501H134.762V11.2755H131.309V7.88501Z" fill="#B3B3B3"/>
<path d="M143.971 132.203H147.424V135.594H143.971V132.203Z" fill="#B3B3B3"/>
<path d="M143.971 7.88501H147.424V11.2755H143.971V7.88501Z" fill="#B3B3B3"/>
<path d="M156.633 132.203H160.086V135.594H156.633V132.203Z" fill="#B3B3B3"/>
<path d="M156.633 7.88501H160.086V11.2755H156.633V7.88501Z" fill="#B3B3B3"/>
<path d="M169.295 132.203H172.748V135.594H169.295V132.203Z" fill="#B3B3B3"/>
<path d="M169.295 7.88501H172.748V11.2755H169.295V7.88501Z" fill="#B3B3B3"/>
<path d="M181.957 132.203H185.41V135.594H181.957V132.203Z" fill="#B3B3B3"/>
<path d="M181.957 7.88501H185.41V11.2755H181.957V7.88501Z" fill="#B3B3B3"/>
<path d="M194.618 132.203H198.072V135.594H194.618V132.203Z" fill="#B3B3B3"/>
<path d="M194.618 7.88501H198.072V11.2755H194.618V7.88501Z" fill="#B3B3B3"/>
<path d="M207.28 132.203H210.734V135.594H207.28V132.203Z" fill="#B3B3B3"/>
<path d="M207.28 7.88501H210.734V11.2755H207.28V7.88501Z" fill="#B3B3B3"/>
<path d="M219.942 132.203H223.395V135.594H219.942V132.203Z" fill="#B3B3B3"/>
<path d="M219.942 7.88501H223.395V11.2755H219.942V7.88501Z" fill="#B3B3B3"/>
<path d="M232.604 132.203H236.057V135.594H232.604V132.203Z" fill="#B3B3B3"/>
<path d="M232.604 7.88501H236.057V11.2755H232.604V7.88501Z" fill="#B3B3B3"/>
<path d="M245.266 132.203H248.719V135.594H245.266V132.203Z" fill="#B3B3B3"/>
<path d="M245.266 7.88501H248.719V11.2755H245.266V7.88501Z" fill="#B3B3B3"/>
<path d="M257.928 132.203H261.381V135.594H257.928V132.203Z" fill="#B3B3B3"/>
<path d="M257.928 7.88501H261.381V11.2755H257.928V7.88501Z" fill="#B3B3B3"/>
<path d="M270.59 132.203H274.043V135.594H270.59V132.203Z" fill="#B3B3B3"/>
<path d="M270.59 7.88501H274.043V11.2755H270.59V7.88501Z" fill="#B3B3B3"/>
<path d="M283.251 132.203H286.705V135.594H283.251V132.203Z" fill="#B3B3B3"/>
<path d="M283.251 7.88501H286.705V11.2755H283.251V7.88501Z" fill="#B3B3B3"/>
<path d="M295.913 132.203H299.367V135.594H295.913V132.203Z" fill="#B3B3B3"/>
<path d="M295.913 7.88501H299.367V11.2755H295.913V7.88501Z" fill="#B3B3B3"/>
<path d="M308.575 132.203H312.028V135.594H308.575V132.203Z" fill="#B3B3B3"/>
<path d="M308.575 7.88501H312.028V11.2755H308.575V7.88501Z" fill="#B3B3B3"/>
<path d="M68 143.505H71.4532V146.896H68V143.505Z" fill="#B3B3B3"/>
<path d="M68 19.1867H71.4532V22.5772H68V19.1867Z" fill="#B3B3B3"/>
<path d="M80.6618 143.505H84.1151V146.896H80.6618V143.505Z" fill="#B3B3B3"/>
<path d="M80.6618 19.1867H84.1151V22.5772H80.6618V19.1867Z" fill="#B3B3B3"/>
<path d="M93.3237 143.505H96.7769V146.896H93.3237V143.505Z" fill="#B3B3B3"/>
<path d="M93.3237 19.1867H96.7769V22.5772H93.3237V19.1867Z" fill="#B3B3B3"/>
<path d="M105.986 143.505H109.439V146.896H105.986V143.505Z" fill="#B3B3B3"/>
<path d="M105.986 19.1867H109.439V22.5772H105.986V19.1867Z" fill="#B3B3B3"/>
<path d="M118.647 143.505H122.101V146.896H118.647V143.505Z" fill="#B3B3B3"/>
<path d="M118.647 19.1867H122.101V22.5772H118.647V19.1867Z" fill="#B3B3B3"/>
<path d="M131.309 143.505H134.762V146.896H131.309V143.505Z" fill="#B3B3B3"/>
<path d="M131.309 19.1867H134.762V22.5772H131.309V19.1867Z" fill="#B3B3B3"/>
<path d="M143.971 143.505H147.424V146.896H143.971V143.505Z" fill="#B3B3B3"/>
<path d="M143.971 19.1867H147.424V22.5772H143.971V19.1867Z" fill="#B3B3B3"/>
<path d="M156.633 143.505H160.086V146.896H156.633V143.505Z" fill="#B3B3B3"/>
<path d="M156.633 19.1867H160.086V22.5772H156.633V19.1867Z" fill="#B3B3B3"/>
<path d="M169.295 143.505H172.748V146.896H169.295V143.505Z" fill="#B3B3B3"/>
<path d="M169.295 19.1867H172.748V22.5772H169.295V19.1867Z" fill="#B3B3B3"/>
<path d="M181.957 143.505H185.41V146.896H181.957V143.505Z" fill="#B3B3B3"/>
<path d="M181.957 19.1867H185.41V22.5772H181.957V19.1867Z" fill="#B3B3B3"/>
<path d="M194.618 143.505H198.072V146.896H194.618V143.505Z" fill="#B3B3B3"/>
<path d="M194.618 19.1867H198.072V22.5772H194.618V19.1867Z" fill="#B3B3B3"/>
<path d="M207.28 143.505H210.734V146.896H207.28V143.505Z" fill="#B3B3B3"/>
<path d="M207.28 19.1867H210.734V22.5772H207.28V19.1867Z" fill="#B3B3B3"/>
<path d="M219.942 143.505H223.395V146.896H219.942V143.505Z" fill="#B3B3B3"/>
<path d="M219.942 19.1867H223.395V22.5772H219.942V19.1867Z" fill="#B3B3B3"/>
<path d="M232.604 143.505H236.057V146.896H232.604V143.505Z" fill="#B3B3B3"/>
<path d="M232.604 19.1867H236.057V22.5772H232.604V19.1867Z" fill="#B3B3B3"/>
<path d="M245.266 143.505H248.719V146.896H245.266V143.505Z" fill="#B3B3B3"/>
<path d="M245.266 19.1867H248.719V22.5772H245.266V19.1867Z" fill="#B3B3B3"/>
<path d="M257.928 143.505H261.381V146.896H257.928V143.505Z" fill="#B3B3B3"/>
<path d="M257.928 19.1867H261.381V22.5772H257.928V19.1867Z" fill="#B3B3B3"/>
<path d="M270.59 143.505H274.043V146.896H270.59V143.505Z" fill="#B3B3B3"/>
<path d="M270.59 19.1867H274.043V22.5772H270.59V19.1867Z" fill="#B3B3B3"/>
<path d="M283.251 143.505H286.705V146.896H283.251V143.505Z" fill="#B3B3B3"/>
<path d="M283.251 19.1867H286.705V22.5772H283.251V19.1867Z" fill="#B3B3B3"/>
<path d="M295.913 143.505H299.367V146.896H295.913V143.505Z" fill="#B3B3B3"/>
<path d="M295.913 19.1867H299.367V22.5772H295.913V19.1867Z" fill="#B3B3B3"/>
<path d="M308.575 143.505H312.028V146.896H308.575V143.505Z" fill="#B3B3B3"/>
<path d="M308.575 19.1867H312.028V22.5772H308.575V19.1867Z" fill="#B3B3B3"/>
<path d="M68 154.807H71.4532V158.197H68V154.807Z" fill="#B3B3B3"/>
<path d="M68 30.4884H71.4532V33.8789H68V30.4884Z" fill="#B3B3B3"/>
<path d="M80.6618 154.807H84.1151V158.197H80.6618V154.807Z" fill="#B3B3B3"/>
<path d="M80.6618 30.4884H84.1151V33.8789H80.6618V30.4884Z" fill="#B3B3B3"/>
<path d="M93.3237 154.807H96.7769V158.197H93.3237V154.807Z" fill="#B3B3B3"/>
<path d="M93.3237 30.4884H96.7769V33.8789H93.3237V30.4884Z" fill="#B3B3B3"/>
<path d="M105.986 154.807H109.439V158.197H105.986V154.807Z" fill="#B3B3B3"/>
<path d="M105.986 30.4884H109.439V33.8789H105.986V30.4884Z" fill="#B3B3B3"/>
<path d="M118.647 154.807H122.101V158.197H118.647V154.807Z" fill="#B3B3B3"/>
<path d="M118.647 30.4884H122.101V33.8789H118.647V30.4884Z" fill="#B3B3B3"/>
<path d="M131.309 154.807H134.762V158.197H131.309V154.807Z" fill="#B3B3B3"/>
<path d="M131.309 30.4884H134.762V33.8789H131.309V30.4884Z" fill="#B3B3B3"/>
<path d="M143.971 154.807H147.424V158.197H143.971V154.807Z" fill="#B3B3B3"/>
<path d="M143.971 30.4884H147.424V33.8789H143.971V30.4884Z" fill="#B3B3B3"/>
<path d="M156.633 154.807H160.086V158.197H156.633V154.807Z" fill="#B3B3B3"/>
<path d="M156.633 30.4884H160.086V33.8789H156.633V30.4884Z" fill="#B3B3B3"/>
<path d="M169.295 154.807H172.748V158.197H169.295V154.807Z" fill="#B3B3B3"/>
<path d="M169.295 30.4884H172.748V33.8789H169.295V30.4884Z" fill="#B3B3B3"/>
<path d="M181.957 154.807H185.41V158.197H181.957V154.807Z" fill="#B3B3B3"/>
<path d="M181.957 30.4884H185.41V33.8789H181.957V30.4884Z" fill="#B3B3B3"/>
<path d="M194.618 154.807H198.072V158.197H194.618V154.807Z" fill="#B3B3B3"/>
<path d="M194.618 30.4884H198.072V33.8789H194.618V30.4884Z" fill="#B3B3B3"/>
<path d="M207.28 154.807H210.734V158.197H207.28V154.807Z" fill="#B3B3B3"/>
<path d="M207.28 30.4884H210.734V33.8789H207.28V30.4884Z" fill="#B3B3B3"/>
<path d="M219.942 154.807H223.395V158.197H219.942V154.807Z" fill="#B3B3B3"/>
<path d="M219.942 30.4884H223.395V33.8789H219.942V30.4884Z" fill="#B3B3B3"/>
<path d="M232.604 154.807H236.057V158.197H232.604V154.807Z" fill="#B3B3B3"/>
<path d="M232.604 30.4884H236.057V33.8789H232.604V30.4884Z" fill="#B3B3B3"/>
<path d="M245.266 154.807H248.719V158.197H245.266V154.807Z" fill="#B3B3B3"/>
<path d="M245.266 30.4884H248.719V33.8789H245.266V30.4884Z" fill="#B3B3B3"/>
<path d="M257.928 154.807H261.381V158.197H257.928V154.807Z" fill="#B3B3B3"/>
<path d="M257.928 30.4884H261.381V33.8789H257.928V30.4884Z" fill="#B3B3B3"/>
<path d="M270.59 154.807H274.043V158.197H270.59V154.807Z" fill="#B3B3B3"/>
<path d="M270.59 30.4884H274.043V33.8789H270.59V30.4884Z" fill="#B3B3B3"/>
<path d="M283.251 154.807H286.705V158.197H283.251V154.807Z" fill="#B3B3B3"/>
<path d="M283.251 30.4884H286.705V33.8789H283.251V30.4884Z" fill="#B3B3B3"/>
<path d="M295.913 154.807H299.367V158.197H295.913V154.807Z" fill="#B3B3B3"/>
<path d="M295.913 30.4884H299.367V33.8789H295.913V30.4884Z" fill="#B3B3B3"/>
<path d="M308.575 154.807H312.028V158.197H308.575V154.807Z" fill="#B3B3B3"/>
<path d="M308.575 30.4884H312.028V33.8789H308.575V30.4884Z" fill="#B3B3B3"/>
<path d="M68 166.108H71.4532V169.499H68V166.108Z" fill="#B3B3B3"/>
<path d="M68 41.79H71.4532V45.1805H68V41.79Z" fill="#B3B3B3"/>
<path d="M80.6618 166.108H84.1151V169.499H80.6618V166.108Z" fill="#B3B3B3"/>
<path d="M80.6618 41.79H84.1151V45.1805H80.6618V41.79Z" fill="#B3B3B3"/>
<path d="M93.3237 166.108H96.7769V169.499H93.3237V166.108Z" fill="#B3B3B3"/>
<path d="M93.3237 41.79H96.7769V45.1805H93.3237V41.79Z" fill="#B3B3B3"/>
<path d="M105.986 166.108H109.439V169.499H105.986V166.108Z" fill="#B3B3B3"/>
<path d="M105.986 41.79H109.439V45.1805H105.986V41.79Z" fill="#B3B3B3"/>
<path d="M118.647 166.108H122.101V169.499H118.647V166.108Z" fill="#B3B3B3"/>
<path d="M118.647 41.79H122.101V45.1805H118.647V41.79Z" fill="#B3B3B3"/>
<path d="M131.309 166.108H134.762V169.499H131.309V166.108Z" fill="#B3B3B3"/>
<path d="M131.309 41.79H134.762V45.1805H131.309V41.79Z" fill="#B3B3B3"/>
<path d="M143.971 166.108H147.424V169.499H143.971V166.108Z" fill="#B3B3B3"/>
<path d="M143.971 41.79H147.424V45.1805H143.971V41.79Z" fill="#B3B3B3"/>
<path d="M156.633 166.108H160.086V169.499H156.633V166.108Z" fill="#B3B3B3"/>
<path d="M156.633 41.79H160.086V45.1805H156.633V41.79Z" fill="#B3B3B3"/>
<path d="M169.295 166.108H172.748V169.499H169.295V166.108Z" fill="#B3B3B3"/>
<path d="M169.295 41.79H172.748V45.1805H169.295V41.79Z" fill="#B3B3B3"/>
<path d="M181.957 166.108H185.41V169.499H181.957V166.108Z" fill="#B3B3B3"/>
<path d="M181.957 41.79H185.41V45.1805H181.957V41.79Z" fill="#B3B3B3"/>
<path d="M194.618 166.108H198.072V169.499H194.618V166.108Z" fill="#B3B3B3"/>
<path d="M194.618 41.79H198.072V45.1805H194.618V41.79Z" fill="#B3B3B3"/>
<path d="M207.28 166.108H210.734V169.499H207.28V166.108Z" fill="#B3B3B3"/>
<path d="M207.28 41.79H210.734V45.1805H207.28V41.79Z" fill="#B3B3B3"/>
<path d="M219.942 166.108H223.395V169.499H219.942V166.108Z" fill="#B3B3B3"/>
<path d="M219.942 41.79H223.395V45.1805H219.942V41.79Z" fill="#B3B3B3"/>
<path d="M232.604 166.108H236.057V169.499H232.604V166.108Z" fill="#B3B3B3"/>
<path d="M232.604 41.79H236.057V45.1805H232.604V41.79Z" fill="#B3B3B3"/>
<path d="M245.266 166.108H248.719V169.499H245.266V166.108Z" fill="#B3B3B3"/>
<path d="M245.266 41.79H248.719V45.1805H245.266V41.79Z" fill="#B3B3B3"/>
<path d="M257.928 166.108H261.381V169.499H257.928V166.108Z" fill="#B3B3B3"/>
<path d="M257.928 41.79H261.381V45.1805H257.928V41.79Z" fill="#B3B3B3"/>
<path d="M270.59 166.108H274.043V169.499H270.59V166.108Z" fill="#B3B3B3"/>
<path d="M270.59 41.79H274.043V45.1805H270.59V41.79Z" fill="#B3B3B3"/>
<path d="M283.251 166.108H286.705V169.499H283.251V166.108Z" fill="#B3B3B3"/>
<path d="M283.251 41.79H286.705V45.1805H283.251V41.79Z" fill="#B3B3B3"/>
<path d="M295.913 166.108H299.367V169.499H295.913V166.108Z" fill="#B3B3B3"/>
<path d="M295.913 41.79H299.367V45.1805H295.913V41.79Z" fill="#B3B3B3"/>
<path d="M308.575 166.108H312.028V169.499H308.575V166.108Z" fill="#B3B3B3"/>
<path d="M308.575 41.79H312.028V45.1805H308.575V41.79Z" fill="#B3B3B3"/>
<path d="M68 177.41H71.4532V180.801H68V177.41Z" fill="#B3B3B3"/>
<path d="M68 53.0917H71.4532V56.4822H68V53.0917Z" fill="#B3B3B3"/>
<path d="M80.6618 177.41H84.1151V180.801H80.6618V177.41Z" fill="#B3B3B3"/>
<path d="M80.6618 53.0917H84.1151V56.4822H80.6618V53.0917Z" fill="#B3B3B3"/>
<path d="M93.3237 177.41H96.7769V180.801H93.3237V177.41Z" fill="#B3B3B3"/>
<path d="M93.3237 53.0917H96.7769V56.4822H93.3237V53.0917Z" fill="#B3B3B3"/>
<path d="M105.986 177.41H109.439V180.801H105.986V177.41Z" fill="#B3B3B3"/>
<path d="M105.986 53.0917H109.439V56.4822H105.986V53.0917Z" fill="#B3B3B3"/>
<path d="M118.647 177.41H122.101V180.801H118.647V177.41Z" fill="#B3B3B3"/>
<path d="M118.647 53.0917H122.101V56.4822H118.647V53.0917Z" fill="#B3B3B3"/>
<path d="M131.309 177.41H134.762V180.801H131.309V177.41Z" fill="#B3B3B3"/>
<path d="M131.309 53.0917H134.762V56.4822H131.309V53.0917Z" fill="#B3B3B3"/>
<path d="M143.971 177.41H147.424V180.801H143.971V177.41Z" fill="#B3B3B3"/>
<path d="M143.971 53.0917H147.424V56.4822H143.971V53.0917Z" fill="#B3B3B3"/>
<path d="M156.633 177.41H160.086V180.801H156.633V177.41Z" fill="#B3B3B3"/>
<path d="M156.633 53.0917H160.086V56.4822H156.633V53.0917Z" fill="#B3B3B3"/>
<path d="M169.295 177.41H172.748V180.801H169.295V177.41Z" fill="#B3B3B3"/>
<path d="M169.295 53.0917H172.748V56.4822H169.295V53.0917Z" fill="#B3B3B3"/>
<path d="M181.957 177.41H185.41V180.801H181.957V177.41Z" fill="#B3B3B3"/>
<path d="M181.957 53.0917H185.41V56.4822H181.957V53.0917Z" fill="#B3B3B3"/>
<path d="M194.618 177.41H198.072V180.801H194.618V177.41Z" fill="#B3B3B3"/>
<path d="M194.618 53.0917H198.072V56.4822H194.618V53.0917Z" fill="#B3B3B3"/>
<path d="M207.28 177.41H210.734V180.801H207.28V177.41Z" fill="#B3B3B3"/>
<path d="M207.28 53.0917H210.734V56.4822H207.28V53.0917Z" fill="#B3B3B3"/>
<path d="M219.942 177.41H223.395V180.801H219.942V177.41Z" fill="#B3B3B3"/>
<path d="M219.942 53.0917H223.395V56.4822H219.942V53.0917Z" fill="#B3B3B3"/>
<path d="M232.604 177.41H236.057V180.801H232.604V177.41Z" fill="#B3B3B3"/>
<path d="M232.604 53.0917H236.057V56.4822H232.604V53.0917Z" fill="#B3B3B3"/>
<path d="M245.266 177.41H248.719V180.801H245.266V177.41Z" fill="#B3B3B3"/>
<path d="M245.266 53.0917H248.719V56.4822H245.266V53.0917Z" fill="#B3B3B3"/>
<path d="M257.928 177.41H261.381V180.801H257.928V177.41Z" fill="#B3B3B3"/>
<path d="M257.928 53.0917H261.381V56.4822H257.928V53.0917Z" fill="#B3B3B3"/>
<path d="M270.59 177.41H274.043V180.801H270.59V177.41Z" fill="#B3B3B3"/>
<path d="M270.59 53.0917H274.043V56.4822H270.59V53.0917Z" fill="#B3B3B3"/>
<path d="M283.251 177.41H286.705V180.801H283.251V177.41Z" fill="#B3B3B3"/>
<path d="M283.251 53.0917H286.705V56.4822H283.251V53.0917Z" fill="#B3B3B3"/>
<path d="M295.913 177.41H299.367V180.801H295.913V177.41Z" fill="#B3B3B3"/>
<path d="M295.913 53.0917H299.367V56.4822H295.913V53.0917Z" fill="#B3B3B3"/>
<path d="M308.575 177.41H312.028V180.801H308.575V177.41Z" fill="#B3B3B3"/>
<path d="M308.575 53.0917H312.028V56.4822H308.575V53.0917Z" fill="#B3B3B3"/>
<path d="M68 188.712H71.4532V192.102H68V188.712Z" fill="#B3B3B3"/>
<path d="M68 64.3934H71.4532V67.7839H68V64.3934Z" fill="#B3B3B3"/>
<path d="M80.6618 188.712H84.1151V192.102H80.6618V188.712Z" fill="#B3B3B3"/>
<path d="M80.6618 64.3934H84.1151V67.7839H80.6618V64.3934Z" fill="#B3B3B3"/>
<path d="M93.3237 188.712H96.7769V192.102H93.3237V188.712Z" fill="#B3B3B3"/>
<path d="M93.3237 64.3934H96.7769V67.7839H93.3237V64.3934Z" fill="#B3B3B3"/>
<path d="M105.986 188.712H109.439V192.102H105.986V188.712Z" fill="#B3B3B3"/>
<path d="M105.986 64.3934H109.439V67.7839H105.986V64.3934Z" fill="#B3B3B3"/>
<path d="M118.647 188.712H122.101V192.102H118.647V188.712Z" fill="#B3B3B3"/>
<path d="M118.647 64.3934H122.101V67.7839H118.647V64.3934Z" fill="#B3B3B3"/>
<path d="M131.309 188.712H134.762V192.102H131.309V188.712Z" fill="#B3B3B3"/>
<path d="M131.309 64.3934H134.762V67.7839H131.309V64.3934Z" fill="#B3B3B3"/>
<path d="M143.971 188.712H147.424V192.102H143.971V188.712Z" fill="#B3B3B3"/>
<path d="M143.971 64.3934H147.424V67.7839H143.971V64.3934Z" fill="#B3B3B3"/>
<path d="M156.633 188.712H160.086V192.102H156.633V188.712Z" fill="#B3B3B3"/>
<path d="M156.633 64.3934H160.086V67.7839H156.633V64.3934Z" fill="#B3B3B3"/>
<path d="M169.295 188.712H172.748V192.102H169.295V188.712Z" fill="#B3B3B3"/>
<path d="M169.295 64.3934H172.748V67.7839H169.295V64.3934Z" fill="#B3B3B3"/>
<path d="M181.957 188.712H185.41V192.102H181.957V188.712Z" fill="#B3B3B3"/>
<path d="M181.957 64.3934H185.41V67.7839H181.957V64.3934Z" fill="#B3B3B3"/>
<path d="M194.618 188.712H198.072V192.102H194.618V188.712Z" fill="#B3B3B3"/>
<path d="M194.618 64.3934H198.072V67.7839H194.618V64.3934Z" fill="#B3B3B3"/>
<path d="M207.28 188.712H210.734V192.102H207.28V188.712Z" fill="#B3B3B3"/>
<path d="M207.28 64.3934H210.734V67.7839H207.28V64.3934Z" fill="#B3B3B3"/>
<path d="M219.942 188.712H223.395V192.102H219.942V188.712Z" fill="#B3B3B3"/>
<path d="M219.942 64.3934H223.395V67.7839H219.942V64.3934Z" fill="#B3B3B3"/>
<path d="M232.604 188.712H236.057V192.102H232.604V188.712Z" fill="#B3B3B3"/>
<path d="M232.604 64.3934H236.057V67.7839H232.604V64.3934Z" fill="#B3B3B3"/>
<path d="M245.266 188.712H248.719V192.102H245.266V188.712Z" fill="#B3B3B3"/>
<path d="M245.266 64.3934H248.719V67.7839H245.266V64.3934Z" fill="#B3B3B3"/>
<path d="M257.928 188.712H261.381V192.102H257.928V188.712Z" fill="#B3B3B3"/>
<path d="M257.928 64.3934H261.381V67.7839H257.928V64.3934Z" fill="#B3B3B3"/>
<path d="M270.59 188.712H274.043V192.102H270.59V188.712Z" fill="#B3B3B3"/>
<path d="M270.59 64.3934H274.043V67.7839H270.59V64.3934Z" fill="#B3B3B3"/>
<path d="M283.251 188.712H286.705V192.102H283.251V188.712Z" fill="#B3B3B3"/>
<path d="M283.251 64.3934H286.705V67.7839H283.251V64.3934Z" fill="#B3B3B3"/>
<path d="M295.913 188.712H299.367V192.102H295.913V188.712Z" fill="#B3B3B3"/>
<path d="M295.913 64.3934H299.367V67.7839H295.913V64.3934Z" fill="#B3B3B3"/>
<path d="M308.575 188.712H312.028V192.102H308.575V188.712Z" fill="#B3B3B3"/>
<path d="M308.575 64.3934H312.028V67.7839H308.575V64.3934Z" fill="#B3B3B3"/>
<path d="M68 200.013H71.4532V203.404H68V200.013Z" fill="#B3B3B3"/>
<path d="M68 75.6951H71.4532V79.0856H68V75.6951Z" fill="#B3B3B3"/>
<path d="M80.6618 200.013H84.1151V203.404H80.6618V200.013Z" fill="#B3B3B3"/>
<path d="M80.6618 75.6951H84.1151V79.0856H80.6618V75.6951Z" fill="#B3B3B3"/>
<path d="M93.3237 200.013H96.7769V203.404H93.3237V200.013Z" fill="#B3B3B3"/>
<path d="M93.3237 75.6951H96.7769V79.0856H93.3237V75.6951Z" fill="#B3B3B3"/>
<path d="M105.986 200.013H109.439V203.404H105.986V200.013Z" fill="#B3B3B3"/>
<path d="M105.986 75.6951H109.439V79.0856H105.986V75.6951Z" fill="#B3B3B3"/>
<path d="M118.647 200.013H122.101V203.404H118.647V200.013Z" fill="#B3B3B3"/>
<path d="M118.647 75.6951H122.101V79.0856H118.647V75.6951Z" fill="#B3B3B3"/>
<path d="M131.309 200.013H134.762V203.404H131.309V200.013Z" fill="#B3B3B3"/>
<path d="M131.309 75.6951H134.762V79.0856H131.309V75.6951Z" fill="#B3B3B3"/>
<path d="M143.971 200.013H147.424V203.404H143.971V200.013Z" fill="#B3B3B3"/>
<path d="M143.971 75.6951H147.424V79.0856H143.971V75.6951Z" fill="#B3B3B3"/>
<path d="M156.633 200.013H160.086V203.404H156.633V200.013Z" fill="#B3B3B3"/>
<path d="M156.633 75.6951H160.086V79.0856H156.633V75.6951Z" fill="#B3B3B3"/>
<path d="M169.295 200.013H172.748V203.404H169.295V200.013Z" fill="#B3B3B3"/>
<path d="M169.295 75.6951H172.748V79.0856H169.295V75.6951Z" fill="#B3B3B3"/>
<path d="M181.957 200.013H185.41V203.404H181.957V200.013Z" fill="#B3B3B3"/>
<path d="M181.957 75.6951H185.41V79.0856H181.957V75.6951Z" fill="#B3B3B3"/>
<path d="M194.618 200.013H198.072V203.404H194.618V200.013Z" fill="#B3B3B3"/>
<path d="M194.618 75.6951H198.072V79.0856H194.618V75.6951Z" fill="#B3B3B3"/>
<path d="M207.28 200.013H210.734V203.404H207.28V200.013Z" fill="#B3B3B3"/>
<path d="M207.28 75.6951H210.734V79.0856H207.28V75.6951Z" fill="#B3B3B3"/>
<path d="M219.942 200.013H223.395V203.404H219.942V200.013Z" fill="#B3B3B3"/>
<path d="M219.942 75.6951H223.395V79.0856H219.942V75.6951Z" fill="#B3B3B3"/>
<path d="M232.604 200.013H236.057V203.404H232.604V200.013Z" fill="#B3B3B3"/>
<path d="M232.604 75.6951H236.057V79.0856H232.604V75.6951Z" fill="#B3B3B3"/>
<path d="M245.266 200.013H248.719V203.404H245.266V200.013Z" fill="#B3B3B3"/>
<path d="M245.266 75.6951H248.719V79.0856H245.266V75.6951Z" fill="#B3B3B3"/>
<path d="M257.928 200.013H261.381V203.404H257.928V200.013Z" fill="#B3B3B3"/>
<path d="M257.928 75.6951H261.381V79.0856H257.928V75.6951Z" fill="#B3B3B3"/>
<path d="M270.59 200.013H274.043V203.404H270.59V200.013Z" fill="#B3B3B3"/>
<path d="M270.59 75.6951H274.043V79.0856H270.59V75.6951Z" fill="#B3B3B3"/>
<path d="M283.251 200.013H286.705V203.404H283.251V200.013Z" fill="#B3B3B3"/>
<path d="M283.251 75.6951H286.705V79.0856H283.251V75.6951Z" fill="#B3B3B3"/>
<path d="M295.913 200.013H299.367V203.404H295.913V200.013Z" fill="#B3B3B3"/>
<path d="M295.913 75.6951H299.367V79.0856H295.913V75.6951Z" fill="#B3B3B3"/>
<path d="M308.575 200.013H312.028V203.404H308.575V200.013Z" fill="#B3B3B3"/>
<path d="M308.575 75.6951H312.028V79.0856H308.575V75.6951Z" fill="#B3B3B3"/>
<path d="M68 211.315H71.4532V214.706H68V211.315Z" fill="#B3B3B3"/>
<path d="M68 86.9967H71.4532V90.3872H68V86.9967Z" fill="#B3B3B3"/>
<path d="M80.6618 211.315H84.1151V214.706H80.6618V211.315Z" fill="#B3B3B3"/>
<path d="M80.6618 86.9967H84.1151V90.3872H80.6618V86.9967Z" fill="#B3B3B3"/>
<path d="M93.3237 211.315H96.7769V214.706H93.3237V211.315Z" fill="#B3B3B3"/>
<path d="M93.3237 86.9967H96.7769V90.3872H93.3237V86.9967Z" fill="#B3B3B3"/>
<path d="M105.986 211.315H109.439V214.706H105.986V211.315Z" fill="#B3B3B3"/>
<path d="M105.986 86.9967H109.439V90.3872H105.986V86.9967Z" fill="#B3B3B3"/>
<path d="M118.647 211.315H122.101V214.706H118.647V211.315Z" fill="#B3B3B3"/>
<path d="M118.647 86.9967H122.101V90.3872H118.647V86.9967Z" fill="#B3B3B3"/>
<path d="M131.309 211.315H134.762V214.706H131.309V211.315Z" fill="#B3B3B3"/>
<path d="M131.309 86.9967H134.762V90.3872H131.309V86.9967Z" fill="#B3B3B3"/>
<path d="M143.971 211.315H147.424V214.706H143.971V211.315Z" fill="#B3B3B3"/>
<path d="M143.971 86.9967H147.424V90.3872H143.971V86.9967Z" fill="#B3B3B3"/>
<path d="M156.633 211.315H160.086V214.706H156.633V211.315Z" fill="#B3B3B3"/>
<path d="M156.633 86.9967H160.086V90.3872H156.633V86.9967Z" fill="#B3B3B3"/>
<path d="M169.295 211.315H172.748V214.706H169.295V211.315Z" fill="#B3B3B3"/>
<path d="M169.295 86.9967H172.748V90.3872H169.295V86.9967Z" fill="#B3B3B3"/>
<path d="M181.957 211.315H185.41V214.706H181.957V211.315Z" fill="#B3B3B3"/>
<path d="M181.957 86.9967H185.41V90.3872H181.957V86.9967Z" fill="#B3B3B3"/>
<path d="M194.618 211.315H198.072V214.706H194.618V211.315Z" fill="#B3B3B3"/>
<path d="M194.618 86.9967H198.072V90.3872H194.618V86.9967Z" fill="#B3B3B3"/>
<path d="M207.28 211.315H210.734V214.706H207.28V211.315Z" fill="#B3B3B3"/>
<path d="M207.28 86.9967H210.734V90.3872H207.28V86.9967Z" fill="#B3B3B3"/>
<path d="M219.942 211.315H223.395V214.706H219.942V211.315Z" fill="#B3B3B3"/>
<path d="M219.942 86.9967H223.395V90.3872H219.942V86.9967Z" fill="#B3B3B3"/>
<path d="M232.604 211.315H236.057V214.706H232.604V211.315Z" fill="#B3B3B3"/>
<path d="M232.604 86.9967H236.057V90.3872H232.604V86.9967Z" fill="#B3B3B3"/>
<path d="M245.266 211.315H248.719V214.706H245.266V211.315Z" fill="#B3B3B3"/>
<path d="M245.266 86.9967H248.719V90.3872H245.266V86.9967Z" fill="#B3B3B3"/>
<path d="M257.928 211.315H261.381V214.706H257.928V211.315Z" fill="#B3B3B3"/>
<path d="M257.928 86.9967H261.381V90.3872H257.928V86.9967Z" fill="#B3B3B3"/>
<path d="M270.59 211.315H274.043V214.706H270.59V211.315Z" fill="#B3B3B3"/>
<path d="M270.59 86.9967H274.043V90.3872H270.59V86.9967Z" fill="#B3B3B3"/>
<path d="M283.251 211.315H286.705V214.706H283.251V211.315Z" fill="#B3B3B3"/>
<path d="M283.251 86.9967H286.705V90.3872H283.251V86.9967Z" fill="#B3B3B3"/>
<path d="M295.913 211.315H299.367V214.706H295.913V211.315Z" fill="#B3B3B3"/>
<path d="M295.913 86.9967H299.367V90.3872H295.913V86.9967Z" fill="#B3B3B3"/>
<path d="M308.575 211.315H312.028V214.706H308.575V211.315Z" fill="#B3B3B3"/>
<path d="M308.575 86.9967H312.028V90.3872H308.575V86.9967Z" fill="#B3B3B3"/>
<path d="M68 222.617H71.4532V226.007H68V222.617Z" fill="#B3B3B3"/>
<path d="M68 98.2984H71.4532V101.689H68V98.2984Z" fill="#B3B3B3"/>
<path d="M80.6618 222.617H84.1151V226.007H80.6618V222.617Z" fill="#B3B3B3"/>
<path d="M80.6618 98.2984H84.1151V101.689H80.6618V98.2984Z" fill="#B3B3B3"/>
<path d="M93.3237 222.617H96.7769V226.007H93.3237V222.617Z" fill="#B3B3B3"/>
<path d="M93.3237 98.2984H96.7769V101.689H93.3237V98.2984Z" fill="#B3B3B3"/>
<path d="M105.986 222.617H109.439V226.007H105.986V222.617Z" fill="#B3B3B3"/>
<path d="M105.986 98.2984H109.439V101.689H105.986V98.2984Z" fill="#B3B3B3"/>
<path d="M118.647 222.617H122.101V226.007H118.647V222.617Z" fill="#B3B3B3"/>
<path d="M118.647 98.2984H122.101V101.689H118.647V98.2984Z" fill="#B3B3B3"/>
<path d="M131.309 222.617H134.762V226.007H131.309V222.617Z" fill="#B3B3B3"/>
<path d="M131.309 98.2984H134.762V101.689H131.309V98.2984Z" fill="#B3B3B3"/>
<path d="M143.971 222.617H147.424V226.007H143.971V222.617Z" fill="#B3B3B3"/>
<path d="M143.971 98.2984H147.424V101.689H143.971V98.2984Z" fill="#B3B3B3"/>
<path d="M156.633 222.617H160.086V226.007H156.633V222.617Z" fill="#B3B3B3"/>
<path d="M156.633 98.2984H160.086V101.689H156.633V98.2984Z" fill="#B3B3B3"/>
<path d="M169.295 222.617H172.748V226.007H169.295V222.617Z" fill="#B3B3B3"/>
<path d="M169.295 98.2984H172.748V101.689H169.295V98.2984Z" fill="#B3B3B3"/>
<path d="M181.957 222.617H185.41V226.007H181.957V222.617Z" fill="#B3B3B3"/>
<path d="M181.957 98.2984H185.41V101.689H181.957V98.2984Z" fill="#B3B3B3"/>
<path d="M194.618 222.617H198.072V226.007H194.618V222.617Z" fill="#B3B3B3"/>
<path d="M194.618 98.2984H198.072V101.689H194.618V98.2984Z" fill="#B3B3B3"/>
<path d="M207.28 222.617H210.734V226.007H207.28V222.617Z" fill="#B3B3B3"/>
<path d="M207.28 98.2984H210.734V101.689H207.28V98.2984Z" fill="#B3B3B3"/>
<path d="M219.942 222.617H223.395V226.007H219.942V222.617Z" fill="#B3B3B3"/>
<path d="M219.942 98.2984H223.395V101.689H219.942V98.2984Z" fill="#B3B3B3"/>
<path d="M232.604 222.617H236.057V226.007H232.604V222.617Z" fill="#B3B3B3"/>
<path d="M232.604 98.2984H236.057V101.689H232.604V98.2984Z" fill="#B3B3B3"/>
<path d="M245.266 222.617H248.719V226.007H245.266V222.617Z" fill="#B3B3B3"/>
<path d="M245.266 98.2984H248.719V101.689H245.266V98.2984Z" fill="#B3B3B3"/>
<path d="M257.928 222.617H261.381V226.007H257.928V222.617Z" fill="#B3B3B3"/>
<path d="M257.928 98.2984H261.381V101.689H257.928V98.2984Z" fill="#B3B3B3"/>
<path d="M270.59 222.617H274.043V226.007H270.59V222.617Z" fill="#B3B3B3"/>
<path d="M270.59 98.2984H274.043V101.689H270.59V98.2984Z" fill="#B3B3B3"/>
<path d="M283.251 222.617H286.705V226.007H283.251V222.617Z" fill="#B3B3B3"/>
<path d="M283.251 98.2984H286.705V101.689H283.251V98.2984Z" fill="#B3B3B3"/>
<path d="M295.913 222.617H299.367V226.007H295.913V222.617Z" fill="#B3B3B3"/>
<path d="M295.913 98.2984H299.367V101.689H295.913V98.2984Z" fill="#B3B3B3"/>
<path d="M308.575 222.617H312.028V226.007H308.575V222.617Z" fill="#B3B3B3"/>
<path d="M308.575 98.2984H312.028V101.689H308.575V98.2984Z" fill="#B3B3B3"/>
<path d="M68 233.918H71.4532V237.309H68V233.918Z" fill="#B3B3B3"/>
<path d="M68 109.6H71.4532V112.991H68V109.6Z" fill="#B3B3B3"/>
<path d="M80.6618 233.918H84.1151V237.309H80.6618V233.918Z" fill="#B3B3B3"/>
<path d="M80.6618 109.6H84.1151V112.991H80.6618V109.6Z" fill="#B3B3B3"/>
<path d="M93.3237 233.918H96.7769V237.309H93.3237V233.918Z" fill="#B3B3B3"/>
<path d="M93.3237 109.6H96.7769V112.991H93.3237V109.6Z" fill="#B3B3B3"/>
<path d="M105.986 233.918H109.439V237.309H105.986V233.918Z" fill="#B3B3B3"/>
<path d="M105.986 109.6H109.439V112.991H105.986V109.6Z" fill="#B3B3B3"/>
<path d="M118.647 233.918H122.101V237.309H118.647V233.918Z" fill="#B3B3B3"/>
<path d="M118.647 109.6H122.101V112.991H118.647V109.6Z" fill="#B3B3B3"/>
<path d="M131.309 233.918H134.762V237.309H131.309V233.918Z" fill="#B3B3B3"/>
<path d="M131.309 109.6H134.762V112.991H131.309V109.6Z" fill="#B3B3B3"/>
<path d="M143.971 233.918H147.424V237.309H143.971V233.918Z" fill="#B3B3B3"/>
<path d="M143.971 109.6H147.424V112.991H143.971V109.6Z" fill="#B3B3B3"/>
<path d="M156.633 233.918H160.086V237.309H156.633V233.918Z" fill="#B3B3B3"/>
<path d="M156.633 109.6H160.086V112.991H156.633V109.6Z" fill="#B3B3B3"/>
<path d="M169.295 233.918H172.748V237.309H169.295V233.918Z" fill="#B3B3B3"/>
<path d="M169.295 109.6H172.748V112.991H169.295V109.6Z" fill="#B3B3B3"/>
<path d="M181.957 233.918H185.41V237.309H181.957V233.918Z" fill="#B3B3B3"/>
<path d="M181.957 109.6H185.41V112.991H181.957V109.6Z" fill="#B3B3B3"/>
<path d="M194.618 233.918H198.072V237.309H194.618V233.918Z" fill="#B3B3B3"/>
<path d="M194.618 109.6H198.072V112.991H194.618V109.6Z" fill="#B3B3B3"/>
<path d="M207.28 233.918H210.734V237.309H207.28V233.918Z" fill="#B3B3B3"/>
<path d="M207.28 109.6H210.734V112.991H207.28V109.6Z" fill="#B3B3B3"/>
<path d="M219.942 233.918H223.395V237.309H219.942V233.918Z" fill="#B3B3B3"/>
<path d="M219.942 109.6H223.395V112.991H219.942V109.6Z" fill="#B3B3B3"/>
<path d="M232.604 233.918H236.057V237.309H232.604V233.918Z" fill="#B3B3B3"/>
<path d="M232.604 109.6H236.057V112.991H232.604V109.6Z" fill="#B3B3B3"/>
<path d="M245.266 233.918H248.719V237.309H245.266V233.918Z" fill="#B3B3B3"/>
<path d="M245.266 109.6H248.719V112.991H245.266V109.6Z" fill="#B3B3B3"/>
<path d="M257.928 233.918H261.381V237.309H257.928V233.918Z" fill="#B3B3B3"/>
<path d="M257.928 109.6H261.381V112.991H257.928V109.6Z" fill="#B3B3B3"/>
<path d="M270.59 233.918H274.043V237.309H270.59V233.918Z" fill="#B3B3B3"/>
<path d="M270.59 109.6H274.043V112.991H270.59V109.6Z" fill="#B3B3B3"/>
<path d="M283.251 233.918H286.705V237.309H283.251V233.918Z" fill="#B3B3B3"/>
<path d="M283.251 109.6H286.705V112.991H283.251V109.6Z" fill="#B3B3B3"/>
<path d="M295.913 233.918H299.367V237.309H295.913V233.918Z" fill="#B3B3B3"/>
<path d="M295.913 109.6H299.367V112.991H295.913V109.6Z" fill="#B3B3B3"/>
<path d="M308.575 233.918H312.028V237.309H308.575V233.918Z" fill="#B3B3B3"/>
<path d="M308.575 109.6H312.028V112.991H308.575V109.6Z" fill="#B3B3B3"/>
<path d="M68 245.22H71.4532V248.611H68V245.22Z" fill="#B3B3B3"/>
<path d="M68 120.902H71.4532V124.292H68V120.902Z" fill="#B3B3B3"/>
<path d="M80.6618 245.22H84.1151V248.611H80.6618V245.22Z" fill="#B3B3B3"/>
<path d="M80.6618 120.902H84.1151V124.292H80.6618V120.902Z" fill="#B3B3B3"/>
<path d="M93.3237 245.22H96.7769V248.611H93.3237V245.22Z" fill="#B3B3B3"/>
<path d="M93.3237 120.902H96.7769V124.292H93.3237V120.902Z" fill="#B3B3B3"/>
<path d="M105.986 245.22H109.439V248.611H105.986V245.22Z" fill="#B3B3B3"/>
<path d="M105.986 120.902H109.439V124.292H105.986V120.902Z" fill="#B3B3B3"/>
<path d="M118.647 245.22H122.101V248.611H118.647V245.22Z" fill="#B3B3B3"/>
<path d="M118.647 120.902H122.101V124.292H118.647V120.902Z" fill="#B3B3B3"/>
<path d="M131.309 245.22H134.762V248.611H131.309V245.22Z" fill="#B3B3B3"/>
<path d="M131.309 120.902H134.762V124.292H131.309V120.902Z" fill="#B3B3B3"/>
<path d="M143.971 245.22H147.424V248.611H143.971V245.22Z" fill="#B3B3B3"/>
<path d="M143.971 120.902H147.424V124.292H143.971V120.902Z" fill="#B3B3B3"/>
<path d="M156.633 245.22H160.086V248.611H156.633V245.22Z" fill="#B3B3B3"/>
<path d="M156.633 120.902H160.086V124.292H156.633V120.902Z" fill="#B3B3B3"/>
<path d="M169.295 245.22H172.748V248.611H169.295V245.22Z" fill="#B3B3B3"/>
<path d="M169.295 120.902H172.748V124.292H169.295V120.902Z" fill="#B3B3B3"/>
<path d="M181.957 245.22H185.41V248.611H181.957V245.22Z" fill="#B3B3B3"/>
<path d="M181.957 120.902H185.41V124.292H181.957V120.902Z" fill="#B3B3B3"/>
<path d="M194.618 245.22H198.072V248.611H194.618V245.22Z" fill="#B3B3B3"/>
<path d="M194.618 120.902H198.072V124.292H194.618V120.902Z" fill="#B3B3B3"/>
<path d="M207.28 245.22H210.734V248.611H207.28V245.22Z" fill="#B3B3B3"/>
<path d="M207.28 120.902H210.734V124.292H207.28V120.902Z" fill="#B3B3B3"/>
<path d="M219.942 245.22H223.395V248.611H219.942V245.22Z" fill="#B3B3B3"/>
<path d="M219.942 120.902H223.395V124.292H219.942V120.902Z" fill="#B3B3B3"/>
<path d="M232.604 245.22H236.057V248.611H232.604V245.22Z" fill="#B3B3B3"/>
<path d="M232.604 120.902H236.057V124.292H232.604V120.902Z" fill="#B3B3B3"/>
<path d="M245.266 245.22H248.719V248.611H245.266V245.22Z" fill="#B3B3B3"/>
<path d="M245.266 120.902H248.719V124.292H245.266V120.902Z" fill="#B3B3B3"/>
<path d="M257.928 245.22H261.381V248.611H257.928V245.22Z" fill="#B3B3B3"/>
<path d="M257.928 120.902H261.381V124.292H257.928V120.902Z" fill="#B3B3B3"/>
<path d="M270.59 245.22H274.043V248.611H270.59V245.22Z" fill="#B3B3B3"/>
<path d="M270.59 120.902H274.043V124.292H270.59V120.902Z" fill="#B3B3B3"/>
<path d="M283.251 245.22H286.705V248.611H283.251V245.22Z" fill="#B3B3B3"/>
<path d="M283.251 120.902H286.705V124.292H283.251V120.902Z" fill="#B3B3B3"/>
<path d="M295.913 245.22H299.367V248.611H295.913V245.22Z" fill="#B3B3B3"/>
<path d="M295.913 120.902H299.367V124.292H295.913V120.902Z" fill="#B3B3B3"/>
<path d="M308.575 245.22H312.028V248.611H308.575V245.22Z" fill="#B3B3B3"/>
<path d="M308.575 120.902H312.028V124.292H308.575V120.902Z" fill="#B3B3B3"/>
</g>
<g clip-path="url(#clip1)">
<path d="M429.705 227.964H184.295C180.833 227.964 178 225.131 178 221.669V142.467C178 139.004 180.833 136.172 184.295 136.172H429.705C433.167 136.172 436 139.004 436 142.467V221.669C436 225.131 433.167 227.964 429.705 227.964Z" fill="#1A78ED"/>
<path d="M329.528 189.736C328.268 190.964 327.698 192.731 327.997 194.462L330.536 209.276C331.286 213.64 326.706 216.964 322.788 214.907L309.486 207.912C307.929 207.093 306.071 207.093 304.514 207.912L296.934 211.898L291.212 214.907C287.293 216.964 282.714 213.64 283.464 209.276L286.003 194.462C286.302 192.731 285.73 190.964 284.472 189.736L273.709 179.246C270.54 176.156 272.288 170.774 276.667 170.14L291.542 167.979C293.278 167.727 294.784 166.637 295.56 165.058L302.211 151.582C304.173 147.612 309.827 147.612 311.789 151.582L313.639 155.328L318.44 165.058C319.216 166.637 320.722 167.727 322.458 167.979L337.333 170.14C341.712 170.774 343.458 176.156 340.291 179.246L329.528 189.736Z" fill="#FFA90B"/>
<path d="M248.053 189.736C246.795 190.964 246.224 192.731 246.521 194.462L249.061 209.276C249.811 213.64 245.232 216.964 241.313 214.907L228.013 207.912C226.454 207.093 224.598 207.093 223.039 207.912L215.46 211.898L209.738 214.907C205.819 216.964 201.245 213.64 201.991 209.276L204.534 194.462C204.827 192.731 204.256 190.964 202.997 189.736L192.233 179.246C189.066 176.156 190.812 170.774 195.192 170.14L210.067 167.979C211.803 167.727 213.309 166.637 214.086 165.058L220.738 151.582C222.698 147.612 228.357 147.612 230.314 151.582L232.166 155.328L236.965 165.058C237.742 166.637 239.246 167.727 240.982 167.979L255.859 170.14C260.239 170.774 261.985 176.156 258.818 179.246L248.053 189.736Z" fill="#FFA90B"/>
<path d="M411.002 189.736C409.744 190.964 409.171 192.731 409.466 194.462L412.009 209.276C412.753 213.64 408.181 216.964 404.262 214.907L390.959 207.912C389.402 207.093 387.546 207.093 385.987 207.912L378.409 211.898L372.685 214.907C368.768 216.964 364.189 213.64 364.939 209.276L367.477 194.462C367.776 192.731 367.205 190.964 365.945 189.736L355.182 179.246C354.863 178.937 354.596 178.6 354.375 178.25C353.247 176.467 353.348 174.268 354.375 172.601C355.147 171.341 356.446 170.386 358.141 170.14L373.016 167.979C374.752 167.727 376.258 166.637 377.035 165.058L383.684 151.582C385.641 147.612 391.302 147.612 393.262 151.582L395.115 155.328L399.914 165.058C400.689 166.637 402.195 167.727 403.931 167.979L418.808 170.14C423.188 170.774 424.934 176.156 421.765 179.246L411.002 189.736Z" fill="#FFA90B"/>
<path d="M329.528 189.735C328.268 190.964 327.697 192.731 327.997 194.462L330.536 209.276C331.286 213.64 326.705 216.964 322.788 214.907L309.486 207.912C307.929 207.093 306.071 207.093 304.514 207.912L296.934 211.897C296.662 211.1 296.577 210.213 296.741 209.276L299.278 194.462C299.577 192.731 299 190.964 297.743 189.735L286.979 179.246C283.81 176.156 285.562 170.774 289.942 170.14L304.813 167.979C306.553 167.727 308.053 166.636 308.836 165.058L313.639 155.328L318.44 165.058C319.216 166.636 320.722 167.727 322.458 167.979L337.333 170.14C341.712 170.774 343.458 176.156 340.291 179.246L329.528 189.735Z" fill="#FFC854"/>
<path d="M248.053 189.735C246.795 190.964 246.224 192.731 246.521 194.462L249.061 209.276C249.811 213.64 245.232 216.964 241.313 214.907L228.013 207.912C226.454 207.093 224.598 207.093 223.039 207.912L215.46 211.897C215.187 211.1 215.104 210.213 215.265 209.276L217.805 194.462C218.104 192.731 217.527 190.964 216.267 189.735L205.51 179.246C202.337 176.156 204.089 170.774 208.469 170.14L223.338 167.979C225.08 167.727 226.58 166.636 227.361 165.058L232.166 155.328L236.965 165.058C237.742 166.636 239.246 167.727 240.982 167.979L255.859 170.14C260.239 170.774 261.985 176.156 258.818 179.246L248.053 189.735Z" fill="#FFC854"/>
<path d="M411.002 189.735C409.744 190.964 409.171 192.731 409.466 194.462L412.009 209.276C412.753 213.64 408.181 216.964 404.262 214.907L390.959 207.912C389.402 207.093 387.546 207.093 385.987 207.912L378.409 211.897C378.135 211.1 378.051 210.213 378.214 209.276L380.753 194.462C381.053 192.731 380.476 190.964 379.216 189.735L368.453 179.246C365.284 176.156 367.038 170.774 371.417 170.14L386.286 167.979C388.029 167.727 389.528 166.636 390.31 165.058L395.115 155.328L399.914 165.058C400.689 166.636 402.195 167.727 403.931 167.979L418.808 170.14C423.188 170.774 424.934 176.156 421.765 179.246L411.002 189.735Z" fill="#FFC854"/>
<path d="M346.234 289.196V304.603C346.234 311.799 343.319 318.35 338.608 323.123C336.797 324.964 335.744 327.408 335.744 329.989V341.392C335.744 345.793 332.178 349.36 327.776 349.36H276.541C272.14 349.36 268.573 345.793 268.573 341.392V331.621C268.573 328.751 267.219 326.076 264.991 324.261C261.538 321.438 261.995 321.633 241.36 295.759C226.893 276.281 247.081 265.024 258.119 273.23C262.058 276.161 267.66 273.351 267.66 268.435V212.228C267.66 204.571 274.288 198.544 281.797 199.178C288.653 199.717 293.839 205.64 293.839 212.516V260.143C293.839 261.591 295.009 262.767 296.461 262.767H319.804C334.339 262.767 346.234 274.658 346.234 289.196Z" fill="#F2BB88"/>
<path d="M346.234 289.196V304.603C346.234 311.799 343.319 318.35 338.608 323.123C335.152 326.639 335.744 330.117 335.744 335.27C304.518 330.865 280.506 304.036 280.506 271.599V199.141C287.842 198.961 293.839 205.097 293.839 212.516V260.143C293.839 261.591 295.009 262.767 296.461 262.767H319.804C334.339 262.767 346.234 274.658 346.234 289.196Z" fill="#F2D1A5"/>
</g>
<g clip-path="url(#clip2)">
<path d="M107.547 87.9405L109.122 88.2372C116.657 88.617 120.41 83.1271 120.41 77.6377V48.455C120.41 42.9656 115.96 38.5156 110.471 38.5156H68.8042C63.3148 38.5156 58.8645 42.9656 58.8645 48.4553V77.6382C58.8645 83.1276 63.3145 87.5779 68.8042 87.5779H106.063C106.584 87.5773 107.093 87.7043 107.547 87.9405Z" fill="#FD6F55"/>
<path d="M126.055 38.5154H108.745C114.234 38.5154 118.684 42.9654 118.684 48.4551V77.638C118.684 83.1274 114.234 87.5776 108.745 87.5776C108.298 87.5776 107.888 87.7136 107.548 87.9408C107.813 88.0786 108.061 88.2534 108.281 88.4627L124.407 103.77C125.161 104.486 126.39 103.822 126.206 102.8L123.757 89.2019C123.604 88.3557 124.255 87.5776 125.114 87.5776H126.055C131.544 87.5776 135.994 83.1276 135.994 77.638V48.4551C135.994 42.9654 131.544 38.5154 126.055 38.5154Z" fill="#DD5F48"/>
<path d="M60.09 61.739H11.1993C5.01716 61.739 0.00561523 66.7506 0.00561523 72.9327V106.234C0.00561523 112.416 5.01716 117.428 11.1993 117.428H12.2584H12.3925C13.5222 117.428 14.5704 118.015 15.1595 118.979L15.3619 119.31H28.466L29.7277 118.36C30.532 117.755 31.5117 117.428 32.5184 117.428H60.0889C66.2711 117.428 71.2826 112.416 71.2826 106.234V72.9324C71.2829 66.7506 66.2719 61.7393 60.09 61.739Z" fill="#6EC1B1"/>
<path d="M12.2584 117.427C13.2268 117.427 13.9592 118.304 13.7876 119.257L11.0296 134.57C10.8221 135.722 12.2066 136.469 13.0552 135.663L31.2155 118.424C31.8896 117.784 32.7837 117.427 33.7134 117.427H12.2584Z" fill="#5DAE9F"/>
<path d="M75.6732 61.739H58.3627C64.5448 61.739 69.5564 66.7506 69.5564 72.9327V106.234C69.5564 112.416 64.5448 117.428 58.3627 117.428H75.6732C81.8554 117.428 86.8669 112.416 86.8669 106.234V72.9324C86.8669 66.7506 81.8554 61.739 75.6732 61.739Z" fill="#5DAE9F"/>
<path d="M40.4457 0H6.00393C2.74976 0 0.111572 2.63819 0.111572 5.89236V26.5086C0.111572 29.763 2.74976 32.4009 6.00393 32.4009H21.7287C22.8762 32.4009 23.9419 32.9943 24.5462 33.9697L24.5924 34.0441H37.8516L38.1403 33.6486C38.7127 32.8645 39.6251 32.4009 40.5957 32.4009H41.0545H42.449C44.9119 31.6946 46.338 29.1983 46.338 26.5086V5.89236C46.338 2.63819 43.7001 0 40.4457 0V0Z" fill="#FFC854"/>
<path d="M56.3617 0H39.0511C42.3056 0 44.9435 2.63819 44.9435 5.89236V26.5086C44.9435 29.1983 43.5174 31.6949 41.0545 32.4009H56.3617C59.6158 32.4009 62.254 29.7627 62.254 26.5086V5.89236C62.254 2.63819 59.6158 0 56.3617 0V0Z" fill="#ECBB53"/>
<path d="M71.5278 79.0922H15.3449C14.2115 79.0922 13.2927 78.1734 13.2927 77.04C13.2927 75.9066 14.2115 74.9878 15.3449 74.9878H71.5278C72.6615 74.9878 73.58 75.9066 73.58 77.04C73.58 78.1734 72.6612 79.0922 71.5278 79.0922Z" fill="#F0F7FF"/>
<path d="M71.5278 92.0432H15.3449C14.2115 92.0432 13.2927 91.1244 13.2927 89.9909C13.2927 88.8575 14.2115 87.9387 15.3449 87.9387H71.5278C72.6615 87.9387 73.58 88.8575 73.58 89.9909C73.58 91.1244 72.6612 92.0432 71.5278 92.0432Z" fill="#F0F7FF"/>
<path d="M43.4364 104.995H15.3449C14.2115 104.995 13.2927 104.076 13.2927 102.943C13.2927 101.809 14.2115 100.89 15.3449 100.89H43.4364C44.5698 100.89 45.4886 101.809 45.4886 102.943C45.4886 104.076 44.5698 104.995 43.4364 104.995Z" fill="#F0F7FF"/>
<path d="M125.521 53.1892H69.3376C68.2042 53.1892 67.2854 52.2704 67.2854 51.1369C67.2854 50.0035 68.2042 49.0847 69.3376 49.0847H125.521C126.654 49.0847 127.573 50.0035 127.573 51.1369C127.573 52.2704 126.654 53.1892 125.521 53.1892Z" fill="#F0F7FF"/>
<path d="M125.521 66.1403H97.4294C96.2957 66.1403 95.3772 65.2215 95.3772 64.0881C95.3772 62.9544 96.296 62.0359 97.4294 62.0359H125.521C126.655 62.0359 127.573 62.9547 127.573 64.0881C127.573 65.2215 126.655 66.1403 125.521 66.1403Z" fill="#F0F7FF"/>
<path d="M51.706 13.6186H10.6595C9.5261 13.6186 8.6073 12.6998 8.6073 11.5664C8.6073 10.433 9.5261 9.51416 10.6595 9.51416H51.706C52.8394 9.51416 53.7582 10.433 53.7582 11.5664C53.7582 12.6998 52.8394 13.6186 51.706 13.6186Z" fill="#F0F7FF"/>
<path d="M31.1828 23.8793H10.6595C9.5261 23.8793 8.6073 22.9605 8.6073 21.8271C8.6073 20.6934 9.5261 19.7749 10.6595 19.7749H31.1828C32.3162 19.7749 33.235 20.6937 33.235 21.8271C33.235 22.9608 32.3162 23.8793 31.1828 23.8793Z" fill="#F0F7FF"/>
<path d="M23.1634 33.4687L29.7012 44.7562C30.3607 45.8949 32.0047 45.8949 32.6645 44.7562L39.2021 33.4687C39.5848 32.8078 40.2909 32.4009 41.0545 32.4009H21.3112C22.0748 32.4009 22.7806 32.8078 23.1634 33.4687Z" fill="#ECBB53"/>
</g>
<defs>
<clipPath id="clip0">
<rect width="253" height="203" fill="white" transform="translate(68 51)"/>
</clipPath>
<clipPath id="clip1">
<rect width="258" height="258" fill="white" transform="translate(178 114)"/>
</clipPath>
<clipPath id="clip2">
<rect width="136" height="136" fill="white"/>
</clipPath>
</defs>
</svg>
