<svg width="1919" height="369" viewBox="0 0 1919 369" fill="none" xmlns="http://www.w3.org/2000/svg">
<path d="M-120.565 192.853H-116.682V196.736H-120.565V192.853Z" fill="white"/>
<path d="M-120.565 50.478H-116.682V54.361H-120.565V50.478Z" fill="white"/>
<path d="M-106.328 192.853H-102.445V196.736H-106.328V192.853Z" fill="white"/>
<path d="M-106.328 50.478H-102.445V54.361H-106.328V50.478Z" fill="white"/>
<path d="M-92.0905 192.853H-88.2076V196.736H-92.0905V192.853Z" fill="white"/>
<path d="M-92.0905 50.478H-88.2076V54.361H-92.0905V50.478Z" fill="white"/>
<path d="M-77.8531 192.853H-73.9701V196.736H-77.8531V192.853Z" fill="white"/>
<path d="M-77.8531 50.478H-73.9701V54.361H-77.8531V50.478Z" fill="white"/>
<path d="M-63.6156 192.853H-59.7327V196.736H-63.6156V192.853Z" fill="white"/>
<path d="M-63.6156 50.478H-59.7327V54.361H-63.6156V50.478Z" fill="white"/>
<path d="M-49.3781 192.853H-45.4952V196.736H-49.3781V192.853Z" fill="white"/>
<path d="M-49.3781 50.478H-45.4952V54.361H-49.3781V50.478Z" fill="white"/>
<path d="M-35.1407 192.853H-31.2577V196.736H-35.1407V192.853Z" fill="white"/>
<path d="M-35.1407 50.478H-31.2577V54.361H-35.1407V50.478Z" fill="white"/>
<path d="M-20.9032 192.853H-17.0203V196.736H-20.9032V192.853Z" fill="white"/>
<path d="M-20.9032 50.478H-17.0203V54.361H-20.9032V50.478Z" fill="white"/>
<path d="M-6.66576 192.853H-2.78282V196.736H-6.66576V192.853Z" fill="white"/>
<path d="M-6.66576 50.478H-2.78282V54.361H-6.66576V50.478Z" fill="white"/>
<path d="M7.5717 192.853H11.4546V196.736H7.5717V192.853Z" fill="white"/>
<path d="M7.5717 50.478H11.4546V54.361H7.5717V50.478Z" fill="white"/>
<path d="M21.8092 192.853H25.6921V196.736H21.8092V192.853Z" fill="white"/>
<path d="M21.8092 50.478H25.6921V54.361H21.8092V50.478Z" fill="white"/>
<path d="M36.0466 192.853H39.9296V196.736H36.0466V192.853Z" fill="white"/>
<path d="M36.0466 50.478H39.9296V54.361H36.0466V50.478Z" fill="white"/>
<path d="M50.2841 192.853H54.167V196.736H50.2841V192.853Z" fill="white"/>
<path d="M50.2841 50.478H54.167V54.361H50.2841V50.478Z" fill="white"/>
<path d="M64.5215 192.853H68.4045V196.736H64.5215V192.853Z" fill="white"/>
<path d="M64.5215 50.478H68.4045V54.361H64.5215V50.478Z" fill="white"/>
<path d="M78.759 192.853H82.6419V196.736H78.759V192.853Z" fill="white"/>
<path d="M78.759 50.478H82.6419V54.361H78.759V50.478Z" fill="white"/>
<path d="M92.9964 192.853H96.8794V196.736H92.9964V192.853Z" fill="white"/>
<path d="M92.9964 50.478H96.8794V54.361H92.9964V50.478Z" fill="white"/>
<path d="M107.234 192.853H111.117V196.736H107.234V192.853Z" fill="white"/>
<path d="M107.234 50.478H111.117V54.361H107.234V50.478Z" fill="white"/>
<path d="M121.471 192.853H125.354V196.736H121.471V192.853Z" fill="white"/>
<path d="M121.471 50.478H125.354V54.361H121.471V50.478Z" fill="white"/>
<path d="M135.709 192.853H139.592V196.736H135.709V192.853Z" fill="white"/>
<path d="M135.709 50.478H139.592V54.361H135.709V50.478Z" fill="white"/>
<path d="M149.946 192.853H153.829V196.736H149.946V192.853Z" fill="white"/>
<path d="M149.946 50.478H153.829V54.361H149.946V50.478Z" fill="white"/>
<path d="M-120.565 205.796H-116.682V209.679H-120.565V205.796Z" fill="white"/>
<path d="M-120.565 63.4212H-116.682V67.3041H-120.565V63.4212Z" fill="white"/>
<path d="M-106.328 205.796H-102.445V209.679H-106.328V205.796Z" fill="white"/>
<path d="M-106.328 63.4212H-102.445V67.3041H-106.328V63.4212Z" fill="white"/>
<path d="M-92.0905 205.796H-88.2076V209.679H-92.0905V205.796Z" fill="white"/>
<path d="M-92.0905 63.4212H-88.2076V67.3041H-92.0905V63.4212Z" fill="white"/>
<path d="M-77.8531 205.796H-73.9701V209.679H-77.8531V205.796Z" fill="white"/>
<path d="M-77.8531 63.4212H-73.9701V67.3041H-77.8531V63.4212Z" fill="white"/>
<path d="M-63.6156 205.796H-59.7327V209.679H-63.6156V205.796Z" fill="white"/>
<path d="M-63.6156 63.4212H-59.7327V67.3041H-63.6156V63.4212Z" fill="white"/>
<path d="M-49.3781 205.796H-45.4952V209.679H-49.3781V205.796Z" fill="white"/>
<path d="M-49.3781 63.4212H-45.4952V67.3041H-49.3781V63.4212Z" fill="white"/>
<path d="M-35.1407 205.796H-31.2577V209.679H-35.1407V205.796Z" fill="white"/>
<path d="M-35.1407 63.4212H-31.2577V67.3041H-35.1407V63.4212Z" fill="white"/>
<path d="M-20.9032 205.796H-17.0203V209.679H-20.9032V205.796Z" fill="white"/>
<path d="M-20.9032 63.4212H-17.0203V67.3041H-20.9032V63.4212Z" fill="white"/>
<path d="M-6.66576 205.796H-2.78282V209.679H-6.66576V205.796Z" fill="white"/>
<path d="M-6.66576 63.4212H-2.78282V67.3041H-6.66576V63.4212Z" fill="white"/>
<path d="M7.5717 205.796H11.4546V209.679H7.5717V205.796Z" fill="white"/>
<path d="M7.5717 63.4212H11.4546V67.3041H7.5717V63.4212Z" fill="white"/>
<path d="M21.8092 205.796H25.6921V209.679H21.8092V205.796Z" fill="white"/>
<path d="M21.8092 63.4212H25.6921V67.3041H21.8092V63.4212Z" fill="white"/>
<path d="M36.0466 205.796H39.9296V209.679H36.0466V205.796Z" fill="white"/>
<path d="M36.0466 63.4212H39.9296V67.3041H36.0466V63.4212Z" fill="white"/>
<path d="M50.2841 205.796H54.167V209.679H50.2841V205.796Z" fill="white"/>
<path d="M50.2841 63.4212H54.167V67.3041H50.2841V63.4212Z" fill="white"/>
<path d="M64.5215 205.796H68.4045V209.679H64.5215V205.796Z" fill="white"/>
<path d="M64.5215 63.4212H68.4045V67.3041H64.5215V63.4212Z" fill="white"/>
<path d="M78.759 205.796H82.6419V209.679H78.759V205.796Z" fill="white"/>
<path d="M78.759 63.4212H82.6419V67.3041H78.759V63.4212Z" fill="white"/>
<path d="M92.9964 205.796H96.8794V209.679H92.9964V205.796Z" fill="white"/>
<path d="M92.9964 63.4212H96.8794V67.3041H92.9964V63.4212Z" fill="white"/>
<path d="M107.234 205.796H111.117V209.679H107.234V205.796Z" fill="white"/>
<path d="M107.234 63.4212H111.117V67.3041H107.234V63.4212Z" fill="white"/>
<path d="M121.471 205.796H125.354V209.679H121.471V205.796Z" fill="white"/>
<path d="M121.471 63.4212H125.354V67.3041H121.471V63.4212Z" fill="white"/>
<path d="M135.709 205.796H139.592V209.679H135.709V205.796Z" fill="white"/>
<path d="M135.709 63.4212H139.592V67.3041H135.709V63.4212Z" fill="white"/>
<path d="M149.946 205.796H153.829V209.679H149.946V205.796Z" fill="white"/>
<path d="M149.946 63.4212H153.829V67.3041H149.946V63.4212Z" fill="white"/>
<path d="M-120.565 218.739H-116.682V222.622H-120.565V218.739Z" fill="white"/>
<path d="M-120.565 76.3643H-116.682V80.2473H-120.565V76.3643Z" fill="white"/>
<path d="M-106.328 218.739H-102.445V222.622H-106.328V218.739Z" fill="white"/>
<path d="M-106.328 76.3643H-102.445V80.2473H-106.328V76.3643Z" fill="white"/>
<path d="M-92.0905 218.739H-88.2076V222.622H-92.0905V218.739Z" fill="white"/>
<path d="M-92.0905 76.3643H-88.2076V80.2473H-92.0905V76.3643Z" fill="white"/>
<path d="M-77.8531 218.739H-73.9701V222.622H-77.8531V218.739Z" fill="white"/>
<path d="M-77.8531 76.3643H-73.9701V80.2473H-77.8531V76.3643Z" fill="white"/>
<path d="M-63.6156 218.739H-59.7327V222.622H-63.6156V218.739Z" fill="white"/>
<path d="M-63.6156 76.3643H-59.7327V80.2473H-63.6156V76.3643Z" fill="white"/>
<path d="M-49.3781 218.739H-45.4952V222.622H-49.3781V218.739Z" fill="white"/>
<path d="M-49.3781 76.3643H-45.4952V80.2473H-49.3781V76.3643Z" fill="white"/>
<path d="M-35.1407 218.739H-31.2577V222.622H-35.1407V218.739Z" fill="white"/>
<path d="M-35.1407 76.3643H-31.2577V80.2473H-35.1407V76.3643Z" fill="white"/>
<path d="M-20.9032 218.739H-17.0203V222.622H-20.9032V218.739Z" fill="white"/>
<path d="M-20.9032 76.3643H-17.0203V80.2473H-20.9032V76.3643Z" fill="white"/>
<path d="M-6.66576 218.739H-2.78282V222.622H-6.66576V218.739Z" fill="white"/>
<path d="M-6.66576 76.3643H-2.78282V80.2473H-6.66576V76.3643Z" fill="white"/>
<path d="M7.5717 218.739H11.4546V222.622H7.5717V218.739Z" fill="white"/>
<path d="M7.5717 76.3643H11.4546V80.2473H7.5717V76.3643Z" fill="white"/>
<path d="M21.8092 218.739H25.6921V222.622H21.8092V218.739Z" fill="white"/>
<path d="M21.8092 76.3643H25.6921V80.2473H21.8092V76.3643Z" fill="white"/>
<path d="M36.0466 218.739H39.9296V222.622H36.0466V218.739Z" fill="white"/>
<path d="M36.0466 76.3643H39.9296V80.2473H36.0466V76.3643Z" fill="white"/>
<path d="M50.2841 218.739H54.167V222.622H50.2841V218.739Z" fill="white"/>
<path d="M50.2841 76.3643H54.167V80.2473H50.2841V76.3643Z" fill="white"/>
<path d="M64.5215 218.739H68.4045V222.622H64.5215V218.739Z" fill="white"/>
<path d="M64.5215 76.3643H68.4045V80.2473H64.5215V76.3643Z" fill="white"/>
<path d="M78.759 218.739H82.6419V222.622H78.759V218.739Z" fill="white"/>
<path d="M78.759 76.3643H82.6419V80.2473H78.759V76.3643Z" fill="white"/>
<path d="M92.9964 218.739H96.8794V222.622H92.9964V218.739Z" fill="white"/>
<path d="M92.9964 76.3643H96.8794V80.2473H92.9964V76.3643Z" fill="white"/>
<path d="M107.234 218.739H111.117V222.622H107.234V218.739Z" fill="white"/>
<path d="M107.234 76.3643H111.117V80.2473H107.234V76.3643Z" fill="white"/>
<path d="M121.471 218.739H125.354V222.622H121.471V218.739Z" fill="white"/>
<path d="M121.471 76.3643H125.354V80.2473H121.471V76.3643Z" fill="white"/>
<path d="M135.709 218.739H139.592V222.622H135.709V218.739Z" fill="white"/>
<path d="M135.709 76.3643H139.592V80.2473H135.709V76.3643Z" fill="white"/>
<path d="M149.946 218.739H153.829V222.622H149.946V218.739Z" fill="white"/>
<path d="M149.946 76.3643H153.829V80.2473H149.946V76.3643Z" fill="white"/>
<path d="M-120.565 231.682H-116.682V235.565H-120.565V231.682Z" fill="white"/>
<path d="M-120.565 89.3075H-116.682V93.1904H-120.565V89.3075Z" fill="white"/>
<path d="M-106.328 231.682H-102.445V235.565H-106.328V231.682Z" fill="white"/>
<path d="M-106.328 89.3075H-102.445V93.1904H-106.328V89.3075Z" fill="white"/>
<path d="M-92.0905 231.682H-88.2076V235.565H-92.0905V231.682Z" fill="white"/>
<path d="M-92.0905 89.3075H-88.2076V93.1904H-92.0905V89.3075Z" fill="white"/>
<path d="M-77.8531 231.682H-73.9701V235.565H-77.8531V231.682Z" fill="white"/>
<path d="M-77.8531 89.3075H-73.9701V93.1904H-77.8531V89.3075Z" fill="white"/>
<path d="M-63.6156 231.682H-59.7327V235.565H-63.6156V231.682Z" fill="white"/>
<path d="M-63.6156 89.3075H-59.7327V93.1904H-63.6156V89.3075Z" fill="white"/>
<path d="M-49.3781 231.682H-45.4952V235.565H-49.3781V231.682Z" fill="white"/>
<path d="M-49.3781 89.3075H-45.4952V93.1904H-49.3781V89.3075Z" fill="white"/>
<path d="M-35.1407 231.682H-31.2577V235.565H-35.1407V231.682Z" fill="white"/>
<path d="M-35.1407 89.3075H-31.2577V93.1904H-35.1407V89.3075Z" fill="white"/>
<path d="M-20.9032 231.682H-17.0203V235.565H-20.9032V231.682Z" fill="white"/>
<path d="M-20.9032 89.3075H-17.0203V93.1904H-20.9032V89.3075Z" fill="white"/>
<path d="M-6.66576 231.682H-2.78282V235.565H-6.66576V231.682Z" fill="white"/>
<path d="M-6.66576 89.3075H-2.78282V93.1904H-6.66576V89.3075Z" fill="white"/>
<path d="M7.5717 231.682H11.4546V235.565H7.5717V231.682Z" fill="white"/>
<path d="M7.5717 89.3075H11.4546V93.1904H7.5717V89.3075Z" fill="white"/>
<path d="M21.8092 231.682H25.6921V235.565H21.8092V231.682Z" fill="white"/>
<path d="M21.8092 89.3075H25.6921V93.1904H21.8092V89.3075Z" fill="white"/>
<path d="M36.0466 231.682H39.9296V235.565H36.0466V231.682Z" fill="white"/>
<path d="M36.0466 89.3075H39.9296V93.1904H36.0466V89.3075Z" fill="white"/>
<path d="M50.2841 231.682H54.167V235.565H50.2841V231.682Z" fill="white"/>
<path d="M50.2841 89.3075H54.167V93.1904H50.2841V89.3075Z" fill="white"/>
<path d="M64.5215 231.682H68.4045V235.565H64.5215V231.682Z" fill="white"/>
<path d="M64.5215 89.3075H68.4045V93.1904H64.5215V89.3075Z" fill="white"/>
<path d="M78.759 231.682H82.6419V235.565H78.759V231.682Z" fill="white"/>
<path d="M78.759 89.3075H82.6419V93.1904H78.759V89.3075Z" fill="white"/>
<path d="M92.9964 231.682H96.8794V235.565H92.9964V231.682Z" fill="white"/>
<path d="M92.9964 89.3075H96.8794V93.1904H92.9964V89.3075Z" fill="white"/>
<path d="M107.234 231.682H111.117V235.565H107.234V231.682Z" fill="white"/>
<path d="M107.234 89.3075H111.117V93.1904H107.234V89.3075Z" fill="white"/>
<path d="M121.471 231.682H125.354V235.565H121.471V231.682Z" fill="white"/>
<path d="M121.471 89.3075H125.354V93.1904H121.471V89.3075Z" fill="white"/>
<path d="M135.709 231.682H139.592V235.565H135.709V231.682Z" fill="white"/>
<path d="M135.709 89.3075H139.592V93.1904H135.709V89.3075Z" fill="white"/>
<path d="M149.946 231.682H153.829V235.565H149.946V231.682Z" fill="white"/>
<path d="M149.946 89.3075H153.829V93.1904H149.946V89.3075Z" fill="white"/>
<path d="M-120.565 244.625H-116.682V248.508H-120.565V244.625Z" fill="white"/>
<path d="M-120.565 102.251H-116.682V106.134H-120.565V102.251Z" fill="white"/>
<path d="M-106.328 244.625H-102.445V248.508H-106.328V244.625Z" fill="white"/>
<path d="M-106.328 102.251H-102.445V106.134H-106.328V102.251Z" fill="white"/>
<path d="M-92.0905 244.625H-88.2076V248.508H-92.0905V244.625Z" fill="white"/>
<path d="M-92.0905 102.251H-88.2076V106.134H-92.0905V102.251Z" fill="white"/>
<path d="M-77.8531 244.625H-73.9701V248.508H-77.8531V244.625Z" fill="white"/>
<path d="M-77.8531 102.251H-73.9701V106.134H-77.8531V102.251Z" fill="white"/>
<path d="M-63.6156 244.625H-59.7327V248.508H-63.6156V244.625Z" fill="white"/>
<path d="M-63.6156 102.251H-59.7327V106.134H-63.6156V102.251Z" fill="white"/>
<path d="M-49.3781 244.625H-45.4952V248.508H-49.3781V244.625Z" fill="white"/>
<path d="M-49.3781 102.251H-45.4952V106.134H-49.3781V102.251Z" fill="white"/>
<path d="M-35.1407 244.625H-31.2577V248.508H-35.1407V244.625Z" fill="white"/>
<path d="M-35.1407 102.251H-31.2577V106.134H-35.1407V102.251Z" fill="white"/>
<path d="M-20.9032 244.625H-17.0203V248.508H-20.9032V244.625Z" fill="white"/>
<path d="M-20.9032 102.251H-17.0203V106.134H-20.9032V102.251Z" fill="white"/>
<path d="M-6.66576 244.625H-2.78282V248.508H-6.66576V244.625Z" fill="white"/>
<path d="M-6.66576 102.251H-2.78282V106.134H-6.66576V102.251Z" fill="white"/>
<path d="M7.5717 244.625H11.4546V248.508H7.5717V244.625Z" fill="white"/>
<path d="M7.5717 102.251H11.4546V106.134H7.5717V102.251Z" fill="white"/>
<path d="M21.8092 244.625H25.6921V248.508H21.8092V244.625Z" fill="white"/>
<path d="M21.8092 102.251H25.6921V106.134H21.8092V102.251Z" fill="white"/>
<path d="M36.0466 244.625H39.9296V248.508H36.0466V244.625Z" fill="white"/>
<path d="M36.0466 102.251H39.9296V106.134H36.0466V102.251Z" fill="white"/>
<path d="M50.2841 244.625H54.167V248.508H50.2841V244.625Z" fill="white"/>
<path d="M50.2841 102.251H54.167V106.134H50.2841V102.251Z" fill="white"/>
<path d="M64.5215 244.625H68.4045V248.508H64.5215V244.625Z" fill="white"/>
<path d="M64.5215 102.251H68.4045V106.134H64.5215V102.251Z" fill="white"/>
<path d="M78.759 244.625H82.6419V248.508H78.759V244.625Z" fill="white"/>
<path d="M78.759 102.251H82.6419V106.134H78.759V102.251Z" fill="white"/>
<path d="M92.9964 244.625H96.8794V248.508H92.9964V244.625Z" fill="white"/>
<path d="M92.9964 102.251H96.8794V106.134H92.9964V102.251Z" fill="white"/>
<path d="M107.234 244.625H111.117V248.508H107.234V244.625Z" fill="white"/>
<path d="M107.234 102.251H111.117V106.134H107.234V102.251Z" fill="white"/>
<path d="M121.471 244.625H125.354V248.508H121.471V244.625Z" fill="white"/>
<path d="M121.471 102.251H125.354V106.134H121.471V102.251Z" fill="white"/>
<path d="M135.709 244.625H139.592V248.508H135.709V244.625Z" fill="white"/>
<path d="M135.709 102.251H139.592V106.134H135.709V102.251Z" fill="white"/>
<path d="M149.946 244.625H153.829V248.508H149.946V244.625Z" fill="white"/>
<path d="M149.946 102.251H153.829V106.134H149.946V102.251Z" fill="white"/>
<path d="M-120.565 257.568H-116.682V261.451H-120.565V257.568Z" fill="white"/>
<path d="M-120.565 115.194H-116.682V119.077H-120.565V115.194Z" fill="white"/>
<path d="M-106.328 257.568H-102.445V261.451H-106.328V257.568Z" fill="white"/>
<path d="M-106.328 115.194H-102.445V119.077H-106.328V115.194Z" fill="white"/>
<path d="M-92.0905 257.568H-88.2076V261.451H-92.0905V257.568Z" fill="white"/>
<path d="M-92.0905 115.194H-88.2076V119.077H-92.0905V115.194Z" fill="white"/>
<path d="M-77.8531 257.568H-73.9701V261.451H-77.8531V257.568Z" fill="white"/>
<path d="M-77.8531 115.194H-73.9701V119.077H-77.8531V115.194Z" fill="white"/>
<path d="M-63.6156 257.568H-59.7327V261.451H-63.6156V257.568Z" fill="white"/>
<path d="M-63.6156 115.194H-59.7327V119.077H-63.6156V115.194Z" fill="white"/>
<path d="M-49.3781 257.568H-45.4952V261.451H-49.3781V257.568Z" fill="white"/>
<path d="M-49.3781 115.194H-45.4952V119.077H-49.3781V115.194Z" fill="white"/>
<path d="M-35.1407 257.568H-31.2577V261.451H-35.1407V257.568Z" fill="white"/>
<path d="M-35.1407 115.194H-31.2577V119.077H-35.1407V115.194Z" fill="white"/>
<path d="M-20.9032 257.568H-17.0203V261.451H-20.9032V257.568Z" fill="white"/>
<path d="M-20.9032 115.194H-17.0203V119.077H-20.9032V115.194Z" fill="white"/>
<path d="M-6.66576 257.568H-2.78282V261.451H-6.66576V257.568Z" fill="white"/>
<path d="M-6.66576 115.194H-2.78282V119.077H-6.66576V115.194Z" fill="white"/>
<path d="M7.5717 257.568H11.4546V261.451H7.5717V257.568Z" fill="white"/>
<path d="M7.5717 115.194H11.4546V119.077H7.5717V115.194Z" fill="white"/>
<path d="M21.8092 257.568H25.6921V261.451H21.8092V257.568Z" fill="white"/>
<path d="M21.8092 115.194H25.6921V119.077H21.8092V115.194Z" fill="white"/>
<path d="M36.0466 257.568H39.9296V261.451H36.0466V257.568Z" fill="white"/>
<path d="M36.0466 115.194H39.9296V119.077H36.0466V115.194Z" fill="white"/>
<path d="M50.2841 257.568H54.167V261.451H50.2841V257.568Z" fill="white"/>
<path d="M50.2841 115.194H54.167V119.077H50.2841V115.194Z" fill="white"/>
<path d="M64.5215 257.568H68.4045V261.451H64.5215V257.568Z" fill="white"/>
<path d="M64.5215 115.194H68.4045V119.077H64.5215V115.194Z" fill="white"/>
<path d="M78.759 257.568H82.6419V261.451H78.759V257.568Z" fill="white"/>
<path d="M78.759 115.194H82.6419V119.077H78.759V115.194Z" fill="white"/>
<path d="M92.9964 257.568H96.8794V261.451H92.9964V257.568Z" fill="white"/>
<path d="M92.9964 115.194H96.8794V119.077H92.9964V115.194Z" fill="white"/>
<path d="M107.234 257.568H111.117V261.451H107.234V257.568Z" fill="white"/>
<path d="M107.234 115.194H111.117V119.077H107.234V115.194Z" fill="white"/>
<path d="M121.471 257.568H125.354V261.451H121.471V257.568Z" fill="white"/>
<path d="M121.471 115.194H125.354V119.077H121.471V115.194Z" fill="white"/>
<path d="M135.709 257.568H139.592V261.451H135.709V257.568Z" fill="white"/>
<path d="M135.709 115.194H139.592V119.077H135.709V115.194Z" fill="white"/>
<path d="M149.946 257.568H153.829V261.451H149.946V257.568Z" fill="white"/>
<path d="M149.946 115.194H153.829V119.077H149.946V115.194Z" fill="white"/>
<path d="M-120.565 270.511H-116.682V274.394H-120.565V270.511Z" fill="white"/>
<path d="M-120.565 128.137H-116.682V132.02H-120.565V128.137Z" fill="white"/>
<path d="M-106.328 270.511H-102.445V274.394H-106.328V270.511Z" fill="white"/>
<path d="M-106.328 128.137H-102.445V132.02H-106.328V128.137Z" fill="white"/>
<path d="M-92.0905 270.511H-88.2076V274.394H-92.0905V270.511Z" fill="white"/>
<path d="M-92.0905 128.137H-88.2076V132.02H-92.0905V128.137Z" fill="white"/>
<path d="M-77.8531 270.511H-73.9701V274.394H-77.8531V270.511Z" fill="white"/>
<path d="M-77.8531 128.137H-73.9701V132.02H-77.8531V128.137Z" fill="white"/>
<path d="M-63.6156 270.511H-59.7327V274.394H-63.6156V270.511Z" fill="white"/>
<path d="M-63.6156 128.137H-59.7327V132.02H-63.6156V128.137Z" fill="white"/>
<path d="M-49.3781 270.511H-45.4952V274.394H-49.3781V270.511Z" fill="white"/>
<path d="M-49.3781 128.137H-45.4952V132.02H-49.3781V128.137Z" fill="white"/>
<path d="M-35.1407 270.511H-31.2577V274.394H-35.1407V270.511Z" fill="white"/>
<path d="M-35.1407 128.137H-31.2577V132.02H-35.1407V128.137Z" fill="white"/>
<path d="M-20.9032 270.511H-17.0203V274.394H-20.9032V270.511Z" fill="white"/>
<path d="M-20.9032 128.137H-17.0203V132.02H-20.9032V128.137Z" fill="white"/>
<path d="M-6.66576 270.511H-2.78282V274.394H-6.66576V270.511Z" fill="white"/>
<path d="M-6.66576 128.137H-2.78282V132.02H-6.66576V128.137Z" fill="white"/>
<path d="M7.5717 270.511H11.4546V274.394H7.5717V270.511Z" fill="white"/>
<path d="M7.5717 128.137H11.4546V132.02H7.5717V128.137Z" fill="white"/>
<path d="M21.8092 270.511H25.6921V274.394H21.8092V270.511Z" fill="white"/>
<path d="M21.8092 128.137H25.6921V132.02H21.8092V128.137Z" fill="white"/>
<path d="M36.0466 270.511H39.9296V274.394H36.0466V270.511Z" fill="white"/>
<path d="M36.0466 128.137H39.9296V132.02H36.0466V128.137Z" fill="white"/>
<path d="M50.2841 270.511H54.167V274.394H50.2841V270.511Z" fill="white"/>
<path d="M50.2841 128.137H54.167V132.02H50.2841V128.137Z" fill="white"/>
<path d="M64.5215 270.511H68.4045V274.394H64.5215V270.511Z" fill="white"/>
<path d="M64.5215 128.137H68.4045V132.02H64.5215V128.137Z" fill="white"/>
<path d="M78.759 270.511H82.6419V274.394H78.759V270.511Z" fill="white"/>
<path d="M78.759 128.137H82.6419V132.02H78.759V128.137Z" fill="white"/>
<path d="M92.9964 270.511H96.8794V274.394H92.9964V270.511Z" fill="white"/>
<path d="M92.9964 128.137H96.8794V132.02H92.9964V128.137Z" fill="white"/>
<path d="M107.234 270.511H111.117V274.394H107.234V270.511Z" fill="white"/>
<path d="M107.234 128.137H111.117V132.02H107.234V128.137Z" fill="white"/>
<path d="M121.471 270.511H125.354V274.394H121.471V270.511Z" fill="white"/>
<path d="M121.471 128.137H125.354V132.02H121.471V128.137Z" fill="white"/>
<path d="M135.709 270.511H139.592V274.394H135.709V270.511Z" fill="white"/>
<path d="M135.709 128.137H139.592V132.02H135.709V128.137Z" fill="white"/>
<path d="M149.946 270.511H153.829V274.394H149.946V270.511Z" fill="white"/>
<path d="M149.946 128.137H153.829V132.02H149.946V128.137Z" fill="white"/>
<path d="M-120.565 283.455H-116.682V287.338H-120.565V283.455Z" fill="white"/>
<path d="M-120.565 141.08H-116.682V144.963H-120.565V141.08Z" fill="white"/>
<path d="M-106.328 283.455H-102.445V287.338H-106.328V283.455Z" fill="white"/>
<path d="M-106.328 141.08H-102.445V144.963H-106.328V141.08Z" fill="white"/>
<path d="M-92.0905 283.455H-88.2076V287.338H-92.0905V283.455Z" fill="white"/>
<path d="M-92.0905 141.08H-88.2076V144.963H-92.0905V141.08Z" fill="white"/>
<path d="M-77.8531 283.455H-73.9701V287.338H-77.8531V283.455Z" fill="white"/>
<path d="M-77.8531 141.08H-73.9701V144.963H-77.8531V141.08Z" fill="white"/>
<path d="M-63.6156 283.455H-59.7327V287.338H-63.6156V283.455Z" fill="white"/>
<path d="M-63.6156 141.08H-59.7327V144.963H-63.6156V141.08Z" fill="white"/>
<path d="M-49.3781 283.455H-45.4952V287.338H-49.3781V283.455Z" fill="white"/>
<path d="M-49.3781 141.08H-45.4952V144.963H-49.3781V141.08Z" fill="white"/>
<path d="M-35.1407 283.455H-31.2577V287.338H-35.1407V283.455Z" fill="white"/>
<path d="M-35.1407 141.08H-31.2577V144.963H-35.1407V141.08Z" fill="white"/>
<path d="M-20.9032 283.455H-17.0203V287.338H-20.9032V283.455Z" fill="white"/>
<path d="M-20.9032 141.08H-17.0203V144.963H-20.9032V141.08Z" fill="white"/>
<path d="M-6.66576 283.455H-2.78282V287.338H-6.66576V283.455Z" fill="white"/>
<path d="M-6.66576 141.08H-2.78282V144.963H-6.66576V141.08Z" fill="white"/>
<path d="M7.5717 283.455H11.4546V287.338H7.5717V283.455Z" fill="white"/>
<path d="M7.5717 141.08H11.4546V144.963H7.5717V141.08Z" fill="white"/>
<path d="M21.8092 283.455H25.6921V287.338H21.8092V283.455Z" fill="white"/>
<path d="M21.8092 141.08H25.6921V144.963H21.8092V141.08Z" fill="white"/>
<path d="M36.0466 283.455H39.9296V287.338H36.0466V283.455Z" fill="white"/>
<path d="M36.0466 141.08H39.9296V144.963H36.0466V141.08Z" fill="white"/>
<path d="M50.2841 283.455H54.167V287.338H50.2841V283.455Z" fill="white"/>
<path d="M50.2841 141.08H54.167V144.963H50.2841V141.08Z" fill="white"/>
<path d="M64.5215 283.455H68.4045V287.338H64.5215V283.455Z" fill="white"/>
<path d="M64.5215 141.08H68.4045V144.963H64.5215V141.08Z" fill="white"/>
<path d="M78.759 283.455H82.6419V287.338H78.759V283.455Z" fill="white"/>
<path d="M78.759 141.08H82.6419V144.963H78.759V141.08Z" fill="white"/>
<path d="M92.9964 283.455H96.8794V287.338H92.9964V283.455Z" fill="white"/>
<path d="M92.9964 141.08H96.8794V144.963H92.9964V141.08Z" fill="white"/>
<path d="M107.234 283.455H111.117V287.338H107.234V283.455Z" fill="white"/>
<path d="M107.234 141.08H111.117V144.963H107.234V141.08Z" fill="white"/>
<path d="M121.471 283.455H125.354V287.338H121.471V283.455Z" fill="white"/>
<path d="M121.471 141.08H125.354V144.963H121.471V141.08Z" fill="white"/>
<path d="M135.709 283.455H139.592V287.338H135.709V283.455Z" fill="white"/>
<path d="M135.709 141.08H139.592V144.963H135.709V141.08Z" fill="white"/>
<path d="M149.946 283.455H153.829V287.338H149.946V283.455Z" fill="white"/>
<path d="M149.946 141.08H153.829V144.963H149.946V141.08Z" fill="white"/>
<path d="M-120.565 296.398H-116.682V300.281H-120.565V296.398Z" fill="white"/>
<path d="M-120.565 154.023H-116.682V157.906H-120.565V154.023Z" fill="white"/>
<path d="M-106.328 296.398H-102.445V300.281H-106.328V296.398Z" fill="white"/>
<path d="M-106.328 154.023H-102.445V157.906H-106.328V154.023Z" fill="white"/>
<path d="M-92.0905 296.398H-88.2076V300.281H-92.0905V296.398Z" fill="white"/>
<path d="M-92.0905 154.023H-88.2076V157.906H-92.0905V154.023Z" fill="white"/>
<path d="M-77.8531 296.398H-73.9701V300.281H-77.8531V296.398Z" fill="white"/>
<path d="M-77.8531 154.023H-73.9701V157.906H-77.8531V154.023Z" fill="white"/>
<path d="M-63.6156 296.398H-59.7327V300.281H-63.6156V296.398Z" fill="white"/>
<path d="M-63.6156 154.023H-59.7327V157.906H-63.6156V154.023Z" fill="white"/>
<path d="M-49.3781 296.398H-45.4952V300.281H-49.3781V296.398Z" fill="white"/>
<path d="M-49.3781 154.023H-45.4952V157.906H-49.3781V154.023Z" fill="white"/>
<path d="M-35.1407 296.398H-31.2577V300.281H-35.1407V296.398Z" fill="white"/>
<path d="M-35.1407 154.023H-31.2577V157.906H-35.1407V154.023Z" fill="white"/>
<path d="M-20.9032 296.398H-17.0203V300.281H-20.9032V296.398Z" fill="white"/>
<path d="M-20.9032 154.023H-17.0203V157.906H-20.9032V154.023Z" fill="white"/>
<path d="M-6.66576 296.398H-2.78282V300.281H-6.66576V296.398Z" fill="white"/>
<path d="M-6.66576 154.023H-2.78282V157.906H-6.66576V154.023Z" fill="white"/>
<path d="M7.5717 296.398H11.4546V300.281H7.5717V296.398Z" fill="white"/>
<path d="M7.5717 154.023H11.4546V157.906H7.5717V154.023Z" fill="white"/>
<path d="M21.8092 296.398H25.6921V300.281H21.8092V296.398Z" fill="white"/>
<path d="M21.8092 154.023H25.6921V157.906H21.8092V154.023Z" fill="white"/>
<path d="M36.0466 296.398H39.9296V300.281H36.0466V296.398Z" fill="white"/>
<path d="M36.0466 154.023H39.9296V157.906H36.0466V154.023Z" fill="white"/>
<path d="M50.2841 296.398H54.167V300.281H50.2841V296.398Z" fill="white"/>
<path d="M50.2841 154.023H54.167V157.906H50.2841V154.023Z" fill="white"/>
<path d="M64.5215 296.398H68.4045V300.281H64.5215V296.398Z" fill="white"/>
<path d="M64.5215 154.023H68.4045V157.906H64.5215V154.023Z" fill="white"/>
<path d="M78.759 296.398H82.6419V300.281H78.759V296.398Z" fill="white"/>
<path d="M78.759 154.023H82.6419V157.906H78.759V154.023Z" fill="white"/>
<path d="M92.9964 296.398H96.8794V300.281H92.9964V296.398Z" fill="white"/>
<path d="M92.9964 154.023H96.8794V157.906H92.9964V154.023Z" fill="white"/>
<path d="M107.234 296.398H111.117V300.281H107.234V296.398Z" fill="white"/>
<path d="M107.234 154.023H111.117V157.906H107.234V154.023Z" fill="white"/>
<path d="M121.471 296.398H125.354V300.281H121.471V296.398Z" fill="white"/>
<path d="M121.471 154.023H125.354V157.906H121.471V154.023Z" fill="white"/>
<path d="M135.709 296.398H139.592V300.281H135.709V296.398Z" fill="white"/>
<path d="M135.709 154.023H139.592V157.906H135.709V154.023Z" fill="white"/>
<path d="M149.946 296.398H153.829V300.281H149.946V296.398Z" fill="white"/>
<path d="M149.946 154.023H153.829V157.906H149.946V154.023Z" fill="white"/>
<path d="M-120.565 309.341H-116.682V313.224H-120.565V309.341Z" fill="white"/>
<path d="M-120.565 166.966H-116.682V170.849H-120.565V166.966Z" fill="white"/>
<path d="M-106.328 309.341H-102.445V313.224H-106.328V309.341Z" fill="white"/>
<path d="M-106.328 166.966H-102.445V170.849H-106.328V166.966Z" fill="white"/>
<path d="M-92.0905 309.341H-88.2076V313.224H-92.0905V309.341Z" fill="white"/>
<path d="M-92.0905 166.966H-88.2076V170.849H-92.0905V166.966Z" fill="white"/>
<path d="M-77.8531 309.341H-73.9701V313.224H-77.8531V309.341Z" fill="white"/>
<path d="M-77.8531 166.966H-73.9701V170.849H-77.8531V166.966Z" fill="white"/>
<path d="M-63.6156 309.341H-59.7327V313.224H-63.6156V309.341Z" fill="white"/>
<path d="M-63.6156 166.966H-59.7327V170.849H-63.6156V166.966Z" fill="white"/>
<path d="M-49.3781 309.341H-45.4952V313.224H-49.3781V309.341Z" fill="white"/>
<path d="M-49.3781 166.966H-45.4952V170.849H-49.3781V166.966Z" fill="white"/>
<path d="M-35.1407 309.341H-31.2577V313.224H-35.1407V309.341Z" fill="white"/>
<path d="M-35.1407 166.966H-31.2577V170.849H-35.1407V166.966Z" fill="white"/>
<path d="M-20.9032 309.341H-17.0203V313.224H-20.9032V309.341Z" fill="white"/>
<path d="M-20.9032 166.966H-17.0203V170.849H-20.9032V166.966Z" fill="white"/>
<path d="M-6.66576 309.341H-2.78282V313.224H-6.66576V309.341Z" fill="white"/>
<path d="M-6.66576 166.966H-2.78282V170.849H-6.66576V166.966Z" fill="white"/>
<path d="M7.5717 309.341H11.4546V313.224H7.5717V309.341Z" fill="white"/>
<path d="M7.5717 166.966H11.4546V170.849H7.5717V166.966Z" fill="white"/>
<path d="M21.8092 309.341H25.6921V313.224H21.8092V309.341Z" fill="white"/>
<path d="M21.8092 166.966H25.6921V170.849H21.8092V166.966Z" fill="white"/>
<path d="M36.0466 309.341H39.9296V313.224H36.0466V309.341Z" fill="white"/>
<path d="M36.0466 166.966H39.9296V170.849H36.0466V166.966Z" fill="white"/>
<path d="M50.2841 309.341H54.167V313.224H50.2841V309.341Z" fill="white"/>
<path d="M50.2841 166.966H54.167V170.849H50.2841V166.966Z" fill="white"/>
<path d="M64.5215 309.341H68.4045V313.224H64.5215V309.341Z" fill="white"/>
<path d="M64.5215 166.966H68.4045V170.849H64.5215V166.966Z" fill="white"/>
<path d="M78.759 309.341H82.6419V313.224H78.759V309.341Z" fill="white"/>
<path d="M78.759 166.966H82.6419V170.849H78.759V166.966Z" fill="white"/>
<path d="M92.9964 309.341H96.8794V313.224H92.9964V309.341Z" fill="white"/>
<path d="M92.9964 166.966H96.8794V170.849H92.9964V166.966Z" fill="white"/>
<path d="M107.234 309.341H111.117V313.224H107.234V309.341Z" fill="white"/>
<path d="M107.234 166.966H111.117V170.849H107.234V166.966Z" fill="white"/>
<path d="M121.471 309.341H125.354V313.224H121.471V309.341Z" fill="white"/>
<path d="M121.471 166.966H125.354V170.849H121.471V166.966Z" fill="white"/>
<path d="M135.709 309.341H139.592V313.224H135.709V309.341Z" fill="white"/>
<path d="M135.709 166.966H139.592V170.849H135.709V166.966Z" fill="white"/>
<path d="M149.946 309.341H153.829V313.224H149.946V309.341Z" fill="white"/>
<path d="M149.946 166.966H153.829V170.849H149.946V166.966Z" fill="white"/>
<path d="M-120.565 322.284H-116.682V326.167H-120.565V322.284Z" fill="white"/>
<path d="M-120.565 179.909H-116.682V183.792H-120.565V179.909Z" fill="white"/>
<path d="M-106.328 322.284H-102.445V326.167H-106.328V322.284Z" fill="white"/>
<path d="M-106.328 179.909H-102.445V183.792H-106.328V179.909Z" fill="white"/>
<path d="M-92.0905 322.284H-88.2076V326.167H-92.0905V322.284Z" fill="white"/>
<path d="M-92.0905 179.909H-88.2076V183.792H-92.0905V179.909Z" fill="white"/>
<path d="M-77.8531 322.284H-73.9701V326.167H-77.8531V322.284Z" fill="white"/>
<path d="M-77.8531 179.909H-73.9701V183.792H-77.8531V179.909Z" fill="white"/>
<path d="M-63.6156 322.284H-59.7327V326.167H-63.6156V322.284Z" fill="white"/>
<path d="M-63.6156 179.909H-59.7327V183.792H-63.6156V179.909Z" fill="white"/>
<path d="M-49.3781 322.284H-45.4952V326.167H-49.3781V322.284Z" fill="white"/>
<path d="M-49.3781 179.909H-45.4952V183.792H-49.3781V179.909Z" fill="white"/>
<path d="M-35.1407 322.284H-31.2577V326.167H-35.1407V322.284Z" fill="white"/>
<path d="M-35.1407 179.909H-31.2577V183.792H-35.1407V179.909Z" fill="white"/>
<path d="M-20.9032 322.284H-17.0203V326.167H-20.9032V322.284Z" fill="white"/>
<path d="M-20.9032 179.909H-17.0203V183.792H-20.9032V179.909Z" fill="white"/>
<path d="M-6.66576 322.284H-2.78282V326.167H-6.66576V322.284Z" fill="white"/>
<path d="M-6.66576 179.909H-2.78282V183.792H-6.66576V179.909Z" fill="white"/>
<path d="M7.5717 322.284H11.4546V326.167H7.5717V322.284Z" fill="white"/>
<path d="M7.5717 179.909H11.4546V183.792H7.5717V179.909Z" fill="white"/>
<path d="M21.8092 322.284H25.6921V326.167H21.8092V322.284Z" fill="white"/>
<path d="M21.8092 179.909H25.6921V183.792H21.8092V179.909Z" fill="white"/>
<path d="M36.0466 322.284H39.9296V326.167H36.0466V322.284Z" fill="white"/>
<path d="M36.0466 179.909H39.9296V183.792H36.0466V179.909Z" fill="white"/>
<path d="M50.2841 322.284H54.167V326.167H50.2841V322.284Z" fill="white"/>
<path d="M50.2841 179.909H54.167V183.792H50.2841V179.909Z" fill="white"/>
<path d="M64.5215 322.284H68.4045V326.167H64.5215V322.284Z" fill="white"/>
<path d="M64.5215 179.909H68.4045V183.792H64.5215V179.909Z" fill="white"/>
<path d="M78.759 322.284H82.6419V326.167H78.759V322.284Z" fill="white"/>
<path d="M78.759 179.909H82.6419V183.792H78.759V179.909Z" fill="white"/>
<path d="M92.9964 322.284H96.8794V326.167H92.9964V322.284Z" fill="white"/>
<path d="M92.9964 179.909H96.8794V183.792H92.9964V179.909Z" fill="white"/>
<path d="M107.234 322.284H111.117V326.167H107.234V322.284Z" fill="white"/>
<path d="M107.234 179.909H111.117V183.792H107.234V179.909Z" fill="white"/>
<path d="M121.471 322.284H125.354V326.167H121.471V322.284Z" fill="white"/>
<path d="M121.471 179.909H125.354V183.792H121.471V179.909Z" fill="white"/>
<path d="M135.709 322.284H139.592V326.167H135.709V322.284Z" fill="white"/>
<path d="M135.709 179.909H139.592V183.792H135.709V179.909Z" fill="white"/>
<path d="M149.946 322.284H153.829V326.167H149.946V322.284Z" fill="white"/>
<path d="M149.946 179.909H153.829V183.792H149.946V179.909Z" fill="white"/>
<path d="M-32.9331 227.799H108.18V368.928C89.6488 368.928 71.2985 365.277 54.1787 358.185C37.0589 351.093 21.5026 340.697 8.39886 327.592C-4.70489 314.487 -15.0993 298.93 -22.1916 281.807C-29.2839 264.684 -32.9331 246.333 -32.9331 227.799Z" fill="#F4F9FF"/>
<path d="M1620.32 238.479H1622.81V240.976H1620.32V238.479Z" fill="white"/>
<path d="M1620.32 146.907H1622.81V149.405H1620.32V146.907Z" fill="white"/>
<path d="M1629.46 238.479H1631.96V240.976H1629.46V238.479Z" fill="white"/>
<path d="M1629.46 146.907H1631.96V149.405H1629.46V146.907Z" fill="white"/>
<path d="M1638.61 238.479H1641.11V240.976H1638.61V238.479Z" fill="white"/>
<path d="M1638.61 146.907H1641.11V149.405H1638.61V146.907Z" fill="white"/>
<path d="M1647.76 238.479H1650.26V240.976H1647.76V238.479Z" fill="white"/>
<path d="M1647.76 146.907H1650.26V149.405H1647.76V146.907Z" fill="white"/>
<path d="M1656.91 238.479H1659.4V240.976H1656.91V238.479Z" fill="white"/>
<path d="M1656.91 146.907H1659.4V149.405H1656.91V146.907Z" fill="white"/>
<path d="M1666.06 238.479H1668.55V240.976H1666.06V238.479Z" fill="white"/>
<path d="M1666.06 146.907H1668.55V149.405H1666.06V146.907Z" fill="white"/>
<path d="M1675.21 238.479H1677.7V240.976H1675.21V238.479Z" fill="white"/>
<path d="M1675.21 146.907H1677.7V149.405H1675.21V146.907Z" fill="white"/>
<path d="M1684.35 238.479H1686.85V240.976H1684.35V238.479Z" fill="white"/>
<path d="M1684.35 146.907H1686.85V149.405H1684.35V146.907Z" fill="white"/>
<path d="M1693.5 238.479H1696V240.976H1693.5V238.479Z" fill="white"/>
<path d="M1693.5 146.907H1696V149.405H1693.5V146.907Z" fill="white"/>
<path d="M1702.65 238.479H1705.14V240.976H1702.65V238.479Z" fill="white"/>
<path d="M1702.65 146.907H1705.14V149.405H1702.65V146.907Z" fill="white"/>
<path d="M1711.8 238.479H1714.29V240.976H1711.8V238.479Z" fill="white"/>
<path d="M1711.8 146.907H1714.29V149.405H1711.8V146.907Z" fill="white"/>
<path d="M1720.95 238.479H1723.44V240.976H1720.95V238.479Z" fill="white"/>
<path d="M1720.95 146.907H1723.44V149.405H1720.95V146.907Z" fill="white"/>
<path d="M1730.09 238.479H1732.59V240.976H1730.09V238.479Z" fill="white"/>
<path d="M1730.09 146.907H1732.59V149.405H1730.09V146.907Z" fill="white"/>
<path d="M1739.24 238.479H1741.74V240.976H1739.24V238.479Z" fill="white"/>
<path d="M1739.24 146.907H1741.74V149.405H1739.24V146.907Z" fill="white"/>
<path d="M1748.39 238.479H1750.88V240.976H1748.39V238.479Z" fill="white"/>
<path d="M1748.39 146.907H1750.88V149.405H1748.39V146.907Z" fill="white"/>
<path d="M1757.54 238.479H1760.03V240.976H1757.54V238.479Z" fill="white"/>
<path d="M1757.54 146.907H1760.03V149.405H1757.54V146.907Z" fill="white"/>
<path d="M1766.69 238.479H1769.18V240.976H1766.69V238.479Z" fill="white"/>
<path d="M1766.69 146.907H1769.18V149.405H1766.69V146.907Z" fill="white"/>
<path d="M1775.83 238.479H1778.33V240.976H1775.83V238.479Z" fill="white"/>
<path d="M1775.83 146.907H1778.33V149.405H1775.83V146.907Z" fill="white"/>
<path d="M1784.98 238.479H1787.48V240.976H1784.98V238.479Z" fill="white"/>
<path d="M1784.98 146.907H1787.48V149.405H1784.98V146.907Z" fill="white"/>
<path d="M1794.13 238.479H1796.62V240.976H1794.13V238.479Z" fill="white"/>
<path d="M1794.13 146.907H1796.62V149.405H1794.13V146.907Z" fill="white"/>
<path d="M1620.32 246.803H1622.81V249.301H1620.32V246.803Z" fill="white"/>
<path d="M1620.32 155.232H1622.81V157.729H1620.32V155.232Z" fill="white"/>
<path d="M1629.46 246.803H1631.96V249.301H1629.46V246.803Z" fill="white"/>
<path d="M1629.46 155.232H1631.96V157.729H1629.46V155.232Z" fill="white"/>
<path d="M1638.61 246.803H1641.11V249.301H1638.61V246.803Z" fill="white"/>
<path d="M1638.61 155.232H1641.11V157.729H1638.61V155.232Z" fill="white"/>
<path d="M1647.76 246.803H1650.26V249.301H1647.76V246.803Z" fill="white"/>
<path d="M1647.76 155.232H1650.26V157.729H1647.76V155.232Z" fill="white"/>
<path d="M1656.91 246.803H1659.4V249.301H1656.91V246.803Z" fill="white"/>
<path d="M1656.91 155.232H1659.4V157.729H1656.91V155.232Z" fill="white"/>
<path d="M1666.06 246.803H1668.55V249.301H1666.06V246.803Z" fill="white"/>
<path d="M1666.06 155.232H1668.55V157.729H1666.06V155.232Z" fill="white"/>
<path d="M1675.21 246.803H1677.7V249.301H1675.21V246.803Z" fill="white"/>
<path d="M1675.21 155.232H1677.7V157.729H1675.21V155.232Z" fill="white"/>
<path d="M1684.35 246.803H1686.85V249.301H1684.35V246.803Z" fill="white"/>
<path d="M1684.35 155.232H1686.85V157.729H1684.35V155.232Z" fill="white"/>
<path d="M1693.5 246.803H1696V249.301H1693.5V246.803Z" fill="white"/>
<path d="M1693.5 155.232H1696V157.729H1693.5V155.232Z" fill="white"/>
<path d="M1702.65 246.803H1705.14V249.301H1702.65V246.803Z" fill="white"/>
<path d="M1702.65 155.232H1705.14V157.729H1702.65V155.232Z" fill="white"/>
<path d="M1711.8 246.803H1714.29V249.301H1711.8V246.803Z" fill="white"/>
<path d="M1711.8 155.232H1714.29V157.729H1711.8V155.232Z" fill="white"/>
<path d="M1720.95 246.803H1723.44V249.301H1720.95V246.803Z" fill="white"/>
<path d="M1720.95 155.232H1723.44V157.729H1720.95V155.232Z" fill="white"/>
<path d="M1730.09 246.803H1732.59V249.301H1730.09V246.803Z" fill="white"/>
<path d="M1730.09 155.232H1732.59V157.729H1730.09V155.232Z" fill="white"/>
<path d="M1739.24 246.803H1741.74V249.301H1739.24V246.803Z" fill="white"/>
<path d="M1739.24 155.232H1741.74V157.729H1739.24V155.232Z" fill="white"/>
<path d="M1748.39 246.803H1750.88V249.301H1748.39V246.803Z" fill="white"/>
<path d="M1748.39 155.232H1750.88V157.729H1748.39V155.232Z" fill="white"/>
<path d="M1757.54 246.803H1760.03V249.301H1757.54V246.803Z" fill="white"/>
<path d="M1757.54 155.232H1760.03V157.729H1757.54V155.232Z" fill="white"/>
<path d="M1766.69 246.803H1769.18V249.301H1766.69V246.803Z" fill="white"/>
<path d="M1766.69 155.232H1769.18V157.729H1766.69V155.232Z" fill="white"/>
<path d="M1775.83 246.803H1778.33V249.301H1775.83V246.803Z" fill="white"/>
<path d="M1775.83 155.232H1778.33V157.729H1775.83V155.232Z" fill="white"/>
<path d="M1784.98 246.803H1787.48V249.301H1784.98V246.803Z" fill="white"/>
<path d="M1784.98 155.232H1787.48V157.729H1784.98V155.232Z" fill="white"/>
<path d="M1794.13 246.803H1796.62V249.301H1794.13V246.803Z" fill="white"/>
<path d="M1794.13 155.232H1796.62V157.729H1794.13V155.232Z" fill="white"/>
<path d="M1620.32 255.128H1622.81V257.625H1620.32V255.128Z" fill="white"/>
<path d="M1620.32 163.557H1622.81V166.054H1620.32V163.557Z" fill="white"/>
<path d="M1629.46 255.128H1631.96V257.625H1629.46V255.128Z" fill="white"/>
<path d="M1629.46 163.557H1631.96V166.054H1629.46V163.557Z" fill="white"/>
<path d="M1638.61 255.128H1641.11V257.625H1638.61V255.128Z" fill="white"/>
<path d="M1638.61 163.557H1641.11V166.054H1638.61V163.557Z" fill="white"/>
<path d="M1647.76 255.128H1650.26V257.625H1647.76V255.128Z" fill="white"/>
<path d="M1647.76 163.557H1650.26V166.054H1647.76V163.557Z" fill="white"/>
<path d="M1656.91 255.128H1659.4V257.625H1656.91V255.128Z" fill="white"/>
<path d="M1656.91 163.557H1659.4V166.054H1656.91V163.557Z" fill="white"/>
<path d="M1666.06 255.128H1668.55V257.625H1666.06V255.128Z" fill="white"/>
<path d="M1666.06 163.557H1668.55V166.054H1666.06V163.557Z" fill="white"/>
<path d="M1675.21 255.128H1677.7V257.625H1675.21V255.128Z" fill="white"/>
<path d="M1675.21 163.557H1677.7V166.054H1675.21V163.557Z" fill="white"/>
<path d="M1684.35 255.128H1686.85V257.625H1684.35V255.128Z" fill="white"/>
<path d="M1684.35 163.557H1686.85V166.054H1684.35V163.557Z" fill="white"/>
<path d="M1693.5 255.128H1696V257.625H1693.5V255.128Z" fill="white"/>
<path d="M1693.5 163.557H1696V166.054H1693.5V163.557Z" fill="white"/>
<path d="M1702.65 255.128H1705.14V257.625H1702.65V255.128Z" fill="white"/>
<path d="M1702.65 163.557H1705.14V166.054H1702.65V163.557Z" fill="white"/>
<path d="M1711.8 255.128H1714.29V257.625H1711.8V255.128Z" fill="white"/>
<path d="M1711.8 163.557H1714.29V166.054H1711.8V163.557Z" fill="white"/>
<path d="M1720.95 255.128H1723.44V257.625H1720.95V255.128Z" fill="white"/>
<path d="M1720.95 163.557H1723.44V166.054H1720.95V163.557Z" fill="white"/>
<path d="M1730.09 255.128H1732.59V257.625H1730.09V255.128Z" fill="white"/>
<path d="M1730.09 163.557H1732.59V166.054H1730.09V163.557Z" fill="white"/>
<path d="M1739.24 255.128H1741.74V257.625H1739.24V255.128Z" fill="white"/>
<path d="M1739.24 163.557H1741.74V166.054H1739.24V163.557Z" fill="white"/>
<path d="M1748.39 255.128H1750.88V257.625H1748.39V255.128Z" fill="white"/>
<path d="M1748.39 163.557H1750.88V166.054H1748.39V163.557Z" fill="white"/>
<path d="M1757.54 255.128H1760.03V257.625H1757.54V255.128Z" fill="white"/>
<path d="M1757.54 163.557H1760.03V166.054H1757.54V163.557Z" fill="white"/>
<path d="M1766.69 255.128H1769.18V257.625H1766.69V255.128Z" fill="white"/>
<path d="M1766.69 163.557H1769.18V166.054H1766.69V163.557Z" fill="white"/>
<path d="M1775.83 255.128H1778.33V257.625H1775.83V255.128Z" fill="white"/>
<path d="M1775.83 163.557H1778.33V166.054H1775.83V163.557Z" fill="white"/>
<path d="M1784.98 255.128H1787.48V257.625H1784.98V255.128Z" fill="white"/>
<path d="M1784.98 163.557H1787.48V166.054H1784.98V163.557Z" fill="white"/>
<path d="M1794.13 255.128H1796.62V257.625H1794.13V255.128Z" fill="white"/>
<path d="M1794.13 163.557H1796.62V166.054H1794.13V163.557Z" fill="white"/>
<path d="M1620.32 263.453H1622.81V265.95H1620.32V263.453Z" fill="white"/>
<path d="M1620.32 171.881H1622.81V174.379H1620.32V171.881Z" fill="white"/>
<path d="M1629.46 263.453H1631.96V265.95H1629.46V263.453Z" fill="white"/>
<path d="M1629.46 171.881H1631.96V174.379H1629.46V171.881Z" fill="white"/>
<path d="M1638.61 263.453H1641.11V265.95H1638.61V263.453Z" fill="white"/>
<path d="M1638.61 171.881H1641.11V174.379H1638.61V171.881Z" fill="white"/>
<path d="M1647.76 263.453H1650.26V265.95H1647.76V263.453Z" fill="white"/>
<path d="M1647.76 171.881H1650.26V174.379H1647.76V171.881Z" fill="white"/>
<path d="M1656.91 263.453H1659.4V265.95H1656.91V263.453Z" fill="white"/>
<path d="M1656.91 171.881H1659.4V174.379H1656.91V171.881Z" fill="white"/>
<path d="M1666.06 263.453H1668.55V265.95H1666.06V263.453Z" fill="white"/>
<path d="M1666.06 171.881H1668.55V174.379H1666.06V171.881Z" fill="white"/>
<path d="M1675.21 263.453H1677.7V265.95H1675.21V263.453Z" fill="white"/>
<path d="M1675.21 171.881H1677.7V174.379H1675.21V171.881Z" fill="white"/>
<path d="M1684.35 263.453H1686.85V265.95H1684.35V263.453Z" fill="white"/>
<path d="M1684.35 171.881H1686.85V174.379H1684.35V171.881Z" fill="white"/>
<path d="M1693.5 263.453H1696V265.95H1693.5V263.453Z" fill="white"/>
<path d="M1693.5 171.881H1696V174.379H1693.5V171.881Z" fill="white"/>
<path d="M1702.65 263.453H1705.14V265.95H1702.65V263.453Z" fill="white"/>
<path d="M1702.65 171.881H1705.14V174.379H1702.65V171.881Z" fill="white"/>
<path d="M1711.8 263.453H1714.29V265.95H1711.8V263.453Z" fill="white"/>
<path d="M1711.8 171.881H1714.29V174.379H1711.8V171.881Z" fill="white"/>
<path d="M1720.95 263.453H1723.44V265.95H1720.95V263.453Z" fill="white"/>
<path d="M1720.95 171.881H1723.44V174.379H1720.95V171.881Z" fill="white"/>
<path d="M1730.09 263.453H1732.59V265.95H1730.09V263.453Z" fill="white"/>
<path d="M1730.09 171.881H1732.59V174.379H1730.09V171.881Z" fill="white"/>
<path d="M1739.24 263.453H1741.74V265.95H1739.24V263.453Z" fill="white"/>
<path d="M1739.24 171.881H1741.74V174.379H1739.24V171.881Z" fill="white"/>
<path d="M1748.39 263.453H1750.88V265.95H1748.39V263.453Z" fill="white"/>
<path d="M1748.39 171.881H1750.88V174.379H1748.39V171.881Z" fill="white"/>
<path d="M1757.54 263.453H1760.03V265.95H1757.54V263.453Z" fill="white"/>
<path d="M1757.54 171.881H1760.03V174.379H1757.54V171.881Z" fill="white"/>
<path d="M1766.69 263.453H1769.18V265.95H1766.69V263.453Z" fill="white"/>
<path d="M1766.69 171.881H1769.18V174.379H1766.69V171.881Z" fill="white"/>
<path d="M1775.83 263.453H1778.33V265.95H1775.83V263.453Z" fill="white"/>
<path d="M1775.83 171.881H1778.33V174.379H1775.83V171.881Z" fill="white"/>
<path d="M1784.98 263.453H1787.48V265.95H1784.98V263.453Z" fill="white"/>
<path d="M1784.98 171.881H1787.48V174.379H1784.98V171.881Z" fill="white"/>
<path d="M1794.13 263.453H1796.62V265.95H1794.13V263.453Z" fill="white"/>
<path d="M1794.13 171.881H1796.62V174.379H1794.13V171.881Z" fill="white"/>
<path d="M1620.32 271.777H1622.81V274.275H1620.32V271.777Z" fill="white"/>
<path d="M1620.32 180.206H1622.81V182.703H1620.32V180.206Z" fill="white"/>
<path d="M1629.46 271.777H1631.96V274.275H1629.46V271.777Z" fill="white"/>
<path d="M1629.46 180.206H1631.96V182.703H1629.46V180.206Z" fill="white"/>
<path d="M1638.61 271.777H1641.11V274.275H1638.61V271.777Z" fill="white"/>
<path d="M1638.61 180.206H1641.11V182.703H1638.61V180.206Z" fill="white"/>
<path d="M1647.76 271.777H1650.26V274.275H1647.76V271.777Z" fill="white"/>
<path d="M1647.76 180.206H1650.26V182.703H1647.76V180.206Z" fill="white"/>
<path d="M1656.91 271.777H1659.4V274.275H1656.91V271.777Z" fill="white"/>
<path d="M1656.91 180.206H1659.4V182.703H1656.91V180.206Z" fill="white"/>
<path d="M1666.06 271.777H1668.55V274.275H1666.06V271.777Z" fill="white"/>
<path d="M1666.06 180.206H1668.55V182.703H1666.06V180.206Z" fill="white"/>
<path d="M1675.21 271.777H1677.7V274.275H1675.21V271.777Z" fill="white"/>
<path d="M1675.21 180.206H1677.7V182.703H1675.21V180.206Z" fill="white"/>
<path d="M1684.35 271.777H1686.85V274.275H1684.35V271.777Z" fill="white"/>
<path d="M1684.35 180.206H1686.85V182.703H1684.35V180.206Z" fill="white"/>
<path d="M1693.5 271.777H1696V274.275H1693.5V271.777Z" fill="white"/>
<path d="M1693.5 180.206H1696V182.703H1693.5V180.206Z" fill="white"/>
<path d="M1702.65 271.777H1705.14V274.275H1702.65V271.777Z" fill="white"/>
<path d="M1702.65 180.206H1705.14V182.703H1702.65V180.206Z" fill="white"/>
<path d="M1711.8 271.777H1714.29V274.275H1711.8V271.777Z" fill="white"/>
<path d="M1711.8 180.206H1714.29V182.703H1711.8V180.206Z" fill="white"/>
<path d="M1720.95 271.777H1723.44V274.275H1720.95V271.777Z" fill="white"/>
<path d="M1720.95 180.206H1723.44V182.703H1720.95V180.206Z" fill="white"/>
<path d="M1730.09 271.777H1732.59V274.275H1730.09V271.777Z" fill="white"/>
<path d="M1730.09 180.206H1732.59V182.703H1730.09V180.206Z" fill="white"/>
<path d="M1739.24 271.777H1741.74V274.275H1739.24V271.777Z" fill="white"/>
<path d="M1739.24 180.206H1741.74V182.703H1739.24V180.206Z" fill="white"/>
<path d="M1748.39 271.777H1750.88V274.275H1748.39V271.777Z" fill="white"/>
<path d="M1748.39 180.206H1750.88V182.703H1748.39V180.206Z" fill="white"/>
<path d="M1757.54 271.777H1760.03V274.275H1757.54V271.777Z" fill="white"/>
<path d="M1757.54 180.206H1760.03V182.703H1757.54V180.206Z" fill="white"/>
<path d="M1766.69 271.777H1769.18V274.275H1766.69V271.777Z" fill="white"/>
<path d="M1766.69 180.206H1769.18V182.703H1766.69V180.206Z" fill="white"/>
<path d="M1775.83 271.777H1778.33V274.275H1775.83V271.777Z" fill="white"/>
<path d="M1775.83 180.206H1778.33V182.703H1775.83V180.206Z" fill="white"/>
<path d="M1784.98 271.777H1787.48V274.275H1784.98V271.777Z" fill="white"/>
<path d="M1784.98 180.206H1787.48V182.703H1784.98V180.206Z" fill="white"/>
<path d="M1794.13 271.777H1796.62V274.275H1794.13V271.777Z" fill="white"/>
<path d="M1794.13 180.206H1796.62V182.703H1794.13V180.206Z" fill="white"/>
<path d="M1620.32 280.102H1622.81V282.599H1620.32V280.102Z" fill="white"/>
<path d="M1620.32 188.531H1622.81V191.028H1620.32V188.531Z" fill="white"/>
<path d="M1629.46 280.102H1631.96V282.599H1629.46V280.102Z" fill="white"/>
<path d="M1629.46 188.531H1631.96V191.028H1629.46V188.531Z" fill="white"/>
<path d="M1638.61 280.102H1641.11V282.599H1638.61V280.102Z" fill="white"/>
<path d="M1638.61 188.531H1641.11V191.028H1638.61V188.531Z" fill="white"/>
<path d="M1647.76 280.102H1650.26V282.599H1647.76V280.102Z" fill="white"/>
<path d="M1647.76 188.531H1650.26V191.028H1647.76V188.531Z" fill="white"/>
<path d="M1656.91 280.102H1659.4V282.599H1656.91V280.102Z" fill="white"/>
<path d="M1656.91 188.531H1659.4V191.028H1656.91V188.531Z" fill="white"/>
<path d="M1666.06 280.102H1668.55V282.599H1666.06V280.102Z" fill="white"/>
<path d="M1666.06 188.531H1668.55V191.028H1666.06V188.531Z" fill="white"/>
<path d="M1675.21 280.102H1677.7V282.599H1675.21V280.102Z" fill="white"/>
<path d="M1675.21 188.531H1677.7V191.028H1675.21V188.531Z" fill="white"/>
<path d="M1684.35 280.102H1686.85V282.599H1684.35V280.102Z" fill="white"/>
<path d="M1684.35 188.531H1686.85V191.028H1684.35V188.531Z" fill="white"/>
<path d="M1693.5 280.102H1696V282.599H1693.5V280.102Z" fill="white"/>
<path d="M1693.5 188.531H1696V191.028H1693.5V188.531Z" fill="white"/>
<path d="M1702.65 280.102H1705.14V282.599H1702.65V280.102Z" fill="white"/>
<path d="M1702.65 188.531H1705.14V191.028H1702.65V188.531Z" fill="white"/>
<path d="M1711.8 280.102H1714.29V282.599H1711.8V280.102Z" fill="white"/>
<path d="M1711.8 188.531H1714.29V191.028H1711.8V188.531Z" fill="white"/>
<path d="M1720.95 280.102H1723.44V282.599H1720.95V280.102Z" fill="white"/>
<path d="M1720.95 188.531H1723.44V191.028H1720.95V188.531Z" fill="white"/>
<path d="M1730.09 280.102H1732.59V282.599H1730.09V280.102Z" fill="white"/>
<path d="M1730.09 188.531H1732.59V191.028H1730.09V188.531Z" fill="white"/>
<path d="M1739.24 280.102H1741.74V282.599H1739.24V280.102Z" fill="white"/>
<path d="M1739.24 188.531H1741.74V191.028H1739.24V188.531Z" fill="white"/>
<path d="M1748.39 280.102H1750.88V282.599H1748.39V280.102Z" fill="white"/>
<path d="M1748.39 188.531H1750.88V191.028H1748.39V188.531Z" fill="white"/>
<path d="M1757.54 280.102H1760.03V282.599H1757.54V280.102Z" fill="white"/>
<path d="M1757.54 188.531H1760.03V191.028H1757.54V188.531Z" fill="white"/>
<path d="M1766.69 280.102H1769.18V282.599H1766.69V280.102Z" fill="white"/>
<path d="M1766.69 188.531H1769.18V191.028H1766.69V188.531Z" fill="white"/>
<path d="M1775.83 280.102H1778.33V282.599H1775.83V280.102Z" fill="white"/>
<path d="M1775.83 188.531H1778.33V191.028H1775.83V188.531Z" fill="white"/>
<path d="M1784.98 280.102H1787.48V282.599H1784.98V280.102Z" fill="white"/>
<path d="M1784.98 188.531H1787.48V191.028H1784.98V188.531Z" fill="white"/>
<path d="M1794.13 280.102H1796.62V282.599H1794.13V280.102Z" fill="white"/>
<path d="M1794.13 188.531H1796.62V191.028H1794.13V188.531Z" fill="white"/>
<path d="M1620.32 288.427H1622.81V290.924H1620.32V288.427Z" fill="white"/>
<path d="M1620.32 196.855H1622.81V199.353H1620.32V196.855Z" fill="white"/>
<path d="M1629.46 288.427H1631.96V290.924H1629.46V288.427Z" fill="white"/>
<path d="M1629.46 196.855H1631.96V199.353H1629.46V196.855Z" fill="white"/>
<path d="M1638.61 288.427H1641.11V290.924H1638.61V288.427Z" fill="white"/>
<path d="M1638.61 196.855H1641.11V199.353H1638.61V196.855Z" fill="white"/>
<path d="M1647.76 288.427H1650.26V290.924H1647.76V288.427Z" fill="white"/>
<path d="M1647.76 196.855H1650.26V199.353H1647.76V196.855Z" fill="white"/>
<path d="M1656.91 288.427H1659.4V290.924H1656.91V288.427Z" fill="white"/>
<path d="M1656.91 196.855H1659.4V199.353H1656.91V196.855Z" fill="white"/>
<path d="M1666.06 288.427H1668.55V290.924H1666.06V288.427Z" fill="white"/>
<path d="M1666.06 196.855H1668.55V199.353H1666.06V196.855Z" fill="white"/>
<path d="M1675.21 288.427H1677.7V290.924H1675.21V288.427Z" fill="white"/>
<path d="M1675.21 196.855H1677.7V199.353H1675.21V196.855Z" fill="white"/>
<path d="M1684.35 288.427H1686.85V290.924H1684.35V288.427Z" fill="white"/>
<path d="M1684.35 196.855H1686.85V199.353H1684.35V196.855Z" fill="white"/>
<path d="M1693.5 288.427H1696V290.924H1693.5V288.427Z" fill="white"/>
<path d="M1693.5 196.855H1696V199.353H1693.5V196.855Z" fill="white"/>
<path d="M1702.65 288.427H1705.14V290.924H1702.65V288.427Z" fill="white"/>
<path d="M1702.65 196.855H1705.14V199.353H1702.65V196.855Z" fill="white"/>
<path d="M1711.8 288.427H1714.29V290.924H1711.8V288.427Z" fill="white"/>
<path d="M1711.8 196.855H1714.29V199.353H1711.8V196.855Z" fill="white"/>
<path d="M1720.95 288.427H1723.44V290.924H1720.95V288.427Z" fill="white"/>
<path d="M1720.95 196.855H1723.44V199.353H1720.95V196.855Z" fill="white"/>
<path d="M1730.09 288.427H1732.59V290.924H1730.09V288.427Z" fill="white"/>
<path d="M1730.09 196.855H1732.59V199.353H1730.09V196.855Z" fill="white"/>
<path d="M1739.24 288.427H1741.74V290.924H1739.24V288.427Z" fill="white"/>
<path d="M1739.24 196.855H1741.74V199.353H1739.24V196.855Z" fill="white"/>
<path d="M1748.39 288.427H1750.88V290.924H1748.39V288.427Z" fill="white"/>
<path d="M1748.39 196.855H1750.88V199.353H1748.39V196.855Z" fill="white"/>
<path d="M1757.54 288.427H1760.03V290.924H1757.54V288.427Z" fill="white"/>
<path d="M1757.54 196.855H1760.03V199.353H1757.54V196.855Z" fill="white"/>
<path d="M1766.69 288.427H1769.18V290.924H1766.69V288.427Z" fill="white"/>
<path d="M1766.69 196.855H1769.18V199.353H1766.69V196.855Z" fill="white"/>
<path d="M1775.83 288.427H1778.33V290.924H1775.83V288.427Z" fill="white"/>
<path d="M1775.83 196.855H1778.33V199.353H1775.83V196.855Z" fill="white"/>
<path d="M1784.98 288.427H1787.48V290.924H1784.98V288.427Z" fill="white"/>
<path d="M1784.98 196.855H1787.48V199.353H1784.98V196.855Z" fill="white"/>
<path d="M1794.13 288.427H1796.62V290.924H1794.13V288.427Z" fill="white"/>
<path d="M1794.13 196.855H1796.62V199.353H1794.13V196.855Z" fill="white"/>
<path d="M1620.32 296.751H1622.81V299.249H1620.32V296.751Z" fill="white"/>
<path d="M1620.32 205.18H1622.81V207.677H1620.32V205.18Z" fill="white"/>
<path d="M1629.46 296.751H1631.96V299.249H1629.46V296.751Z" fill="white"/>
<path d="M1629.46 205.18H1631.96V207.677H1629.46V205.18Z" fill="white"/>
<path d="M1638.61 296.751H1641.11V299.249H1638.61V296.751Z" fill="white"/>
<path d="M1638.61 205.18H1641.11V207.677H1638.61V205.18Z" fill="white"/>
<path d="M1647.76 296.751H1650.26V299.249H1647.76V296.751Z" fill="white"/>
<path d="M1647.76 205.18H1650.26V207.677H1647.76V205.18Z" fill="white"/>
<path d="M1656.91 296.751H1659.4V299.249H1656.91V296.751Z" fill="white"/>
<path d="M1656.91 205.18H1659.4V207.677H1656.91V205.18Z" fill="white"/>
<path d="M1666.06 296.751H1668.55V299.249H1666.06V296.751Z" fill="white"/>
<path d="M1666.06 205.18H1668.55V207.677H1666.06V205.18Z" fill="white"/>
<path d="M1675.21 296.751H1677.7V299.249H1675.21V296.751Z" fill="white"/>
<path d="M1675.21 205.18H1677.7V207.677H1675.21V205.18Z" fill="white"/>
<path d="M1684.35 296.751H1686.85V299.249H1684.35V296.751Z" fill="white"/>
<path d="M1684.35 205.18H1686.85V207.677H1684.35V205.18Z" fill="white"/>
<path d="M1693.5 296.751H1696V299.249H1693.5V296.751Z" fill="white"/>
<path d="M1693.5 205.18H1696V207.677H1693.5V205.18Z" fill="white"/>
<path d="M1702.65 296.751H1705.14V299.249H1702.65V296.751Z" fill="white"/>
<path d="M1702.65 205.18H1705.14V207.677H1702.65V205.18Z" fill="white"/>
<path d="M1711.8 296.751H1714.29V299.249H1711.8V296.751Z" fill="white"/>
<path d="M1711.8 205.18H1714.29V207.677H1711.8V205.18Z" fill="white"/>
<path d="M1720.95 296.751H1723.44V299.249H1720.95V296.751Z" fill="white"/>
<path d="M1720.95 205.18H1723.44V207.677H1720.95V205.18Z" fill="white"/>
<path d="M1730.09 296.751H1732.59V299.249H1730.09V296.751Z" fill="white"/>
<path d="M1730.09 205.18H1732.59V207.677H1730.09V205.18Z" fill="white"/>
<path d="M1739.24 296.751H1741.74V299.249H1739.24V296.751Z" fill="white"/>
<path d="M1739.24 205.18H1741.74V207.677H1739.24V205.18Z" fill="white"/>
<path d="M1748.39 296.751H1750.88V299.249H1748.39V296.751Z" fill="white"/>
<path d="M1748.39 205.18H1750.88V207.677H1748.39V205.18Z" fill="white"/>
<path d="M1757.54 296.751H1760.03V299.249H1757.54V296.751Z" fill="white"/>
<path d="M1757.54 205.18H1760.03V207.677H1757.54V205.18Z" fill="white"/>
<path d="M1766.69 296.751H1769.18V299.249H1766.69V296.751Z" fill="white"/>
<path d="M1766.69 205.18H1769.18V207.677H1766.69V205.18Z" fill="white"/>
<path d="M1775.83 296.751H1778.33V299.249H1775.83V296.751Z" fill="white"/>
<path d="M1775.83 205.18H1778.33V207.677H1775.83V205.18Z" fill="white"/>
<path d="M1784.98 296.751H1787.48V299.249H1784.98V296.751Z" fill="white"/>
<path d="M1784.98 205.18H1787.48V207.677H1784.98V205.18Z" fill="white"/>
<path d="M1794.13 296.751H1796.62V299.249H1794.13V296.751Z" fill="white"/>
<path d="M1794.13 205.18H1796.62V207.677H1794.13V205.18Z" fill="white"/>
<path d="M1620.32 305.076H1622.81V307.573H1620.32V305.076Z" fill="white"/>
<path d="M1620.32 213.505H1622.81V216.002H1620.32V213.505Z" fill="white"/>
<path d="M1629.46 305.076H1631.96V307.573H1629.46V305.076Z" fill="white"/>
<path d="M1629.46 213.505H1631.96V216.002H1629.46V213.505Z" fill="white"/>
<path d="M1638.61 305.076H1641.11V307.573H1638.61V305.076Z" fill="white"/>
<path d="M1638.61 213.505H1641.11V216.002H1638.61V213.505Z" fill="white"/>
<path d="M1647.76 305.076H1650.26V307.573H1647.76V305.076Z" fill="white"/>
<path d="M1647.76 213.505H1650.26V216.002H1647.76V213.505Z" fill="white"/>
<path d="M1656.91 305.076H1659.4V307.573H1656.91V305.076Z" fill="white"/>
<path d="M1656.91 213.505H1659.4V216.002H1656.91V213.505Z" fill="white"/>
<path d="M1666.06 305.076H1668.55V307.573H1666.06V305.076Z" fill="white"/>
<path d="M1666.06 213.505H1668.55V216.002H1666.06V213.505Z" fill="white"/>
<path d="M1675.21 305.076H1677.7V307.573H1675.21V305.076Z" fill="white"/>
<path d="M1675.21 213.505H1677.7V216.002H1675.21V213.505Z" fill="white"/>
<path d="M1684.35 305.076H1686.85V307.573H1684.35V305.076Z" fill="white"/>
<path d="M1684.35 213.505H1686.85V216.002H1684.35V213.505Z" fill="white"/>
<path d="M1693.5 305.076H1696V307.573H1693.5V305.076Z" fill="white"/>
<path d="M1693.5 213.505H1696V216.002H1693.5V213.505Z" fill="white"/>
<path d="M1702.65 305.076H1705.14V307.573H1702.65V305.076Z" fill="white"/>
<path d="M1702.65 213.505H1705.14V216.002H1702.65V213.505Z" fill="white"/>
<path d="M1711.8 305.076H1714.29V307.573H1711.8V305.076Z" fill="white"/>
<path d="M1711.8 213.505H1714.29V216.002H1711.8V213.505Z" fill="white"/>
<path d="M1720.95 305.076H1723.44V307.573H1720.95V305.076Z" fill="white"/>
<path d="M1720.95 213.505H1723.44V216.002H1720.95V213.505Z" fill="white"/>
<path d="M1730.09 305.076H1732.59V307.573H1730.09V305.076Z" fill="white"/>
<path d="M1730.09 213.505H1732.59V216.002H1730.09V213.505Z" fill="white"/>
<path d="M1739.24 305.076H1741.74V307.573H1739.24V305.076Z" fill="white"/>
<path d="M1739.24 213.505H1741.74V216.002H1739.24V213.505Z" fill="white"/>
<path d="M1748.39 305.076H1750.88V307.573H1748.39V305.076Z" fill="white"/>
<path d="M1748.39 213.505H1750.88V216.002H1748.39V213.505Z" fill="white"/>
<path d="M1757.54 305.076H1760.03V307.573H1757.54V305.076Z" fill="white"/>
<path d="M1757.54 213.505H1760.03V216.002H1757.54V213.505Z" fill="white"/>
<path d="M1766.69 305.076H1769.18V307.573H1766.69V305.076Z" fill="white"/>
<path d="M1766.69 213.505H1769.18V216.002H1766.69V213.505Z" fill="white"/>
<path d="M1775.83 305.076H1778.33V307.573H1775.83V305.076Z" fill="white"/>
<path d="M1775.83 213.505H1778.33V216.002H1775.83V213.505Z" fill="white"/>
<path d="M1784.98 305.076H1787.48V307.573H1784.98V305.076Z" fill="white"/>
<path d="M1784.98 213.505H1787.48V216.002H1784.98V213.505Z" fill="white"/>
<path d="M1794.13 305.076H1796.62V307.573H1794.13V305.076Z" fill="white"/>
<path d="M1794.13 213.505H1796.62V216.002H1794.13V213.505Z" fill="white"/>
<path d="M1620.32 313.401H1622.81V315.898H1620.32V313.401Z" fill="white"/>
<path d="M1620.32 221.829H1622.81V224.327H1620.32V221.829Z" fill="white"/>
<path d="M1629.46 313.401H1631.96V315.898H1629.46V313.401Z" fill="white"/>
<path d="M1629.46 221.829H1631.96V224.327H1629.46V221.829Z" fill="white"/>
<path d="M1638.61 313.401H1641.11V315.898H1638.61V313.401Z" fill="white"/>
<path d="M1638.61 221.829H1641.11V224.327H1638.61V221.829Z" fill="white"/>
<path d="M1647.76 313.401H1650.26V315.898H1647.76V313.401Z" fill="white"/>
<path d="M1647.76 221.829H1650.26V224.327H1647.76V221.829Z" fill="white"/>
<path d="M1656.91 313.401H1659.4V315.898H1656.91V313.401Z" fill="white"/>
<path d="M1656.91 221.829H1659.4V224.327H1656.91V221.829Z" fill="white"/>
<path d="M1666.06 313.401H1668.55V315.898H1666.06V313.401Z" fill="white"/>
<path d="M1666.06 221.829H1668.55V224.327H1666.06V221.829Z" fill="white"/>
<path d="M1675.21 313.401H1677.7V315.898H1675.21V313.401Z" fill="white"/>
<path d="M1675.21 221.829H1677.7V224.327H1675.21V221.829Z" fill="white"/>
<path d="M1684.35 313.401H1686.85V315.898H1684.35V313.401Z" fill="white"/>
<path d="M1684.35 221.829H1686.85V224.327H1684.35V221.829Z" fill="white"/>
<path d="M1693.5 313.401H1696V315.898H1693.5V313.401Z" fill="white"/>
<path d="M1693.5 221.829H1696V224.327H1693.5V221.829Z" fill="white"/>
<path d="M1702.65 313.401H1705.14V315.898H1702.65V313.401Z" fill="white"/>
<path d="M1702.65 221.829H1705.14V224.327H1702.65V221.829Z" fill="white"/>
<path d="M1711.8 313.401H1714.29V315.898H1711.8V313.401Z" fill="white"/>
<path d="M1711.8 221.829H1714.29V224.327H1711.8V221.829Z" fill="white"/>
<path d="M1720.95 313.401H1723.44V315.898H1720.95V313.401Z" fill="white"/>
<path d="M1720.95 221.829H1723.44V224.327H1720.95V221.829Z" fill="white"/>
<path d="M1730.09 313.401H1732.59V315.898H1730.09V313.401Z" fill="white"/>
<path d="M1730.09 221.829H1732.59V224.327H1730.09V221.829Z" fill="white"/>
<path d="M1739.24 313.401H1741.74V315.898H1739.24V313.401Z" fill="white"/>
<path d="M1739.24 221.829H1741.74V224.327H1739.24V221.829Z" fill="white"/>
<path d="M1748.39 313.401H1750.88V315.898H1748.39V313.401Z" fill="white"/>
<path d="M1748.39 221.829H1750.88V224.327H1748.39V221.829Z" fill="white"/>
<path d="M1757.54 313.401H1760.03V315.898H1757.54V313.401Z" fill="white"/>
<path d="M1757.54 221.829H1760.03V224.327H1757.54V221.829Z" fill="white"/>
<path d="M1766.69 313.401H1769.18V315.898H1766.69V313.401Z" fill="white"/>
<path d="M1766.69 221.829H1769.18V224.327H1766.69V221.829Z" fill="white"/>
<path d="M1775.83 313.401H1778.33V315.898H1775.83V313.401Z" fill="white"/>
<path d="M1775.83 221.829H1778.33V224.327H1775.83V221.829Z" fill="white"/>
<path d="M1784.98 313.401H1787.48V315.898H1784.98V313.401Z" fill="white"/>
<path d="M1784.98 221.829H1787.48V224.327H1784.98V221.829Z" fill="white"/>
<path d="M1794.13 313.401H1796.62V315.898H1794.13V313.401Z" fill="white"/>
<path d="M1794.13 221.829H1796.62V224.327H1794.13V221.829Z" fill="white"/>
<path d="M1620.32 321.725H1622.81V324.223H1620.32V321.725Z" fill="white"/>
<path d="M1620.32 230.154H1622.81V232.651H1620.32V230.154Z" fill="white"/>
<path d="M1629.46 321.725H1631.96V324.223H1629.46V321.725Z" fill="white"/>
<path d="M1629.46 230.154H1631.96V232.651H1629.46V230.154Z" fill="white"/>
<path d="M1638.61 321.725H1641.11V324.223H1638.61V321.725Z" fill="white"/>
<path d="M1638.61 230.154H1641.11V232.651H1638.61V230.154Z" fill="white"/>
<path d="M1647.76 321.725H1650.26V324.223H1647.76V321.725Z" fill="white"/>
<path d="M1647.76 230.154H1650.26V232.651H1647.76V230.154Z" fill="white"/>
<path d="M1656.91 321.725H1659.4V324.223H1656.91V321.725Z" fill="white"/>
<path d="M1656.91 230.154H1659.4V232.651H1656.91V230.154Z" fill="white"/>
<path d="M1666.06 321.725H1668.55V324.223H1666.06V321.725Z" fill="white"/>
<path d="M1666.06 230.154H1668.55V232.651H1666.06V230.154Z" fill="white"/>
<path d="M1675.21 321.725H1677.7V324.223H1675.21V321.725Z" fill="white"/>
<path d="M1675.21 230.154H1677.7V232.651H1675.21V230.154Z" fill="white"/>
<path d="M1684.35 321.725H1686.85V324.223H1684.35V321.725Z" fill="white"/>
<path d="M1684.35 230.154H1686.85V232.651H1684.35V230.154Z" fill="white"/>
<path d="M1693.5 321.725H1696V324.223H1693.5V321.725Z" fill="white"/>
<path d="M1693.5 230.154H1696V232.651H1693.5V230.154Z" fill="white"/>
<path d="M1702.65 321.725H1705.14V324.223H1702.65V321.725Z" fill="white"/>
<path d="M1702.65 230.154H1705.14V232.651H1702.65V230.154Z" fill="white"/>
<path d="M1711.8 321.725H1714.29V324.223H1711.8V321.725Z" fill="white"/>
<path d="M1711.8 230.154H1714.29V232.651H1711.8V230.154Z" fill="white"/>
<path d="M1720.95 321.725H1723.44V324.223H1720.95V321.725Z" fill="white"/>
<path d="M1720.95 230.154H1723.44V232.651H1720.95V230.154Z" fill="white"/>
<path d="M1730.09 321.725H1732.59V324.223H1730.09V321.725Z" fill="white"/>
<path d="M1730.09 230.154H1732.59V232.651H1730.09V230.154Z" fill="white"/>
<path d="M1739.24 321.725H1741.74V324.223H1739.24V321.725Z" fill="white"/>
<path d="M1739.24 230.154H1741.74V232.651H1739.24V230.154Z" fill="white"/>
<path d="M1748.39 321.725H1750.88V324.223H1748.39V321.725Z" fill="white"/>
<path d="M1748.39 230.154H1750.88V232.651H1748.39V230.154Z" fill="white"/>
<path d="M1757.54 321.725H1760.03V324.223H1757.54V321.725Z" fill="white"/>
<path d="M1757.54 230.154H1760.03V232.651H1757.54V230.154Z" fill="white"/>
<path d="M1766.69 321.725H1769.18V324.223H1766.69V321.725Z" fill="white"/>
<path d="M1766.69 230.154H1769.18V232.651H1766.69V230.154Z" fill="white"/>
<path d="M1775.83 321.725H1778.33V324.223H1775.83V321.725Z" fill="white"/>
<path d="M1775.83 230.154H1778.33V232.651H1775.83V230.154Z" fill="white"/>
<path d="M1784.98 321.725H1787.48V324.223H1784.98V321.725Z" fill="white"/>
<path d="M1784.98 230.154H1787.48V232.651H1784.98V230.154Z" fill="white"/>
<path d="M1794.13 321.725H1796.62V324.223H1794.13V321.725Z" fill="white"/>
<path d="M1794.13 230.154H1796.62V232.651H1794.13V230.154Z" fill="white"/>
<path d="M1619.89 289C1636.46 289 1649.89 302.431 1649.89 319C1649.89 335.569 1636.46 349 1619.89 349C1603.32 349 1589.89 335.569 1589.89 319C1589.89 302.431 1603.32 289 1619.89 289Z" fill="#F4F9FF"/>
<path d="M1777.83 1.68294e-06L1918.96 0L1918.96 141.113C1900.43 141.113 1882.08 137.464 1864.95 130.371C1847.83 123.279 1832.27 112.885 1819.17 99.7809C1806.06 86.6772 1795.67 71.1209 1788.58 54.0011C1781.48 36.8813 1777.83 18.5309 1777.83 1.68294e-06Z" fill="#F4F9FF"/>
<path d="M1345.69 162.471C1345.57 160.879 1346.9 159.551 1348.49 159.682L1361.45 160.75C1363.65 160.931 1364.63 163.603 1363.07 165.162L1351.15 177.057C1349.59 178.616 1346.92 177.633 1346.74 175.434L1345.69 162.471Z" fill="#F9FBFF"/>
<path d="M1418.39 174.785C1409.46 174.785 1402.21 182.029 1402.21 190.964C1402.21 199.899 1409.46 207.143 1418.39 207.143C1427.33 207.143 1434.57 199.899 1434.57 190.964C1434.57 182.029 1427.33 174.785 1418.39 174.785Z" stroke="#F9FBFF" stroke-width="3.88294"/>
<path d="M947.631 29C954.054 29 959.262 34.2073 959.262 40.6309C959.262 47.0545 954.054 52.2618 947.631 52.2618C941.207 52.2618 936 47.0545 936 40.6309C936 34.2073 941.207 29 947.631 29Z" stroke="#F9FBFF" stroke-width="2.79142"/>
<circle r="8.41304" transform="matrix(-1 0 0 1 1375.68 231.087)" fill="#F9FBFF"/>
<circle cx="986.711" cy="58.3098" r="6.04808" fill="#F9FBFF"/>
<path d="M381.424 285.762L381.427 285.764L364.599 275.514L374.808 258.682C375.648 257.297 375.231 255.457 373.849 254.615L371.696 253.303C370.314 252.461 368.487 252.935 367.647 254.32L357.438 271.152L340.61 260.902C339.229 260.061 337.424 260.496 336.584 261.881L335.268 264.051C334.428 265.436 334.876 267.236 336.258 268.078L353.086 278.328L342.84 295.221C342 296.605 342.458 298.387 343.84 299.229L345.993 300.541C347.376 301.383 349.161 300.967 350.001 299.582L360.247 282.69L377.072 292.938C378.454 293.78 380.257 293.35 381.097 291.966L382.413 289.796C383.254 288.411 382.806 286.604 381.424 285.762Z" fill="#F9FBFF"/>
<path d="M485.943 313.725L485.945 313.726L469.117 303.476L479.326 286.644C480.166 285.259 479.75 283.419 478.367 282.577L476.214 281.265C474.832 280.424 473.006 280.897 472.165 282.282L461.956 299.114L445.129 288.865C443.747 288.023 441.943 288.458 441.102 289.844L439.786 292.014C438.946 293.398 439.394 295.198 440.776 296.04L457.604 306.29L447.358 323.183C446.519 324.568 446.976 326.35 448.359 327.192L450.512 328.503C451.894 329.345 453.68 328.929 454.519 327.545L464.765 310.652L481.59 320.9C482.973 321.742 484.776 321.313 485.615 319.929L486.932 317.759C487.772 316.373 487.325 314.567 485.943 313.725Z" fill="#F9FBFF"/>
<path d="M478.058 112.129C447.098 112.129 422 87.028 422 56.0646L422 0.000246313L534.116 0.000236511L534.116 56.0646C534.116 87.028 509.018 112.129 478.058 112.129Z" fill="#F4F9FF"/>
</svg>
